# Blender 4.4.0
# www.blender.org
mtllib ladder.mtl
o Cube
v 0.158637 12.739365 -1.000000
v 0.158637 -1.000000 -1.000000
v 0.158637 12.739365 1.000000
v 0.158637 -1.000000 1.000000
v -0.158637 12.739365 -1.000000
v -0.158637 -1.000000 -1.000000
v -0.158637 12.739365 1.000000
v -0.158637 -1.000000 1.000000
vn -0.0000 1.0000 -0.0000
vn -0.0000 -0.0000 1.0000
vn -1.0000 -0.0000 -0.0000
vn -0.0000 -1.0000 -0.0000
vn 1.0000 -0.0000 -0.0000
vn -0.0000 -0.0000 -1.0000
vt 0.592856 0.419076
vt 0.754705 0.419076
vt 0.754705 0.580924
vt 0.592856 0.580924
vt 0.421704 0.720575
vt 0.578296 0.720575
vt 0.578296 0.803380
vt 0.421704 0.803380
vt 0.375000 0.151228
vt 0.625000 0.151228
vt 0.625000 0.280349
vt 0.375000 0.280349
vt 0.321488 0.417678
vt 0.690708 0.417678
vt 0.690708 0.576440
vt 0.321488 0.576440
vt 0.016174 2.204164
vt 0.016174 -0.996688
vt 0.982145 -0.996688
vt 0.982145 2.204164
vt 0.375000 0.438244
vt 0.625000 0.438244
vt 0.625000 0.563740
vt 0.375000 0.563740
s 0
usemtl Material
f 1/1/1 5/2/1 7/3/1 3/4/1
f 4/5/2 3/6/2 7/7/2 8/8/2
f 8/9/3 7/10/3 5/11/3 6/12/3
f 6/13/4 2/14/4 4/15/4 8/16/4
f 2/17/5 1/18/5 3/19/5 4/20/5
f 6/21/6 5/22/6 1/23/6 2/24/6
