# Blender 4.1.1
# www.blender.org
mtllib b1.mtl
o block1
v -0.177174 0.034340 -0.575351
v 1.141267 1.676131 -3.072621
v 2.395950 -1.907241 -1.701396
v 0.588335 -0.883111 -0.185962
v 3.164006 0.246836 -2.840720
v 1.514886 -1.461825 -5.629768
v -1.920744 0.288219 -3.151636
v 2.044144 0.116967 -6.585898
v 2.552103 -1.543191 -5.604469
v 3.386948 -0.633737 -3.051812
v 2.684074 0.798017 -5.780182
v 0.598128 1.246899 -1.568693
v 3.315689 -0.248393 -6.285730
v -1.309271 0.788207 -4.353280
v 1.547311 -2.041999 -1.518993
v -0.752706 -0.976999 -1.075269
v -0.645745 1.711259 -2.944789
v 0.101953 1.776705 -4.847843
v 1.837939 -1.852770 -0.524119
v 2.925576 -1.118576 1.319542
v 1.105426 0.371868 -0.192533
v 1.485610 -1.188668 -0.963247
v 2.538431 0.490717 0.839683
v 0.726501 0.113125 2.575831
v 1.278171 -2.765478 1.354479
v 1.754760 0.191216 3.416123
v 0.932754 0.798133 2.486139
v 2.007904 0.859396 0.843237
v 2.437949 0.362597 2.931761
v 2.689024 -1.527769 0.274480
v 1.868827 1.063908 3.086431
v 1.610976 -2.360212 2.201504
v 0.831374 -0.163542 -0.285090
v 0.994741 -1.938642 -0.297273
v 2.522711 -2.292559 1.343289
v 2.532345 -1.625814 2.593853
v -1.419797 1.945790 -3.309381
v 1.450492 1.648752 -1.621478
v -1.673012 4.159224 -0.617205
v -2.058054 3.002917 -2.949790
v 0.922806 3.869491 -0.493967
v -0.182435 1.511301 2.202552
v -0.936273 -0.824655 -1.794696
v 1.751565 1.214464 2.384627
v 0.147537 2.467451 2.536179
v 0.324053 4.163956 0.188437
v 2.298311 2.001459 1.562202
v 0.307090 1.931202 -2.839590
v 1.825882 2.564801 2.698802
v 0.183877 -0.925527 -0.845525
v -2.192942 3.511558 -0.961279
v -2.341014 1.424947 -2.561007
v 0.727374 0.101057 -2.288488
v 1.783158 -0.099290 -0.491693
vn 0.0480 -0.5291 -0.8472
vn -0.6583 -0.5148 -0.5492
vn -0.3771 0.7192 0.5836
vn 0.5714 0.8184 0.0602
vn 0.7743 -0.6322 -0.0280
vn -0.7346 0.6719 -0.0943
vn 0.5318 0.4594 0.7115
vn -0.4901 0.2880 -0.8227
vn 0.3106 0.9418 -0.1285
vn 0.4980 0.7696 0.3995
vn 0.8388 -0.5381 -0.0826
vn 0.2193 0.5305 0.8188
vn -0.5703 -0.2771 -0.7733
vn 0.9698 0.2437 0.0077
vn 0.7825 0.0493 0.6207
vn -0.6762 0.5317 0.5100
vn 0.0394 0.9570 0.2874
vn 0.2575 -0.6298 0.7328
vn 0.6810 0.1376 0.7193
vn 0.8471 0.5301 -0.0389
vn 0.3401 0.5675 -0.7498
vn -0.8063 0.1803 0.5634
vn -0.5449 -0.1014 0.8324
vn 0.1381 -0.9866 -0.0865
vn -0.0143 -0.4590 -0.8883
vn -0.0741 -0.9875 -0.1388
vn 0.0227 0.9988 0.0433
vn 0.0428 0.7460 -0.6646
vn -0.6095 0.7635 -0.2132
vn -0.2795 -0.8151 0.5075
vn -0.5496 -0.8142 -0.1870
vn -0.4364 -0.8914 -0.1224
vn -0.6088 0.3488 0.7126
vn -0.7976 -0.3586 0.4850
vn 0.6236 -0.6784 -0.3884
vn 0.9661 0.2508 0.0618
vn -0.3114 0.9352 -0.1689
vn 0.3419 -0.8929 0.2929
vn 0.7283 0.2346 -0.6438
vn -0.0439 -0.4274 0.9030
vn 0.9560 -0.0044 0.2932
vn 0.9507 0.1473 -0.2729
vn -0.2108 0.9722 -0.1017
vn 0.7004 -0.0961 -0.7073
vn -0.5844 -0.3217 0.7450
vn 0.5700 0.8207 -0.0395
vn 0.4251 0.6181 -0.6613
vn 0.3327 -0.8834 -0.3300
vn 0.9418 -0.3249 -0.0860
vn -0.3680 0.3381 -0.8662
vn 0.4864 0.4793 -0.7305
vn 0.7824 0.6183 0.0754
vn 0.5202 0.2415 0.8192
vn -0.0281 -0.8958 -0.4436
vn -0.1504 -0.5996 -0.7861
vn -0.8731 0.4696 -0.1310
vn -0.5731 0.2737 0.7725
vn -0.9579 0.2803 -0.0622
vn 0.9344 -0.3174 0.1620
vn 0.5928 -0.1075 0.7981
vn 0.4512 -0.7889 0.4171
vn -0.7662 -0.0661 -0.6392
vn -0.9752 -0.2127 0.0609
vn -0.9954 -0.0914 -0.0276
vn -0.1246 -0.2183 0.9679
vn -0.4928 -0.7076 0.5064
vn 0.2540 -0.2249 -0.9407
vn 0.8936 0.3530 -0.2771
vn -0.2274 0.7973 0.5591
vn 0.3206 -0.8247 -0.4660
vn 0.3384 0.6799 -0.6506
vn 0.3523 -0.8498 0.3920
vn 0.9657 0.0164 -0.2590
vn 0.7013 0.4481 -0.5544
vn -0.1029 0.8099 0.5775
vn 0.2393 0.4391 -0.8660
vn -0.1762 -0.7791 0.6017
vn 0.5787 0.7991 0.1629
vn 0.1199 0.9455 -0.3028
vn 0.0059 -0.4789 -0.8778
vn 0.7237 -0.0412 -0.6889
vn -0.6998 0.6793 -0.2212
vn 0.1201 0.8814 -0.4568
vn 0.7911 0.6111 0.0259
vn 0.8839 -0.1516 0.4425
vn -0.3618 -0.4950 -0.7899
vn -0.5971 -0.0893 -0.7972
vn -0.7528 0.2906 0.5906
vn -0.0743 -0.3056 0.9493
vn -0.8167 0.0825 0.5712
vn 0.8409 -0.1717 -0.5132
vn 0.8897 -0.4115 0.1977
vn 0.4896 -0.7870 -0.3755
vn -0.9830 0.1504 -0.1051
vn -0.8358 -0.3905 0.3858
vn -0.8809 -0.2470 0.4037
vt 14.420962 -6.750616
vt 14.339425 -6.428081
vt 14.120763 -6.750616
vt 14.657867 -13.733007
vt 14.382231 -13.923123
vt 14.382231 -14.808332
vt 10.355048 14.004848
vt 10.238830 13.606125
vt 10.617183 13.331146
vt 14.582814 3.390054
vt 14.603042 4.169060
vt 14.060621 3.923466
vt 13.617072 -6.990122
vt 13.547735 -7.950415
vt 13.914926 -7.396690
vt 11.011736 13.312427
vt 11.007298 13.600225
vt 14.424444 4.486383
vt 13.915792 4.567618
vt 14.727886 -8.794157
vt 14.382229 -9.069689
vt 14.615628 -9.795019
vt 14.987940 3.879873
vt 13.866674 -8.187778
vt 10.238830 14.229126
vt 15.001226 -9.665128
vt 13.915792 3.773698
vt 14.390462 3.130457
vt 14.120763 -7.367793
vt 14.846213 4.333787
vt 13.547735 -6.909939
vt 13.827625 -6.592519
vt 14.666224 3.198645
vt 10.618088 14.137647
vt 15.370845 -14.752394
vt 15.374117 -14.557476
vt 14.451025 -15.045671
vt 6.494988 11.094207
vt 6.390843 11.285117
vt 6.390843 10.725747
vt 14.382229 -9.762156
vt 14.423420 -8.666495
vt 15.283081 -13.933275
vt 15.558619 -14.164059
vt -0.117753 0.646660
vt -0.117753 0.868091
vt -0.311469 0.695632
vt 0.184079 1.415132
vt 0.000617 1.288592
vt 0.000617 0.699404
vt 0.860967 1.002302
vt 0.783613 0.736915
vt 1.035442 0.553892
vt 0.444581 -0.242346
vt 0.458044 0.276155
vt 0.097013 0.112689
vt -0.334636 0.382019
vt -0.380787 -0.257145
vt -0.136387 0.111410
vt 1.298053 0.541432
vt 1.295100 0.732989
vt 0.339171 0.487363
vt 0.000616 0.541432
vt 0.944297 0.251035
vt 0.714230 0.067643
vt 0.869579 -0.415132
vt 0.714230 0.083674
vt -0.168503 -0.415132
vt 0.783613 1.151580
vt 1.126230 -0.328677
vt 0.000616 0.013005
vt 0.316553 -0.415132
vt 0.000616 0.130644
vt 0.619898 0.385796
vt -0.380787 0.435388
vt -0.194494 0.646660
vt 0.500098 -0.369746
vt 1.036044 1.090693
vt 0.658631 0.736636
vt 0.660809 0.866372
vt 0.046406 0.541433
vt -0.311468 0.891904
vt -0.380787 1.018972
vt -0.380787 0.646660
vt 0.714230 -0.393258
vt 0.741646 0.336005
vt 0.600216 1.281835
vt 0.783613 1.128228
s 0
usemtl cliff
f 8/1/1 13/2/1 6/3/1
f 7/4/2 14/5/2 6/6/2
f 1/7/3 12/8/3 17/9/3
f 11/10/4 2/11/4 5/12/4
f 3/13/5 9/14/5 10/15/5
f 14/16/6 7/17/6 17/9/6
f 5/12/7 12/18/7 4/19/7
f 14/20/8 18/21/8 8/22/8
f 2/11/9 11/10/9 18/23/9
f 2/11/10 12/18/10 5/12/10
f 10/15/11 9/14/11 13/24/11
f 1/7/12 4/25/12 12/8/12
f 6/26/13 14/20/13 8/22/13
f 5/12/14 10/27/14 13/28/14
f 5/29/15 3/13/15 10/15/15
f 7/17/16 1/7/16 17/9/16
f 12/18/17 2/11/17 17/30/17
f 15/31/18 3/13/18 4/32/18
f 4/32/19 3/13/19 5/29/19
f 13/28/20 11/10/20 5/12/20
f 11/10/21 13/28/21 8/33/21
f 7/17/22 16/34/22 1/7/22
f 16/34/23 4/25/23 1/7/23
f 3/35/24 15/36/24 9/37/24
f 9/38/25 6/39/25 13/40/25
f 6/6/26 9/37/26 15/36/26
f 18/23/27 17/30/27 2/11/27
f 11/41/28 8/22/28 18/21/28
f 17/42/29 18/21/29 14/20/29
f 16/43/30 15/36/30 4/44/30
f 6/6/31 16/43/31 7/4/31
f 6/6/32 15/36/32 16/43/32
f 26/45/33 31/46/33 24/47/33
f 25/48/34 32/49/34 24/50/34
f 19/51/35 30/52/35 35/53/35
f 29/54/36 20/55/36 23/56/36
f 21/57/37 27/58/37 28/59/37
f 32/60/38 25/61/38 35/53/38
f 23/56/39 30/62/39 22/63/39
f 32/64/40 36/65/40 26/66/40
f 20/55/41 29/54/41 36/67/41
f 20/55/42 30/62/42 23/56/42
f 28/59/43 27/58/43 31/68/43
f 19/51/44 22/69/44 30/52/44
f 24/70/45 32/64/45 26/66/45
f 23/56/46 28/71/46 31/72/46
f 23/73/47 21/57/47 28/59/47
f 25/61/48 19/51/48 35/53/48
f 30/62/49 20/55/49 35/74/49
f 33/75/50 21/57/50 22/76/50
f 22/76/51 21/57/51 23/73/51
f 31/72/52 29/54/52 23/56/52
f 29/54/53 31/72/53 26/77/53
f 25/61/54 34/78/54 19/51/54
f 34/78/55 22/69/55 19/51/55
f 21/79/56 33/80/56 27/81/56
f 27/82/57 24/83/57 31/84/57
f 24/50/58 27/81/58 33/80/58
f 36/67/59 35/74/59 20/55/59
f 29/85/60 26/66/60 36/65/60
f 35/86/61 36/65/61 32/64/61
f 34/87/62 33/80/62 22/88/62
f 24/50/63 34/87/63 25/48/63
f 24/50/64 33/80/64 34/87/64
f 44/1/65 49/2/65 42/3/65
f 43/4/66 50/5/66 42/6/66
f 37/7/67 48/8/67 53/9/67
f 47/10/68 38/11/68 41/12/68
f 39/13/69 45/14/69 46/15/69
f 50/16/70 43/17/70 53/9/70
f 41/12/71 48/18/71 40/19/71
f 50/20/72 54/21/72 44/22/72
f 38/11/73 47/10/73 54/23/73
f 38/11/74 48/18/74 41/12/74
f 46/15/75 45/14/75 49/24/75
f 37/7/76 40/25/76 48/8/76
f 42/26/77 50/20/77 44/22/77
f 41/12/78 46/27/78 49/28/78
f 41/29/79 39/13/79 46/15/79
f 43/17/80 37/7/80 53/9/80
f 48/18/81 38/11/81 53/30/81
f 51/31/82 39/13/82 40/32/82
f 40/32/83 39/13/83 41/29/83
f 49/28/84 47/10/84 41/12/84
f 47/10/85 49/28/85 44/33/85
f 43/17/86 52/34/86 37/7/86
f 52/34/87 40/25/87 37/7/87
f 39/35/88 51/36/88 45/37/88
f 45/38/89 42/39/89 49/40/89
f 42/6/90 45/37/90 51/36/90
f 54/23/91 53/30/91 38/11/91
f 47/41/92 44/22/92 54/21/92
f 53/42/93 54/21/93 50/20/93
f 52/43/94 51/36/94 40/44/94
f 42/6/95 52/43/95 43/4/95
f 42/6/96 51/36/96 52/43/96
