# Blender 4.2.3 LTS
# www.blender.org
mtllib ramp2.mtl
o ramp2
v -5.000000 1.000000 -4.500000
v -5.000000 1.000000 4.500000
v 3.000000 5.000000 -4.500000
v 3.000000 5.000000 4.500000
v 5.000000 1.000000 -4.500000
v 5.000000 1.000000 4.500000
v -5.000000 -4.000000 -4.500000
v -5.000000 -4.000000 4.500000
v 5.000000 -4.000000 -4.500000
v 5.000000 -4.000000 4.500000
v 5.000000 5.000000 -4.500000
v 5.000000 5.000000 4.500000
vn -0.4472 0.8944 -0.0000
vn -0.0000 1.0000 -0.0000
vn -0.0000 -0.0000 -1.0000
vn -0.0000 -0.0000 1.0000
vn 1.0000 -0.0000 -0.0000
vn -1.0000 -0.0000 -0.0000
vn -0.0000 -1.0000 -0.0000
vt 0.000000 0.000000
s 0
f 1/1/1 2/1/1 4/1/1 3/1/1
f 4/1/2 12/1/2 11/1/2 3/1/2
f 1/1/3 3/1/3 5/1/3
f 4/1/4 2/1/4 6/1/4
f 2/1/4 8/1/4 10/1/4 6/1/4
f 6/1/5 10/1/5 9/1/5 5/1/5
f 1/1/6 7/1/6 8/1/6 2/1/6
f 5/1/3 9/1/3 7/1/3 1/1/3
f 4/1/4 6/1/4 12/1/4
f 5/1/3 3/1/3 11/1/3
f 6/1/5 5/1/5 11/1/5 12/1/5
f 8/1/7 7/1/7 9/1/7 10/1/7
o wall_taller
v 5.000001 -5.000000 4.999999
v -4.999999 -5.000000 5.000001
v 5.000001 5.000000 4.999999
v -4.999999 5.000000 5.000001
v -5.000000 -5.000000 4.500001
v 5.000000 -5.000000 4.500000
v -5.000000 5.000000 4.500001
v 5.000000 5.000000 4.500000
vn -0.0000 -0.0000 -1.0000
vn -1.0000 -0.0000 -0.0000
vn 1.0000 -0.0000 -0.0000
vn -0.0000 1.0000 -0.0000
vn -0.0000 -1.0000 -0.0000
vn -0.0000 -0.0000 1.0000
vt 0.486692 0.608158
vt 0.486692 0.785600
vt 0.344739 0.785600
vt 0.344739 0.608158
vt 0.655261 0.738393
vt 0.646389 0.738393
vt 0.646389 0.596440
vt 0.655261 0.596440
vt 0.646389 0.360815
vt 0.646389 0.218862
vt 0.655261 0.218862
vt 0.655261 0.360815
vt 0.637517 0.076908
vt 0.637517 0.254350
vt 0.628645 0.254350
vt 0.628645 0.076908
vt 0.646389 0.254350
vt 0.637517 0.254350
vt 0.637517 0.076908
vt 0.646389 0.076908
vt 0.486692 0.076908
vt 0.628645 0.254350
vt 0.486692 0.254350
s 1
usemtl Material.008
f 18/2/8 17/3/8 19/4/8 20/5/8
f 17/6/9 14/7/9 16/8/9 19/9/9
f 18/10/10 20/11/10 15/12/10 13/13/10
f 20/14/11 19/15/11 16/16/11 15/17/11
f 18/18/12 13/19/12 14/20/12 17/21/12
f 16/22/13 14/17/13 13/23/13 15/24/13
o wall_taller.001
v -5.000000 -5.000000 -5.000000
v 5.000000 -5.000000 -5.000000
v -5.000000 5.000000 -5.000000
v 5.000000 5.000000 -5.000000
v 5.000000 -5.000000 -4.500000
v -5.000000 -5.000000 -4.500001
v 5.000000 5.000000 -4.500000
v -5.000000 5.000000 -4.500001
vn -0.0000 -0.0000 1.0000
vn 1.0000 -0.0000 -0.0000
vn -1.0000 -0.0000 -0.0000
vn -0.0000 1.0000 -0.0000
vn -0.0000 -1.0000 -0.0000
vn -0.0000 -0.0000 -1.0000
vt 0.486692 0.608158
vt 0.486692 0.785600
vt 0.344739 0.785600
vt 0.344739 0.608158
vt 0.655261 0.738393
vt 0.646389 0.738393
vt 0.646389 0.596440
vt 0.655261 0.596440
vt 0.646389 0.360815
vt 0.646389 0.218862
vt 0.655261 0.218862
vt 0.655261 0.360815
vt 0.637517 0.076908
vt 0.637517 0.254350
vt 0.628645 0.254350
vt 0.628645 0.076908
vt 0.646389 0.254350
vt 0.637517 0.254350
vt 0.637517 0.076908
vt 0.646389 0.076908
vt 0.486692 0.076908
vt 0.628645 0.254350
vt 0.486692 0.254350
s 1
usemtl Material.008
f 26/25/14 25/26/14 27/27/14 28/28/14
f 25/29/15 22/30/15 24/31/15 27/32/15
f 26/33/16 28/34/16 23/35/16 21/36/16
f 28/37/17 27/38/17 24/39/17 23/40/17
f 26/41/18 21/42/18 22/43/18 25/44/18
f 24/45/19 22/40/19 21/46/19 23/47/19
