# Blender 4.2.2 LTS
# www.blender.org
mtllib wasgul.mtl
o Plane
v 1.272465 -4.098986 2.995352
v 1.276300 -4.061168 -3.343925
v -2.599074 -4.331883 3.085219
v -2.596062 -4.225901 -3.394511
v 1.269816 0.456384 0.018255
v -2.601412 0.307139 0.009655
v 1.269825 -0.529909 -2.102535
v -2.602404 -1.168650 -2.338356
v -2.599962 -1.285604 2.335631
v 1.270759 -0.627792 2.115576
v 1.269964 0.437984 0.377633
v -2.601170 0.269115 0.380779
v -2.601671 0.265437 -0.346899
v 1.269684 0.442351 -0.326495
vn 0.0008 0.3293 -0.9442
vn -0.0410 0.9962 0.0770
vn -0.0708 0.8407 -0.5369
vn 0.0109 0.2425 0.9701
vn -0.0702 0.8135 0.5773
vn -0.0417 0.9960 -0.0791
vt 0.679380 0.131865
vt 0.953160 0.131866
vt 0.953160 0.937584
vt 0.679380 0.937583
vt 0.453286 0.131865
vt 0.480358 0.131865
vt 0.480358 0.937583
vt 0.453286 0.937583
vt 0.506248 0.131865
vt 0.506248 0.937583
vt 0.007556 0.131865
vt 0.273560 0.131865
vt 0.273560 0.937583
vt 0.007556 0.937583
s 0
usemtl Material.001
f 7/1/1 2/2/1 4/3/1 8/4/1
f 11/5/2 5/6/2 6/7/2 12/8/2
f 14/9/3 7/1/3 8/4/3 13/10/3
f 1/11/4 10/12/4 9/13/4 3/14/4
f 10/12/5 11/5/5 12/8/5 9/13/5
f 5/6/6 14/9/6 13/10/6 6/7/6
