# Blender 4.1.1
# www.blender.org
mtllib door_frame.mtl
o Cube.005
v -0.259300 1.549842 0.797405
v -0.259300 -0.850158 -0.802595
v -0.259300 1.549842 -0.802595
v 0.264872 -0.850158 0.797405
v 0.264872 -0.850158 -0.802595
v 0.264872 1.549842 -0.802595
v -0.259300 -0.850158 0.797405
v -0.259300 2.227679 -0.002595
v 0.264872 2.227679 -0.002595
v -0.259300 -1.173324 1.082356
v 0.264872 2.109654 0.397405
v -0.259300 -1.178315 0.797405
v 0.264872 -1.178315 0.797405
v -0.259300 -1.178315 -0.802595
v -0.259300 2.109654 -0.402595
v 0.264872 1.549842 0.797405
v 0.264872 -1.178315 -0.802595
v -0.259300 2.109654 0.397405
v 0.264872 2.109654 -0.402595
v -0.259300 -0.845167 1.082356
v -0.259300 1.666266 1.082356
v -0.259300 2.476936 -0.545071
v -0.259300 1.666266 -1.087546
v -0.259300 -0.845167 -1.087546
v 0.264872 -0.845167 -1.087546
v 0.264872 1.666266 -1.087546
v 0.264872 2.476936 0.539880
v 0.264872 1.666266 1.082356
v 0.264872 -0.845167 1.082356
v -0.259300 2.476936 0.539880
v -0.259300 2.624425 -0.002595
v 0.264872 2.476936 -0.545071
v 0.264872 2.624425 -0.002595
v 0.264872 -1.173324 -1.087546
v -0.259300 -1.173324 -1.087546
v 0.264872 -1.173324 1.082356
v -1.000000 -1.252365 1.000000
v -1.000000 -1.252365 -1.000000
v 1.000000 -1.252365 1.000000
v 1.000000 -1.252365 -1.000000
v 0.290923 -1.252365 -1.000000
v 0.290923 -0.827467 -1.000000
v 0.290923 -1.252365 1.000000
v 0.290923 -0.827467 1.000000
v -0.272680 -1.252365 -1.000000
v -0.272680 -0.827467 1.000000
v -0.272680 -0.827467 -1.000000
v -0.272680 -1.252365 1.000000
vn -0.0000 -0.0000 1.0000
vn -0.0000 -0.9998 -0.0175
vn -0.0000 -1.0000 -0.0000
vn -1.0000 -0.0000 -0.0000
vn 1.0000 -0.0000 -0.0000
vn -0.0000 -0.0000 -1.0000
vn -0.0000 0.5561 0.8311
vn -0.0000 0.9650 -0.2624
vn -0.0000 0.9650 0.2624
vn -0.0000 0.5561 -0.8311
vn -0.0000 -0.5814 0.8136
vn -0.0000 -0.9591 0.2830
vn -0.0000 -0.9591 -0.2830
vn -0.0000 -0.5814 -0.8136
vn -0.0000 -0.9998 0.0175
vn -0.0000 1.0000 -0.0000
vn -0.5044 0.8635 -0.0000
vn 0.5140 0.8578 -0.0000
vt 0.754254 0.566735
vt 0.850808 0.566735
vt 0.850808 0.627182
vt 0.754254 0.627182
vt 0.147958 0.751823
vt 0.147958 0.655270
vt 0.200447 0.655270
vt 0.200447 0.751823
vt 0.850808 0.974395
vt 0.754254 0.974395
vt 0.754254 0.679671
vt 0.850808 0.679671
vt 0.302064 0.594822
vt 0.354552 0.593903
vt 0.354552 0.654350
vt 0.302064 0.655270
vt 0.701765 0.152736
vt 0.628084 0.049617
vt 0.654328 -0.018037
vt 0.754254 0.131290
vt 0.554403 0.027877
vt 0.554403 -0.045205
vt 0.407041 0.152736
vt 0.407041 0.594822
vt 0.354552 0.131290
vt 0.480722 0.049617
vt 0.454478 -0.018037
vt 0.154702 0.027877
vt 0.081020 0.049617
vt 0.054776 -0.018037
vt 0.154702 -0.045205
vt 0.850808 0.104122
vt 0.947361 0.104122
vt 0.947361 0.566735
vt 0.754254 0.104122
vt 0.850808 0.104122
vt 0.754254 -0.045205
vt 0.850808 -0.045205
vt 0.051405 0.855120
vt -0.045149 0.855120
vt -0.045149 0.755195
vt 0.051405 0.755195
vt -0.045149 0.655270
vt 0.051405 0.655270
vt 0.947361 -0.045205
vt 0.007339 0.152736
vt -0.045149 0.131290
vt 0.701765 0.594822
vt 0.754254 0.593903
vt 0.007339 0.594822
vt -0.045149 0.593903
vt 0.701765 0.655270
vt 0.407041 0.655270
vt 0.302064 0.152736
vt 0.228383 0.049617
vt 0.254627 -0.018037
vt 1.043915 -0.045205
vt 0.947361 0.057914
vt 1.043915 0.057914
vt 0.051405 0.802632
vt 0.147958 0.802632
vt 0.147958 0.728951
vt 0.051405 0.728951
vt 0.051405 0.655270
vt 0.147958 0.655270
vt 0.947361 0.500000
vt 0.947361 0.603119
vt 1.043915 0.603119
vt 1.043915 0.500000
vt 0.947361 1.045205
vt 1.043915 1.045205
vt 0.754254 0.627182
vt 0.850808 0.627182
vt 0.754254 0.654350
vt 0.007339 0.655270
vt 0.947361 0.627182
vt -0.045149 0.654350
vt 0.947361 0.627182
vt 0.850808 0.627182
vt 0.850808 0.921907
vt 0.947361 0.921907
vt 0.375000 0.411365
vt 0.625000 0.411365
vt 0.375000 0.500000
vt 0.375000 0.909085
vt 0.625000 0.909085
vt 0.375000 1.000000
vt 0.286365 0.500000
vt 0.375000 0.750000
vt 0.286365 0.750000
vt 0.784085 0.500000
vt 0.875000 0.500000
vt 0.875000 0.750000
vt 0.784085 0.750000
vt 0.625000 0.500000
vt 0.713635 0.500000
vt 0.713635 0.750000
vt 0.625000 0.750000
vt 0.215915 0.500000
vt 0.215915 0.750000
vt 0.625000 0.838635
vt 0.375000 0.838635
vt 0.375000 0.340915
vt 0.625000 0.340915
vt 0.625000 0.250000
vt 0.125000 0.500000
vt 0.125000 0.750000
s 0
usemtl default
f 29/1/1 20/2/1 10/3/1 36/4/1
f 17/5/2 14/6/2 35/7/2 34/8/2
f 14/9/3 17/10/3 13/11/3 12/12/3
f 2/13/4 24/14/4 35/15/4 14/16/4
f 16/17/5 11/18/5 27/19/5 28/20/5
f 11/18/5 9/21/5 33/22/5 27/19/5
f 6/23/5 5/24/5 25/14/5 26/25/5
f 9/21/5 19/26/5 32/27/5 33/22/5
f 8/28/4 18/29/4 30/30/4 31/31/4
f 24/2/6 23/32/6 26/33/6 25/34/6
f 29/1/1 28/35/1 21/36/1 20/2/1
f 27/37/7 30/38/7 21/36/7 28/35/7
f 32/39/8 22/40/8 31/41/8 33/42/8
f 33/42/9 31/41/9 30/43/9 27/44/9
f 26/33/10 23/32/10 22/38/10 32/45/10
f 18/29/4 1/46/4 21/47/4 30/30/4
f 4/48/5 16/17/5 28/20/5 29/49/5
f 1/46/4 7/50/4 20/51/4 21/47/4
f 5/24/5 4/48/5 13/52/5 17/53/5
f 3/54/4 15/55/4 22/56/4 23/25/4
f 15/55/4 8/28/4 31/31/4 22/56/4
f 2/13/4 3/54/4 23/25/4 24/14/4
f 19/26/5 6/23/5 26/25/5 32/27/5
f 19/57/11 15/45/11 3/58/11 6/59/11
f 15/60/12 19/61/12 9/62/12 8/63/12
f 18/64/13 8/63/13 9/62/13 11/65/13
f 11/66/14 16/67/14 1/68/14 18/69/14
f 4/70/6 7/71/6 1/68/6 16/67/6
f 6/59/1 3/58/1 2/66/1 5/69/1
f 12/12/15 13/11/15 36/72/15 10/73/15
f 25/14/5 5/24/5 17/53/5 34/15/5
f 4/48/5 29/49/5 36/74/5 13/52/5
f 7/50/4 2/13/4 14/16/4 12/75/4
f 24/2/6 25/34/6 34/76/6 35/3/6
f 20/51/4 7/50/4 12/75/4 10/77/4
f 7/78/16 4/79/16 5/80/16 2/81/16
usemtl cliff
f 41/82/6 42/83/6 40/84/6
f 48/85/1 46/86/1 37/87/1
f 41/88/3 40/84/3 39/89/3 43/90/3
f 47/91/17 38/92/17 37/93/17 46/94/17
f 40/95/18 42/96/18 44/97/18 39/98/18
f 45/99/3 41/88/3 43/90/3 48/100/3
f 39/98/1 44/101/1 43/102/1
f 45/103/6 47/104/6 42/83/6 41/82/6
f 38/105/6 47/104/6 45/103/6
f 38/106/3 45/99/3 48/100/3 37/107/3
f 42/96/16 47/91/16 46/94/16 44/97/16
f 43/102/1 44/101/1 46/86/1 48/85/1
