# Blender 4.2.3 LTS
# www.blender.org
mtllib corner.mtl
o floor
v -5.000000 -5.000000 5.000000
v -5.000000 -4.000000 5.000000
v -5.000000 -5.000000 -5.000000
v -5.000000 -4.000000 -5.000000
v 5.000000 -5.000000 5.000000
v 5.000000 -4.000000 5.000000
v 5.000000 -5.000000 -5.000000
v 5.000000 -4.000000 -5.000000
vn -1.0000 -0.0000 -0.0000
vn -0.0000 -0.0000 -1.0000
vn 1.0000 -0.0000 -0.0000
vn -0.0000 -0.0000 1.0000
vn -0.0000 -1.0000 -0.0000
vn -0.0000 1.0000 -0.0000
vt 0.305556 0.351249
vt 0.305556 0.318684
vt 0.598642 0.318684
vt 0.598642 0.351249
vt 0.012470 0.351249
vt 0.012470 0.318684
vt 0.305556 0.318684
vt 0.305556 0.383814
vt 0.305556 0.351249
vt 0.598642 0.383814
vt 0.012469 0.383814
vt 0.012469 0.351249
vt 0.305556 0.351249
vt 0.305556 0.383814
vt 0.305556 0.318684
vt 0.012469 0.318684
vt 0.012469 0.025598
vt 0.305556 0.025598
vt 0.598642 0.912434
vt 0.305556 0.912434
vt 0.305556 0.619348
vt 0.598642 0.619348
s 1
usemtl Material.002
f 1/1/1 2/2/1 4/3/1 3/4/1
f 3/5/2 4/6/2 8/7/2 7/1/2
f 7/8/3 8/9/3 6/4/3 5/10/3
f 5/11/4 6/12/4 2/13/4 1/14/4
f 3/15/5 7/16/5 5/17/5 1/18/5
f 8/19/6 4/20/6 2/21/6 6/22/6
o wall2
v 5.000000 -4.000000 -5.000000
v 5.000000 -4.000000 5.000000
v 5.000000 4.000000 -5.000000
v 5.000000 4.000000 5.000000
v 4.500001 -4.000000 5.000000
v 4.500000 -4.000000 -5.000000
v 4.500001 4.000000 5.000000
v 4.500000 4.000000 -5.000000
vn -1.0000 -0.0000 -0.0000
vn -0.0000 -0.0000 1.0000
vn -0.0000 -0.0000 -1.0000
vn -0.0000 1.0000 -0.0000
vn -0.0000 -1.0000 -0.0000
vn 1.0000 -0.0000 -0.0000
vt 0.481184 0.631444
vt 0.481184 0.882317
vt 0.280486 0.882317
vt 0.280486 0.631444
vt 0.719514 0.222768
vt 0.706971 0.222768
vt 0.706971 0.022069
vt 0.719514 0.022069
vt 0.706971 0.423467
vt 0.719514 0.423467
vt 0.694427 0.022069
vt 0.694427 0.272943
vt 0.681883 0.272943
vt 0.681883 0.022069
vt 0.706971 0.272943
vt 0.694427 0.022069
vt 0.481184 0.022069
vt 0.681883 0.022069
vt 0.681883 0.272943
vt 0.481184 0.272943
s 0
usemtl Material.002
f 14/23/7 13/24/7 15/25/7 16/26/7
f 13/27/8 10/28/8 12/29/8 15/30/8
f 14/31/9 16/28/9 11/27/9 9/32/9
f 16/33/10 15/34/10 12/35/10 11/36/10
f 14/37/11 9/34/11 10/38/11 13/29/11
f 12/39/12 10/40/12 9/41/12 11/42/12
o wall3
v 5.000001 -4.000000 4.999999
v -4.999999 -4.000000 5.000001
v 5.000001 4.000000 4.999999
v -4.999999 4.000000 5.000001
v -5.000000 -4.000000 4.500001
v 5.000000 -4.000000 4.500000
v -5.000000 4.000000 4.500001
v 5.000000 4.000000 4.500000
vn -0.0000 -0.0000 -1.0000
vn -1.0000 -0.0000 -0.0000
vn 1.0000 -0.0000 -0.0000
vn -0.0000 1.0000 -0.0000
vn -0.0000 -1.0000 -0.0000
vn -0.0000 -0.0000 1.0000
vt 0.486692 0.608158
vt 0.486692 0.785600
vt 0.344739 0.785600
vt 0.344739 0.608158
vt 0.655261 0.738393
vt 0.646389 0.738393
vt 0.646389 0.596440
vt 0.655261 0.596440
vt 0.646389 0.360815
vt 0.646389 0.218862
vt 0.655261 0.218862
vt 0.655261 0.360815
vt 0.637517 0.076908
vt 0.637517 0.254350
vt 0.628645 0.254350
vt 0.628645 0.076908
vt 0.646389 0.254350
vt 0.637517 0.254350
vt 0.637517 0.076908
vt 0.646389 0.076908
vt 0.486692 0.076908
vt 0.628645 0.254350
vt 0.486692 0.254350
s 1
usemtl Material.002
f 22/43/13 21/44/13 23/45/13 24/46/13
f 21/47/14 18/48/14 20/49/14 23/50/14
f 22/51/15 24/52/15 19/53/15 17/54/15
f 24/55/16 23/56/16 20/57/16 19/58/16
f 22/59/17 17/60/17 18/61/17 21/62/17
f 20/63/18 18/58/18 17/64/18 19/65/18
