# Blender 4.2.3 LTS
# www.blender.org
mtllib corridor.mtl
o floor
v -5.000000 -5.000000 5.000000
v -5.000000 -4.000000 5.000000
v -5.000000 -5.000000 -5.000000
v -5.000000 -4.000000 -5.000000
v 5.000000 -5.000000 5.000000
v 5.000000 -4.000000 5.000000
v 5.000000 -5.000000 -5.000000
v 5.000000 -4.000000 -5.000000
vn -1.0000 -0.0000 -0.0000
vn -0.0000 -0.0000 -1.0000
vn 1.0000 -0.0000 -0.0000
vn -0.0000 -0.0000 1.0000
vn -0.0000 -1.0000 -0.0000
vn -0.0000 1.0000 -0.0000
vt 0.305556 0.351249
vt 0.305556 0.318684
vt 0.598642 0.318684
vt 0.598642 0.351249
vt 0.012470 0.351249
vt 0.012470 0.318684
vt 0.305556 0.318684
vt 0.305556 0.383814
vt 0.305556 0.351249
vt 0.598642 0.383814
vt 0.012469 0.383814
vt 0.012469 0.351249
vt 0.305556 0.351249
vt 0.305556 0.383814
vt 0.305556 0.318684
vt 0.012469 0.318684
vt 0.012469 0.025598
vt 0.305556 0.025598
vt 0.598642 0.912434
vt 0.305556 0.912434
vt 0.305556 0.619348
vt 0.598642 0.619348
s 0
usemtl Material.002
f 1/1/1 2/2/1 4/3/1 3/4/1
f 3/5/2 4/6/2 8/7/2 7/1/2
f 7/8/3 8/9/3 6/4/3 5/10/3
f 5/11/4 6/12/4 2/13/4 1/14/4
f 3/15/5 7/16/5 5/17/5 1/18/5
f 8/19/6 4/20/6 2/21/6 6/22/6
o wall1
v -5.000000 -4.000000 -5.000000
v 5.000000 -4.000000 -5.000000
v -5.000000 4.000000 -5.000000
v 5.000000 4.000000 -5.000000
v 5.000000 -4.000000 -4.500000
v -5.000000 -4.000000 -4.500001
v 5.000000 4.000000 -4.500000
v -5.000000 4.000000 -4.500001
vn -0.0000 -0.0000 1.0000
vn 1.0000 -0.0000 -0.0000
vn -1.0000 -0.0000 -0.0000
vn -0.0000 1.0000 -0.0000
vn -0.0000 -1.0000 -0.0000
vn -0.0000 -0.0000 -1.0000
vt 0.486240 0.712708
vt 0.486240 0.896181
vt 0.339461 0.896181
vt 0.339461 0.712708
vt 0.660539 0.218862
vt 0.651365 0.218862
vt 0.651365 0.072083
vt 0.660539 0.072083
vt 0.651365 0.814858
vt 0.651365 0.668080
vt 0.660539 0.668080
vt 0.660539 0.814858
vt 0.642191 0.072083
vt 0.642191 0.255556
vt 0.633018 0.255556
vt 0.633018 0.072083
vt 0.651365 0.255556
vt 0.642191 0.255556
vt 0.642191 0.072083
vt 0.486240 0.072083
vt 0.633018 0.255556
vt 0.486240 0.255556
s 0
usemtl Material.002
f 14/23/7 13/24/7 15/25/7 16/26/7
f 13/27/8 10/28/8 12/29/8 15/30/8
f 14/31/9 16/32/9 11/33/9 9/34/9
f 16/35/10 15/36/10 12/37/10 11/38/10
f 14/39/11 9/40/11 10/41/11 13/29/11
f 12/42/12 10/38/12 9/43/12 11/44/12
o wall3
v 5.000001 -4.000000 4.999999
v -4.999999 -4.000000 5.000001
v 5.000001 4.000000 4.999999
v -4.999999 4.000000 5.000001
v -5.000000 -4.000000 4.500001
v 5.000000 -4.000000 4.500000
v -5.000000 4.000000 4.500001
v 5.000000 4.000000 4.500000
vn -0.0000 -0.0000 -1.0000
vn -1.0000 -0.0000 -0.0000
vn 1.0000 -0.0000 -0.0000
vn -0.0000 1.0000 -0.0000
vn -0.0000 -1.0000 -0.0000
vn -0.0000 -0.0000 1.0000
vt 0.486692 0.608158
vt 0.486692 0.785600
vt 0.344739 0.785600
vt 0.344739 0.608158
vt 0.655261 0.738393
vt 0.646389 0.738393
vt 0.646389 0.596440
vt 0.655261 0.596440
vt 0.646389 0.360815
vt 0.646389 0.218862
vt 0.655261 0.218862
vt 0.655261 0.360815
vt 0.637517 0.076908
vt 0.637517 0.254350
vt 0.628645 0.254350
vt 0.628645 0.076908
vt 0.646389 0.254350
vt 0.637517 0.254350
vt 0.637517 0.076908
vt 0.646389 0.076908
vt 0.486692 0.076908
vt 0.628645 0.254350
vt 0.486692 0.254350
s 0
usemtl Material.002
f 22/45/13 21/46/13 23/47/13 24/48/13
f 21/49/14 18/50/14 20/51/14 23/52/14
f 22/53/15 24/54/15 19/55/15 17/56/15
f 24/57/16 23/58/16 20/59/16 19/60/16
f 22/61/17 17/62/17 18/63/17 21/64/17
f 20/65/18 18/60/18 17/66/18 19/67/18
