# Blender 4.2.3 LTS
# www.blender.org
mtllib ramp3.mtl
o ceiling
v -5.000000 4.000000 5.000000
v -5.000000 5.000000 5.000000
v -5.000000 4.000000 -5.000000
v -5.000000 5.000000 -5.000000
v 5.000000 4.000000 5.000000
v 5.000000 5.000000 5.000000
v 5.000000 4.000000 -5.000000
v 5.000000 5.000000 -5.000000
vn -1.0000 -0.0000 -0.0000
vn -0.0000 -0.0000 -1.0000
vn 1.0000 -0.0000 -0.0000
vn -0.0000 -0.0000 1.0000
vn -0.0000 -1.0000 -0.0000
vn -0.0000 1.0000 -0.0000
vt 0.305556 0.385556
vt 0.305556 0.355433
vt 0.576668 0.355433
vt 0.576668 0.385556
vt 0.034443 0.385556
vt 0.034443 0.355433
vt 0.305556 0.415680
vt 0.576668 0.415680
vt 0.034443 0.415680
vt 0.034443 0.385556
vt 0.305556 0.886682
vt 0.034443 0.886682
vt 0.034443 0.615570
vt 0.305556 0.615570
vt 0.305556 0.355432
vt 0.305556 0.084320
vt 0.576668 0.084320
s 0
usemtl Material.002
f 1/1/1 2/2/1 4/3/1 3/4/1
f 3/5/2 4/6/2 8/2/2 7/1/2
f 7/7/3 8/1/3 6/4/3 5/8/3
f 5/9/4 6/10/4 2/1/4 1/7/4
f 3/11/5 7/12/5 5/13/5 1/14/5
f 8/3/6 4/15/6 2/16/6 6/17/6
o ramp3
v 8.000000 -14.000000 -4.500000
v 5.000000 -4.000000 -4.500000
v 5.000000 -4.000000 4.500000
v 3.000000 -5.000000 -4.500000
v 3.000000 -5.000000 4.500000
v 5.000000 -5.000000 -4.500000
v 5.000000 -5.000000 4.500000
vn -0.4472 0.8944 -0.0000
vn -0.0000 -1.0000 -0.0000
vn 1.0000 -0.0000 -0.0000
vn -0.0000 -0.0000 -1.0000
vn -0.0000 -0.0000 1.0000
vt 0.000000 0.000000
s 0
f 11/18/7 10/18/7 12/18/7 13/18/7
f 13/18/8 12/18/8 14/18/8 15/18/8
f 11/18/9 15/18/9 14/18/9 10/18/9
f 12/18/10 10/18/10 14/18/10
f 13/18/11 15/18/11 11/18/11
o wall_taller
v 5.000001 -5.000000 4.999999
v -4.999999 -5.000000 5.000001
v 5.000001 5.000000 4.999999
v -4.999999 5.000000 5.000001
v -5.000000 -5.000000 4.500001
v 5.000000 -5.000000 4.500000
v -5.000000 5.000000 4.500001
v 5.000000 5.000000 4.500000
vn -0.0000 -0.0000 -1.0000
vn -1.0000 -0.0000 -0.0000
vn 1.0000 -0.0000 -0.0000
vn -0.0000 1.0000 -0.0000
vn -0.0000 -1.0000 -0.0000
vn -0.0000 -0.0000 1.0000
vt 0.486692 0.608158
vt 0.486692 0.785600
vt 0.344739 0.785600
vt 0.344739 0.608158
vt 0.655261 0.738393
vt 0.646389 0.738393
vt 0.646389 0.596440
vt 0.655261 0.596440
vt 0.646389 0.360815
vt 0.646389 0.218862
vt 0.655261 0.218862
vt 0.655261 0.360815
vt 0.637517 0.076908
vt 0.637517 0.254350
vt 0.628645 0.254350
vt 0.628645 0.076908
vt 0.646389 0.254350
vt 0.637517 0.254350
vt 0.637517 0.076908
vt 0.646389 0.076908
vt 0.486692 0.076908
vt 0.628645 0.254350
vt 0.486692 0.254350
s 1
usemtl Material.008
f 21/19/12 20/20/12 22/21/12 23/22/12
f 20/23/13 17/24/13 19/25/13 22/26/13
f 21/27/14 23/28/14 18/29/14 16/30/14
f 23/31/15 22/32/15 19/33/15 18/34/15
f 21/35/16 16/36/16 17/37/16 20/38/16
f 19/39/17 17/34/17 16/40/17 18/41/17
o wall_taller.001
v 5.000001 -5.000000 -4.500001
v -4.999999 -5.000000 -4.499999
v 5.000001 5.000000 -4.500001
v -4.999999 5.000000 -4.499999
v -5.000000 -5.000000 -4.999999
v 5.000000 -5.000000 -5.000000
v -5.000000 5.000000 -4.999999
v 5.000000 5.000000 -5.000000
vn -0.0000 -0.0000 -1.0000
vn -1.0000 -0.0000 -0.0000
vn 1.0000 -0.0000 -0.0000
vn -0.0000 1.0000 -0.0000
vn -0.0000 -1.0000 -0.0000
vn -0.0000 -0.0000 1.0000
vt 0.486692 0.608158
vt 0.486692 0.785600
vt 0.344739 0.785600
vt 0.344739 0.608158
vt 0.655261 0.738393
vt 0.646389 0.738393
vt 0.646389 0.596440
vt 0.655261 0.596440
vt 0.646389 0.360815
vt 0.646389 0.218862
vt 0.655261 0.218862
vt 0.655261 0.360815
vt 0.637517 0.076908
vt 0.637517 0.254350
vt 0.628645 0.254350
vt 0.628645 0.076908
vt 0.646389 0.254350
vt 0.637517 0.254350
vt 0.637517 0.076908
vt 0.646389 0.076908
vt 0.486692 0.076908
vt 0.628645 0.254350
vt 0.486692 0.254350
s 1
usemtl Material.008
f 29/42/18 28/43/18 30/44/18 31/45/18
f 28/46/19 25/47/19 27/48/19 30/49/19
f 29/50/20 31/51/20 26/52/20 24/53/20
f 31/54/21 30/55/21 27/56/21 26/57/21
f 29/58/22 24/59/22 25/60/22 28/61/22
f 27/62/23 25/57/23 24/63/23 26/64/23
