# Blender 4.2.3 LTS
# www.blender.org
mtllib arch_small.mtl
o arch.002
v -5.000000 -5.000000 4.999999
v 5.000000 -5.000000 5.000002
v -5.000000 4.000000 4.999999
v 5.000000 4.000000 5.000002
v 5.000000 -5.000000 5.500002
v -5.000000 -5.000000 5.499997
v 5.000000 4.000000 5.500002
v -5.000000 4.000000 5.499997
v -0.000000 4.000000 5.500000
v 0.000000 4.000000 5.000000
v -3.130258 4.000000 5.499999
v -3.130258 -5.000000 5.499999
v -3.130258 4.000000 4.999999
v -3.130258 -5.000000 4.999999
v 3.130258 -5.000000 5.500000
v 3.130258 4.000000 5.000000
v 3.130258 -5.000000 5.000000
v 3.130258 4.000000 5.500000
v 1.836410 4.000000 5.500000
v 1.836410 4.000000 5.000000
v -1.836410 4.000000 5.000000
v -1.836410 4.000000 5.499999
v 5.000000 1.383151 5.500002
v -5.000000 1.383151 5.499997
v 5.000000 1.383151 5.000002
v -5.000000 1.383151 4.999999
v -0.000000 2.816770 -0.010433
v -3.130258 0.935963 5.499999
v -3.130258 1.383151 4.999999
v 3.130258 1.383151 5.000000
v 3.130258 0.935963 5.500000
v 3.130258 0.935963 -0.010431
v -3.130258 0.935963 -0.010433
v 5.000000 2.691576 5.500002
v 5.000000 2.691576 5.000002
v -5.000000 2.691576 4.999999
v -0.000000 2.816770 5.500000
v -3.130258 2.691576 5.499999
v 3.130258 2.691576 5.500000
v 1.836410 2.467504 5.500000
v -1.836410 2.467504 5.499999
v -5.000000 2.691576 5.499997
v -5.000000 -3.781978 5.499997
v 5.000000 -3.781978 5.500002
v 5.000000 -3.781978 5.000002
v -5.000000 -3.781978 4.999999
v -3.130258 -3.781978 5.499999
v 3.130258 -3.781978 5.500000
v 1.836410 2.467504 -0.010432
v -1.836410 2.467504 -0.010433
v -3.130258 -3.781978 -0.010433
v 3.130258 -3.781978 -0.010431
v 5.000000 -4.611454 0.000001
v 5.000000 -4.611454 5.762379
v -5.000000 -4.611454 5.762376
v -3.030258 -4.611454 5.762376
v 3.030258 -4.611454 5.762378
v 3.030258 -4.611454 0.000000
v 5.000000 -5.000000 0.000001
v 5.000000 -5.000000 5.762379
v -5.000000 -5.000000 5.762376
v -3.030258 -5.000000 5.762376
v 3.030258 -5.000000 5.762378
v 3.030258 -5.000000 0.000000
v -5.000000 5.000000 4.999999
v 5.000000 5.000000 5.000002
v 5.000000 5.000000 5.762379
v -5.000000 5.000000 5.762376
v -0.000000 5.000000 5.762377
v 0.000000 5.000000 5.000000
v -3.130258 5.000000 5.762376
v -3.130258 5.000000 4.999999
v 3.130258 5.000000 5.762378
v 3.130258 5.000000 5.000000
v 1.836410 5.000000 5.762378
v 1.836410 5.000000 5.000000
v -1.836410 5.000000 5.762376
v -1.836410 5.000000 5.000000
v -5.000000 3.756161 4.999999
v 5.000000 3.756161 5.000002
v 5.000000 3.756161 5.762379
v -5.000000 3.756161 5.762376
v -0.000000 3.756161 5.762377
v 0.000000 3.756161 5.000000
v -3.130258 3.756161 5.762376
v -3.130258 3.756161 4.999999
v 3.130258 3.756161 5.762378
v 3.130258 3.756161 5.000000
v 1.836410 3.756161 5.762378
v 1.836410 3.756161 5.000000
v -1.836410 3.756161 5.762376
v -1.836410 3.756161 5.000000
v 3.130258 -4.981977 -0.010431
v -3.130258 -4.981977 -0.010433
v -4.999999 -5.000000 -5.000000
v 5.000002 -5.000000 -5.000000
v -4.999999 4.000000 -5.000000
v 5.000002 4.000000 -5.000000
v 5.000002 -5.000000 -5.500000
v -4.999999 -5.000000 -5.499999
v 5.000002 4.000000 -5.500000
v -4.999999 4.000000 -5.499999
v 0.000002 4.000000 -5.500000
v 0.000002 4.000000 -5.000000
v -3.130257 4.000000 -5.500000
v -3.130257 -5.000000 -5.500000
v -3.130257 4.000000 -5.000000
v -3.130257 -5.000000 -5.000000
v 3.130259 -5.000000 -5.499999
v 3.130259 4.000000 -5.000000
v 3.130259 -5.000000 -5.000000
v 3.130259 4.000000 -5.499999
v 1.836412 4.000000 -5.499999
v 1.836412 4.000000 -5.000000
v -1.836409 4.000000 -5.000000
v -1.836409 4.000000 -5.500000
v 5.000002 1.383151 -5.500000
v -4.999999 1.383151 -5.499999
v 5.000002 1.383151 -5.000000
v -4.999999 1.383151 -5.000000
v -3.130257 0.935963 -5.500000
v -3.130257 1.383151 -5.000000
v 3.130259 1.383151 -5.000000
v 3.130259 0.935963 -5.499999
v 5.000002 2.691576 -5.500000
v 5.000002 2.691576 -5.000000
v -4.999999 2.691576 -5.000000
v 0.000002 2.816770 -5.500000
v -3.130257 2.691576 -5.500000
v 3.130259 2.691576 -5.499999
v 1.836412 2.467504 -5.499999
v -1.836409 2.467504 -5.500000
v -4.999999 2.691576 -5.499999
v -4.999999 -3.781978 -5.499999
v 5.000002 -3.781978 -5.500000
v 5.000002 -3.781978 -5.000000
v -4.999999 -3.781978 -5.000000
v -3.130257 -3.781978 -5.500000
v 3.130259 -3.781978 -5.499999
v -5.000000 -4.611454 -0.004626
v 5.000002 -4.611454 -5.762377
v -4.999999 -4.611454 -5.762378
v -3.030257 -4.611454 -5.762377
v -3.030258 -4.611454 -0.004626
v 3.030260 -4.611454 -5.762377
v -5.000000 -5.000000 -0.004626
v 5.000002 -5.000000 -5.762377
v -4.999999 -5.000000 -5.762378
v -3.030257 -5.000000 -5.762377
v -3.030258 -5.000000 -0.004626
v 3.030260 -5.000000 -5.762377
v -4.999999 5.000000 -5.000000
v 5.000002 5.000000 -5.000000
v 5.000002 5.000000 -5.762377
v -4.999999 5.000000 -5.762378
v 0.000002 5.000000 -5.762377
v 0.000002 5.000000 -5.000000
v -3.130256 5.000000 -5.762377
v -3.130257 5.000000 -5.000000
v 3.130260 5.000000 -5.762377
v 3.130259 5.000000 -5.000000
v 1.836412 5.000000 -5.762377
v 1.836412 5.000000 -5.000000
v -1.836409 5.000000 -5.762377
v -1.836409 5.000000 -5.000000
v -4.999999 3.756161 -5.000000
v 5.000002 3.756161 -5.000000
v 5.000002 3.756161 -5.762377
v -4.999999 3.756161 -5.762378
v 0.000002 3.756161 -5.762377
v 0.000002 3.756161 -5.000000
v -3.130256 3.756161 -5.762377
v -3.130257 3.756161 -5.000000
v 3.130260 3.756161 -5.762377
v 3.130259 3.756161 -5.000000
v 1.836412 3.756161 -5.762377
v 1.836412 3.756161 -5.000000
v -1.836409 3.756161 -5.762377
v -1.836409 3.756161 -5.000000
v -5.000000 -5.000000 5.499997
v -5.000000 -5.000000 5.499997
v -5.000000 -5.000000 4.999999
v -5.000000 4.000000 5.499997
v -5.000000 4.000000 5.499997
v -5.000000 4.000000 4.999999
v 5.000000 -5.000000 5.000002
v 5.000000 -5.000000 5.500002
v 5.000000 -5.000000 5.500002
v 5.000000 4.000000 5.000002
v 5.000000 4.000000 5.500002
v 5.000000 4.000000 5.500002
v 3.130258 -5.000000 5.500000
v 3.130258 -5.000000 5.500000
v 5.000000 2.691576 5.500002
v -3.130258 4.000000 5.499999
v -5.000000 -3.781978 5.499997
v 1.836410 4.000000 5.500000
v -0.000000 4.000000 5.500000
v -1.836410 4.000000 5.499999
v -3.130258 -5.000000 5.499999
v -3.130258 -5.000000 5.499999
v 3.130258 4.000000 5.500000
v 5.000000 -3.781978 5.500002
v 5.000000 1.383151 5.500002
v -5.000000 2.691576 5.499997
v -5.000000 1.383151 5.499997
v -3.130258 -3.781978 5.499999
v -3.130258 0.935963 5.499999
v 3.130258 -3.781978 5.500000
v 3.130258 0.935963 5.500000
v 1.836410 2.467504 5.500000
v -1.836410 2.467504 5.499999
v -0.000000 2.816770 5.500000
v 5.000000 -4.611454 0.000001
v 5.000000 -4.611454 5.762379
v 5.000000 -4.611454 5.762379
v 3.030258 -4.611454 5.762378
v 3.030258 -4.611454 5.762378
v -5.000000 -4.611454 5.762376
v -5.000000 -4.611454 5.762376
v -3.030258 -4.611454 5.762376
v -3.030258 -4.611454 5.762376
v 3.030258 -4.611454 0.000000
v 5.000000 -5.000000 0.000001
v 5.000000 -5.000000 5.762379
v 5.000000 -5.000000 5.762379
v 3.030258 -5.000000 5.762378
v 3.030258 -5.000000 5.762378
v -5.000000 -5.000000 5.762376
v -5.000000 -5.000000 5.762376
v -3.030258 -5.000000 5.762376
v -3.030258 -5.000000 5.762376
v 3.030258 -5.000000 0.000000
v -5.000000 5.000000 5.762376
v -5.000000 5.000000 5.762376
v -5.000000 5.000000 4.999999
v -5.000000 5.000000 4.999999
v 5.000000 5.000000 5.000002
v 5.000000 5.000000 5.000002
v 5.000000 5.000000 5.762379
v 5.000000 5.000000 5.762379
v 3.130258 5.000000 5.762378
v 3.130258 5.000000 5.000000
v -1.836410 5.000000 5.762376
v -0.000000 5.000000 5.762377
v -1.836410 5.000000 5.000000
v 0.000000 5.000000 5.000000
v -3.130258 5.000000 5.762376
v -3.130258 5.000000 4.999999
v 1.836410 5.000000 5.762378
v 1.836410 5.000000 5.000000
v -5.000000 3.756161 5.762376
v -5.000000 3.756161 5.762376
v -5.000000 3.756161 4.999999
v -5.000000 3.756161 4.999999
v 5.000000 3.756161 5.000002
v 5.000000 3.756161 5.000002
v 5.000000 3.756161 5.762379
v 5.000000 3.756161 5.762379
v 3.130258 3.756161 5.762378
v 3.130258 3.756161 5.000000
v -1.836410 3.756161 5.762376
v -0.000000 3.756161 5.762377
v -1.836410 3.756161 5.000000
v 0.000000 3.756161 5.000000
v -3.130258 3.756161 5.762376
v -3.130258 3.756161 4.999999
v 1.836410 3.756161 5.762378
v 1.836410 3.756161 5.000000
v -4.999999 -5.000000 -5.499999
v -4.999999 -5.000000 -5.499999
v -4.999999 -5.000000 -5.000000
v -4.999999 4.000000 -5.499999
v -4.999999 4.000000 -5.499999
v -4.999999 4.000000 -5.000000
v 5.000002 -5.000000 -5.000000
v 5.000002 -5.000000 -5.500000
v 5.000002 -5.000000 -5.500000
v 5.000002 4.000000 -5.000000
v 5.000002 4.000000 -5.500000
v 5.000002 4.000000 -5.500000
v 3.130259 -5.000000 -5.499999
v 3.130259 -5.000000 -5.499999
v 5.000002 2.691576 -5.500000
v -3.130257 4.000000 -5.500000
v -4.999999 -3.781978 -5.499999
v 1.836412 4.000000 -5.499999
v 0.000002 4.000000 -5.500000
v -1.836409 4.000000 -5.500000
v -3.130257 -5.000000 -5.500000
v -3.130257 -5.000000 -5.500000
v 3.130259 4.000000 -5.499999
v 5.000002 -3.781978 -5.500000
v 5.000002 1.383151 -5.500000
v -4.999999 2.691576 -5.499999
v -4.999999 1.383151 -5.499999
v -3.130257 -3.781978 -5.500000
v -3.130257 0.935963 -5.500000
v 3.130259 -3.781978 -5.499999
v 3.130259 0.935963 -5.499999
v 1.836412 2.467504 -5.499999
v -1.836409 2.467504 -5.500000
v 0.000002 2.816770 -5.500000
v -4.999999 -4.611454 -5.762378
v -4.999999 -4.611454 -5.762378
v -5.000000 -4.611454 -0.004626
v 5.000002 -4.611454 -5.762377
v 5.000002 -4.611454 -5.762377
v 3.030260 -4.611454 -5.762377
v 3.030260 -4.611454 -5.762377
v -3.030257 -4.611454 -5.762377
v -3.030257 -4.611454 -5.762377
v -3.030258 -4.611454 -0.004626
v -4.999999 -5.000000 -5.762378
v -4.999999 -5.000000 -5.762378
v -5.000000 -5.000000 -0.004626
v 5.000002 -5.000000 -5.762377
v 5.000002 -5.000000 -5.762377
v 3.030260 -5.000000 -5.762377
v 3.030260 -5.000000 -5.762377
v -3.030257 -5.000000 -5.762377
v -3.030257 -5.000000 -5.762377
v -3.030258 -5.000000 -0.004626
v -4.999999 5.000000 -5.762378
v -4.999999 5.000000 -5.762378
v -4.999999 5.000000 -5.000000
v -4.999999 5.000000 -5.000000
v 5.000002 5.000000 -5.000000
v 5.000002 5.000000 -5.000000
v 5.000002 5.000000 -5.762377
v 5.000002 5.000000 -5.762377
v 3.130260 5.000000 -5.762377
v 3.130259 5.000000 -5.000000
v -1.836409 5.000000 -5.762377
v 0.000002 5.000000 -5.762377
v -1.836409 5.000000 -5.000000
v 0.000002 5.000000 -5.000000
v -3.130256 5.000000 -5.762377
v -3.130257 5.000000 -5.000000
v 1.836412 5.000000 -5.762377
v 1.836412 5.000000 -5.000000
v -4.999999 3.756161 -5.762378
v -4.999999 3.756161 -5.762378
v -4.999999 3.756161 -5.000000
v -4.999999 3.756161 -5.000000
v 5.000002 3.756161 -5.000000
v 5.000002 3.756161 -5.000000
v 5.000002 3.756161 -5.762377
v 5.000002 3.756161 -5.762377
v 3.130260 3.756161 -5.762377
v 3.130259 3.756161 -5.000000
v -1.836409 3.756161 -5.762377
v 0.000002 3.756161 -5.762377
v -1.836409 3.756161 -5.000000
v 0.000002 3.756161 -5.000000
v -3.130256 3.756161 -5.762377
v -3.130257 3.756161 -5.000000
v 1.836412 3.756161 -5.762377
v 1.836412 3.756161 -5.000000
vn -1.0000 -0.0000 -0.0000
vn 1.0000 -0.0000 -0.0000
vn -0.0000 1.0000 -0.0000
vn -0.0000 -0.0000 1.0000
vn -0.0000 -1.0000 -0.0000
vn 0.9391 -0.3436 -0.0000
vn -0.9391 -0.3436 -0.0000
vn -0.5044 -0.8635 -0.0000
vn 0.5044 -0.8635 -0.0000
vn -0.0000 -0.0000 -1.0000
vt 1.077006 0.659881
vt 1.317129 0.659881
vt 1.317129 0.827916
vt 1.077006 0.827916
vt 0.837826 0.565421
vt 0.812826 0.565421
vt 0.812826 0.500000
vt 0.837826 0.500000
vt 0.862826 0.500000
vt 0.862826 0.565421
vt 0.812826 0.906513
vt 0.812826 1.000000
vt 0.787828 1.000000
vt 0.787828 0.906513
vt 0.762828 0.906513
vt 0.787828 0.906513
vt 0.787828 1.000000
vt 0.762828 1.000000
vt 0.812826 0.658180
vt 0.812826 0.750000
vt 0.787828 0.750000
vt 0.787828 0.658180
vt 0.439157 0.631104
vt 0.675000 0.675959
vt 0.675000 0.827916
vt 0.439157 0.827916
vt 0.032871 0.659881
vt 0.272994 0.659881
vt 0.272994 0.827916
vt 0.032871 0.827916
vt 0.812826 0.500000
vt 0.812826 0.593487
vt 0.787828 0.593487
vt 0.787828 0.500000
vt 0.762828 0.500000
vt 0.787828 0.500000
vt 0.787828 0.593487
vt 0.762828 0.593487
vt 0.812826 0.841821
vt 0.787828 0.841821
vt 0.910842 0.631104
vt 0.910842 0.827916
vt 1.077006 0.434415
vt 0.032871 -0.171491
vt 0.272994 -0.171491
vt 0.272994 0.434415
vt 0.032871 0.491845
vt 1.238108 -0.031066
vt 1.238108 0.648480
vt 0.444416 0.648480
vt 0.444416 -0.031066
vt 0.837826 0.889099
vt 0.837826 0.630842
vt 0.862826 0.630842
vt 0.862826 0.889099
vt 0.812826 0.889099
vt 0.812826 0.630842
vt 1.077006 -0.171491
vt 1.317129 -0.171491
vt 1.317129 0.491845
vt -0.218725 1.092753
vt -0.218725 0.866856
vt 0.447179 0.866856
vt 0.447179 1.092753
vt 1.238108 0.937256
vt 1.238108 1.206503
vt 0.444416 1.206503
vt 0.444416 0.937256
vt 1.077006 -0.327916
vt 1.317129 -0.327916
vt 0.837826 0.950000
vt 0.812826 0.950000
vt 0.862826 0.950000
vt 0.032871 -0.327916
vt 0.272994 -0.327916
vt -0.218725 0.624574
vt -0.218725 0.054438
vt 0.447179 0.054438
vt 0.447179 0.624574
vt 0.043186 1.250251
vt -0.213271 1.250251
vt -0.213271 0.500000
vt 0.043186 0.500000
vt 0.556100 1.250251
vt 0.299643 1.250251
vt 0.299643 0.499398
vt 0.556100 0.499398
vt 0.043186 1.250251
vt 0.299643 0.500000
vt 0.299643 1.250251
vt 0.556100 1.250251
vt 0.812557 0.499398
vt 0.812557 1.250251
vt 0.812557 0.500000
vt 0.812557 -0.250251
vt 0.863145 -0.250251
vt 0.863145 0.500000
vt 1.014910 0.519120
vt 1.014910 0.262663
vt 1.065498 0.262663
vt 1.065498 0.519120
vt 1.014910 0.262663
vt 1.014910 0.006206
vt 1.065498 0.006206
vt 1.065498 0.262663
vt 0.913733 1.250251
vt 0.913733 0.499398
vt 0.964321 0.499398
vt 0.964321 1.250251
vt -0.168778 0.387694
vt -0.412194 0.387694
vt -0.412194 0.288442
vt -0.168778 0.288442
vt 0.477817 0.387694
vt 0.238741 0.387694
vt 0.238741 0.288442
vt 0.477817 0.288442
vt 0.889675 0.387694
vt 0.646259 0.387694
vt 0.646259 0.288442
vt 0.889675 0.288443
vt -0.000336 0.387694
vt -0.000336 0.288442
vt 0.646259 0.486946
vt 0.646259 0.387694
vt 0.889675 0.387694
vt 0.889675 0.486946
vt -0.000336 0.486946
vt -0.000336 0.387694
vt 0.238741 0.387694
vt 0.238741 0.486946
vt -0.412194 0.486946
vt -0.412194 0.387694
vt -0.168778 0.387694
vt -0.168778 0.486946
vt 0.477817 0.486946
vt 0.477817 0.387694
vt -0.412194 0.189191
vt -0.250262 0.189191
vt -0.250262 0.288442
vt -0.000336 0.810809
vt -0.168778 0.810809
vt -0.168778 0.648877
vt -0.000336 0.648877
vt 0.889675 0.810809
vt 0.646259 0.810809
vt 0.646259 0.648878
vt 0.889675 0.648878
vt 0.646259 0.648877
vt 0.477817 0.648877
vt 0.477817 0.486946
vt 0.646259 0.486946
vt 0.477817 0.810809
vt 0.477817 0.648878
vt -0.168778 0.648877
vt -0.412194 0.648877
vt -0.412194 0.486946
vt -0.168778 0.486946
vt -0.000336 0.648877
vt -0.000336 0.486946
vt 0.238741 0.810809
vt 0.238741 0.648878
vt 0.238741 0.648877
vt 0.238741 0.486946
vt -0.412194 0.810809
vt -0.412194 0.648877
vt -0.250262 0.288442
vt -0.250262 0.189191
vt -0.088331 0.189191
vt -0.088331 0.288442
vt 0.889675 0.648878
vt 0.447179 -0.090576
vt -0.218725 -0.092753
vt 0.444416 -0.203908
vt 1.238108 -0.206503
vt 0.863145 1.250251
vt 0.863145 0.500000
vt 0.913733 0.500000
vt 0.913733 1.250251
vt 0.964321 -0.250251
vt 1.014910 -0.250251
vt 1.014909 0.500602
vt 0.964321 0.500602
vt -0.346271 -0.031066
vt -0.346271 0.648480
vt 1.110562 1.092753
vt 1.110562 0.866856
vt -0.346271 0.937256
vt -0.346271 1.206503
vt 1.110562 0.624574
vt 1.110562 0.054438
vt 0.043186 -0.250251
vt -0.213271 -0.250251
vt 0.556100 -0.250251
vt 0.299643 -0.250251
vt 0.043186 -0.250251
vt 0.299643 -0.250251
vt 0.556100 -0.250251
vt 0.812557 -0.250251
vt 0.863145 1.250251
vt 0.812557 1.250251
vt 1.065498 -0.250251
vt 1.065498 0.006206
vt 1.014910 0.006206
vt 1.014910 0.519120
vt 1.065498 0.519120
vt 1.065498 0.775576
vt 1.014910 0.775576
vt 0.913733 -0.250251
vt 0.964321 -0.250251
vt 1.110562 -0.092753
vt -0.346271 -0.206503
vt 0.863145 -0.250251
vt 0.913733 -0.250251
vt 0.964321 1.250251
vt 1.014909 1.250251
s 1
usemtl MAT_oriented.001
f 39/1/4 194/2/4 191/3/4 202/4/4
f 34/5/2 35/6/2 189/7/2 190/8/2
f 42/5/1 183/8/1 185/9/1 36/10/1
f 18/11/3 7/12/3 4/13/3 16/14/3
f 192/15/5 17/16/5 186/17/5 187/18/5
f 22/19/3 9/20/3 10/21/3 21/22/3
f 212/23/4 213/24/4 198/25/4 199/26/4
f 205/27/4 38/28/4 195/29/4 184/30/4
f 8/31/3 11/32/3 13/33/3 3/34/3
f 180/35/5 182/36/5 14/37/5 200/38/5
f 19/39/3 18/11/3 16/14/3 20/40/3
f 211/41/4 39/1/4 202/4/4 197/42/4
f 213/24/4 211/41/4 197/42/4 198/25/4
f 9/20/3 19/39/3 20/40/3 10/21/3
f 38/28/4 212/23/4 199/26/4 195/29/4
f 11/32/3 22/19/3 21/22/3 13/33/3
f 211/41/4 31/43/4 39/1/4
f 43/44/4 207/45/4 208/46/4 206/47/4
f 209/48/1 210/49/7 32/50/7 52/51/1
f 196/52/1 24/53/1 26/54/1 46/55/1
f 203/52/2 45/56/2 25/57/2 204/53/2
f 48/58/4 44/59/4 23/60/4 31/43/4
f 38/28/4 208/46/4 212/23/4
f 37/61/5 41/62/9 50/63/9 27/64/5
f 206/47/4 208/46/4 38/28/4 205/27/4
f 40/65/8 37/66/5 27/67/5 49/68/8
f 24/53/1 42/5/1 36/10/1 26/54/1
f 204/53/2 25/57/2 35/6/2 34/5/2
f 31/43/4 23/60/4 194/2/4 39/1/4
f 193/69/4 188/70/4 44/59/4 48/58/4
f 5/71/2 2/72/2 45/56/2 203/52/2
f 181/71/1 196/52/1 46/55/1 1/73/1
f 6/74/4 201/75/4 207/45/4 43/44/4
f 28/76/6 47/77/2 51/78/2 33/79/6
f 41/62/9 28/76/6 33/79/6 50/63/9
f 210/49/7 40/65/8 49/68/8 32/50/7
f 217/80/3 215/81/3 214/82/3 223/83/3
f 219/84/3 221/85/3 313/86/3 306/87/3
f 227/88/5 233/83/5 224/89/5 225/90/5
f 229/91/5 316/87/5 323/92/5 231/93/5
f 53/94/2 216/95/2 226/96/2 59/97/2
f 54/98/4 218/99/4 228/100/4 60/101/4
f 222/102/4 220/103/4 230/104/4 232/105/4
f 55/106/1 140/107/1 146/108/1 61/109/1
f 242/110/3 240/111/3 238/112/3 243/113/3
f 244/114/3 245/115/3 247/116/3 246/117/3
f 234/118/3 248/119/3 249/120/3 236/121/3
f 250/122/3 242/110/3 243/113/3 251/123/3
f 245/115/3 250/122/3 251/123/3 247/116/3
f 248/119/3 244/114/3 246/117/3 249/120/3
f 260/124/5 261/125/5 256/126/5 258/127/5
f 262/128/5 264/129/5 265/130/5 263/131/5
f 252/132/5 254/133/5 267/134/5 266/135/5
f 268/136/5 269/137/5 261/125/5 260/124/5
f 263/131/5 265/130/5 269/137/5 268/136/5
f 266/135/5 267/134/5 264/129/5 262/128/5
f 239/112/2 241/138/2 259/139/2 257/140/2
f 77/141/4 71/142/4 85/143/4 91/144/4
f 67/145/4 73/146/4 87/147/4 81/148/4
f 72/149/10 78/150/10 92/151/10 86/152/10
f 73/146/4 75/153/4 89/154/4 87/147/4
f 74/155/10 66/156/10 80/157/10 88/158/10
f 76/159/10 74/155/10 88/158/10 90/160/10
f 69/161/4 77/141/4 91/144/4 83/162/4
f 78/150/10 70/163/10 84/164/10 92/151/10
f 75/153/4 69/161/4 83/162/4 89/154/4
f 70/163/10 76/159/10 90/160/10 84/164/10
f 71/142/4 235/165/4 253/166/4 85/143/4
f 68/167/1 237/168/1 255/169/1 82/170/1
f 65/171/10 72/149/10 86/152/10 79/127/10
f 94/172/2 51/78/2 47/77/2 12/173/2
f 93/174/1 15/175/1 209/48/1 52/51/1
f 57/176/1 58/177/1 64/178/1 63/179/1
f 56/180/2 62/181/2 150/182/2 144/183/2
f 130/1/10 292/4/10 281/3/10 284/2/10
f 125/5/2 280/8/2 279/7/2 126/6/2
f 133/5/1 127/10/1 275/9/1 273/8/1
f 112/11/3 110/14/3 98/13/3 101/12/3
f 282/15/5 277/18/5 276/17/5 111/16/5
f 116/19/3 115/22/3 104/21/3 103/20/3
f 302/23/10 289/26/10 288/25/10 303/24/10
f 295/27/10 274/30/10 285/29/10 129/28/10
f 102/31/3 97/34/3 107/33/3 105/32/3
f 270/35/5 290/38/5 108/37/5 272/36/5
f 113/39/3 114/40/3 110/14/3 112/11/3
f 301/41/10 287/42/10 292/4/10 130/1/10
f 303/24/10 288/25/10 287/42/10 301/41/10
f 103/20/3 104/21/3 114/40/3 113/39/3
f 129/28/10 285/29/10 289/26/10 302/23/10
f 105/32/3 107/33/3 115/22/3 116/19/3
f 301/41/10 130/1/10 124/43/10
f 134/44/10 296/47/10 298/46/10 297/45/10
f 299/184/1 52/51/1 32/50/7 300/185/7
f 286/52/1 137/55/1 120/54/1 118/53/1
f 293/52/2 294/53/2 119/57/2 136/56/2
f 139/58/10 124/43/10 117/60/10 135/59/10
f 129/28/10 302/23/10 298/46/10
f 128/186/5 27/64/5 50/63/9 132/187/9
f 296/47/10 295/27/10 129/28/10 298/46/10
f 131/188/8 49/68/8 27/67/5 128/189/5
f 118/53/1 120/54/1 127/10/1 133/5/1
f 294/53/2 125/5/2 126/6/2 119/57/2
f 124/43/10 130/1/10 284/2/10 117/60/10
f 283/69/10 139/58/10 135/59/10 278/70/10
f 99/71/2 293/52/2 136/56/2 96/72/2
f 271/71/1 95/73/1 137/55/1 286/52/1
f 100/74/10 134/44/10 297/45/10 291/75/10
f 121/190/6 33/79/6 51/78/2 138/191/2
f 132/187/9 50/63/9 33/79/6 121/190/6
f 300/185/7 32/50/7 49/68/8 131/188/8
f 309/192/3 223/83/3 214/82/3 307/193/3
f 304/194/3 306/87/3 313/86/3 311/195/3
f 319/196/5 317/197/5 224/89/5 233/83/5
f 314/198/5 321/199/5 323/92/5 316/87/5
f 53/94/2 59/97/2 318/200/2 308/201/2
f 141/181/10 147/202/10 320/203/10 310/204/10
f 312/205/10 322/206/10 315/207/10 305/208/10
f 142/209/1 148/210/1 146/108/1 140/107/1
f 332/110/3 333/113/3 328/112/3 330/111/3
f 334/114/3 336/117/3 337/116/3 335/115/3
f 324/118/3 326/121/3 339/120/3 338/119/3
f 340/122/3 341/123/3 333/113/3 332/110/3
f 335/115/3 337/116/3 341/123/3 340/122/3
f 338/119/3 339/120/3 336/117/3 334/114/3
f 350/124/5 348/127/5 346/126/5 351/125/5
f 352/128/5 353/131/5 355/130/5 354/129/5
f 342/132/5 356/135/5 357/134/5 344/133/5
f 358/136/5 350/124/5 351/125/5 359/137/5
f 353/131/5 358/136/5 359/137/5 355/130/5
f 356/135/5 352/128/5 354/129/5 357/134/5
f 329/112/2 347/140/2 349/139/2 331/138/2
f 164/141/10 178/144/10 172/143/10 158/142/10
f 154/145/10 168/148/10 174/147/10 160/146/10
f 159/149/4 173/152/4 179/151/4 165/150/4
f 160/146/10 174/147/10 176/154/10 162/153/10
f 161/155/4 175/158/4 167/157/4 153/156/4
f 163/159/4 177/160/4 175/158/4 161/155/4
f 156/161/10 170/162/10 178/144/10 164/141/10
f 165/150/4 179/151/4 171/164/4 157/163/4
f 162/153/10 176/154/10 170/162/10 156/161/10
f 157/163/4 171/164/4 177/160/4 163/159/4
f 158/142/10 172/143/10 343/166/10 325/165/10
f 155/167/1 169/170/1 345/169/1 327/168/1
f 152/171/4 166/127/4 173/152/4 159/149/4
f 94/172/2 106/211/2 138/191/2 51/78/2
f 93/174/1 52/51/1 299/184/1 109/212/1
f 145/213/1 151/214/1 64/178/1 58/177/1
f 143/215/2 144/183/2 150/182/2 149/216/2
l 25 30
l 29 26
l 119 123
l 122 120
