# Blender 4.2.3 LTS
# www.blender.org
mtllib pilar_quad.mtl
o pilar
v -5.000000 -4.000000 5.000000
v -5.000000 -3.000000 5.000000
v -5.000000 -4.000000 4.100000
v -5.000000 -3.000000 4.100000
v -4.100000 -4.000000 5.000000
v -4.100000 -3.000000 5.000000
v -4.100000 -4.000000 4.100000
v -4.100000 -3.000000 4.100000
v -5.000000 -2.700000 5.000000
v -5.000000 -2.700000 4.300000
v -4.300000 -2.700000 4.300000
v -4.300000 -2.700000 5.000000
v -5.000000 -1.700000 5.000000
v -5.000000 -1.700000 4.300000
v -4.300000 -1.700000 4.300000
v -4.300000 -1.700000 5.000000
v -5.000000 -1.400000 5.000000
v -5.000000 -1.400000 4.100000
v -4.100000 -1.400000 4.100000
v -4.100000 -1.400000 5.000000
v -5.000000 -1.000000 5.000000
v -5.000000 -1.000000 4.100000
v -4.100000 -1.000000 4.100000
v -4.100000 -1.000000 5.000000
v -5.000000 -1.025078 5.000000
v -5.000000 2.934041 5.000000
v -5.000000 -1.025078 4.320000
v -5.000000 2.934041 4.320000
v -4.320000 -1.025078 5.000000
v -4.320000 2.934041 5.000000
v -4.500000 -1.025078 4.500000
v -4.500000 2.934041 4.500000
v -5.000000 2.798863 5.000000
v -5.000000 2.798863 4.100000
v -4.100000 2.798863 4.100000
v -4.100000 2.798863 5.000000
v -5.000000 3.498863 4.000000
v -4.100000 3.498863 4.000000
v -4.000000 3.498863 4.100000
v -4.000000 3.498863 5.000000
v -5.000000 3.998863 3.700000
v -4.100000 3.998863 3.700000
v -3.700000 3.998863 4.100000
v -3.700000 3.998863 5.000000
v -5.000000 -4.000000 4.100000
v -5.000000 -4.000000 4.100000
v -5.000000 -4.000000 5.000000
v -5.000000 -4.000000 5.000000
v -5.000000 -3.000000 5.000000
v -5.000000 -3.000000 4.100000
v -5.000000 -3.000000 4.100000
v -4.100000 -4.000000 4.100000
v -4.100000 -4.000000 4.100000
v -4.100000 -3.000000 4.100000
v -4.100000 -3.000000 4.100000
v -4.100000 -3.000000 4.100000
v -4.100000 -4.000000 5.000000
v -4.100000 -4.000000 5.000000
v -4.100000 -3.000000 5.000000
v -4.100000 -3.000000 5.000000
v -5.000000 -2.700000 4.300000
v -5.000000 -2.700000 4.300000
v -4.300000 -2.700000 4.300000
v -4.300000 -2.700000 4.300000
v -4.300000 -2.700000 4.300000
v -4.300000 -2.700000 5.000000
v -4.300000 -2.700000 5.000000
v -5.000000 -2.700000 5.000000
v -5.000000 -1.700000 4.300000
v -5.000000 -1.700000 4.300000
v -4.300000 -1.700000 4.300000
v -4.300000 -1.700000 4.300000
v -4.300000 -1.700000 4.300000
v -4.300000 -1.700000 5.000000
v -4.300000 -1.700000 5.000000
v -5.000000 -1.700000 5.000000
v -5.000000 -1.400000 4.100000
v -5.000000 -1.400000 4.100000
v -4.100000 -1.400000 4.100000
v -4.100000 -1.400000 4.100000
v -4.100000 -1.400000 4.100000
v -4.100000 -1.400000 5.000000
v -4.100000 -1.400000 5.000000
v -5.000000 -1.400000 5.000000
v -5.000000 -1.000000 5.000000
v -5.000000 -1.000000 5.000000
v -5.000000 -1.000000 4.100000
v -5.000000 -1.000000 4.100000
v -4.100000 -1.000000 4.100000
v -4.100000 -1.000000 4.100000
v -4.100000 -1.000000 5.000000
v -4.100000 -1.000000 5.000000
v -5.000000 -1.025078 4.320000
v -5.000000 -1.025078 4.320000
v -5.000000 -1.025078 5.000000
v -5.000000 -1.025078 5.000000
v -5.000000 2.934041 5.000000
v -5.000000 2.934041 5.000000
v -5.000000 2.934041 4.320000
v -5.000000 2.934041 4.320000
v -4.500000 -1.025078 4.500000
v -4.500000 2.934041 4.500000
v -4.320000 -1.025078 5.000000
v -4.320000 -1.025078 5.000000
v -4.320000 2.934041 5.000000
v -4.320000 2.934041 5.000000
v -5.000000 2.798863 4.100000
v -4.100000 2.798863 4.100000
v -4.100000 2.798863 4.100000
v -4.100000 2.798863 4.100000
v -4.100000 2.798863 5.000000
v -4.100000 3.498863 4.000000
v -4.000000 3.498863 4.100000
v -4.100000 3.998863 3.700000
v -3.700000 3.998863 4.100000
vn -1.0000 -0.0000 -0.0000
vn -0.0000 -0.0000 -1.0000
vn 1.0000 -0.0000 -0.0000
vn -0.0000 -0.0000 1.0000
vn -0.0000 -1.0000 -0.0000
vn -0.0000 0.5547 -0.8321
vn 0.8321 0.5547 -0.0000
vn -0.0000 -0.5547 -0.8321
vn 0.8321 -0.5547 -0.0000
vn -0.0000 1.0000 -0.0000
vn 0.3387 -0.0000 -0.9409
vn 0.7071 -0.0000 -0.7071
vn 0.9409 -0.0000 -0.3387
vn -0.0000 -0.1414 -0.9899
vn -0.0000 -0.3346 -0.9424
vn 0.9899 -0.1414 -0.0000
vn 0.9424 -0.3346 -0.0000
vn -0.0000 -0.5145 -0.8575
vn 0.8575 -0.5145 -0.0000
vn 0.6811 -0.2686 -0.6811
vn 0.6509 -0.3906 -0.6509
vn 0.7035 -0.1005 -0.7035
vt 0.281891 0.539551
vt 0.281891 0.414337
vt 0.394977 0.414337
vt 0.394977 0.539551
vt 0.447131 0.339640
vt 0.447130 0.454271
vt 0.343962 0.454271
vt 0.343962 0.339640
vt 0.829876 0.788797
vt 0.829876 0.914448
vt 0.717205 0.914448
vt 0.717205 0.788797
vt 0.168805 0.539552
vt 0.168805 0.414337
vt 0.281891 0.414337
vt 0.281891 0.539552
vt 0.565863 0.659647
vt 0.565863 0.772733
vt 0.452777 0.772733
vt 0.452777 0.659647
vt 0.281891 0.376773
vt 0.369847 0.376773
vt 0.693220 0.276994
vt 0.780853 0.276994
vt 0.780853 0.402645
vt 0.693220 0.402645
vt 0.193935 0.376773
vt 0.281891 0.376773
vt 0.461001 0.485190
vt 0.564169 0.485190
vt 0.564169 0.526521
vt 0.483927 0.526521
vt 0.818871 0.402645
vt 0.818871 0.515316
vt 0.781176 0.492430
vt 0.781176 0.404797
vt 0.281891 0.251558
vt 0.193935 0.251558
vt 0.168805 0.213994
vt 0.281891 0.213994
vt 0.281891 0.251558
vt 0.369847 0.251558
vt 0.527373 0.339640
vt 0.527373 0.454271
vt 0.447131 0.454271
vt 0.445238 0.659647
vt 0.445238 0.772318
vt 0.394977 0.772318
vt 0.394977 0.659647
vt 0.381822 0.485190
vt 0.462064 0.485190
vt 0.462064 0.526521
vt 0.358896 0.526521
vt 0.831195 0.592524
vt 0.831195 0.680157
vt 0.793500 0.703043
vt 0.793500 0.590372
vt 0.394977 0.213994
vt 0.628592 0.661376
vt 0.628592 0.774462
vt 0.565863 0.774462
vt 0.565863 0.661376
vt 0.281891 0.163908
vt 0.394977 0.163908
vt 0.168805 0.163908
vt 0.315304 0.482929
vt 0.418473 0.482929
vt 0.418473 0.528782
vt 0.315304 0.528782
vt 0.394977 0.659647
vt 0.394977 0.163908
vt 0.480420 0.163908
vt 0.480420 0.659647
vt 0.746806 0.234912
vt 0.746806 0.648830
vt 0.683980 0.661376
vt 0.683980 0.247457
vt 0.811338 0.163908
vt 0.811338 0.661376
vt 0.746806 0.661376
vt 0.746806 0.163908
vt 0.480420 0.659647
vt 0.480420 0.163908
vt 0.565863 0.163908
vt 0.254248 0.779438
vt 0.191422 0.756821
vt 0.168805 0.693996
vt 0.254248 0.693996
vt 0.665244 0.738641
vt 0.677790 0.801466
vt 0.630394 0.801466
vt 0.630394 0.716023
vt 0.344620 0.693995
vt 0.281891 0.693995
vt 0.281891 0.807081
vt 0.344620 0.807081
vt 0.281891 0.693996
vt 0.281891 0.605299
vt 0.168805 0.605299
vt 0.394977 0.693995
vt 0.394977 0.605299
vt 0.281891 0.605299
vt 0.281891 0.693995
vt 0.761131 0.655892
vt 0.793500 0.590372
vt 0.743065 0.590372
vt 0.748523 0.655892
vt 0.755885 0.744283
s 1
usemtl MAT_oriented.002
f 47/1/1 49/2/1 50/3/1 45/4/1
f 46/5/2 51/6/2 54/7/2 52/8/2
f 53/9/3 55/10/3 59/11/3 57/12/3
f 58/13/4 60/14/4 2/15/4 48/16/4
f 3/17/5 7/18/5 5/19/5 1/20/5
f 50/3/1 49/2/1 68/21/1 61/22/1
f 66/23/3 64/24/3 72/25/3 74/26/3
f 2/15/4 60/14/4 67/27/4 9/28/4
f 56/29/6 4/30/6 62/31/6 63/32/6
f 6/33/7 8/34/7 65/35/7 12/36/7
f 13/37/4 75/38/4 83/39/4 17/40/4
f 61/22/1 68/21/1 76/41/1 69/42/1
f 9/28/4 67/27/4 75/38/4 13/37/4
f 11/5/2 10/43/2 70/44/2 71/45/2
f 82/46/3 80/47/3 90/48/3 91/49/3
f 73/50/8 14/51/8 78/52/8 79/53/8
f 16/54/9 15/55/9 81/56/9 20/57/9
f 69/42/1 76/41/1 84/40/1 77/58/1
f 89/59/10 87/60/10 85/61/10 92/62/10
f 77/58/1 84/40/1 86/63/1 88/64/1
f 17/40/4 83/39/4 24/65/4 21/63/4
f 19/66/2 18/67/2 22/68/2 23/69/2
f 95/70/1 97/71/1 99/72/1 93/73/1
f 94/74/11 100/75/11 102/76/12 101/77/12
f 101/78/12 102/79/12 105/80/13 103/81/13
f 104/82/4 106/83/4 98/84/4 96/17/4
f 27/85/5 31/86/5 29/87/5 25/88/5
f 32/89/10 28/90/10 26/91/10 30/92/10
f 108/93/5 111/94/5 33/95/5 107/96/5
f 34/97/14 37/98/15 112/99/15 109/87/14
f 110/100/16 113/101/17 40/102/17 36/103/16
f 37/98/15 41/16/18 114/13/18 112/99/15
f 113/101/17 115/4/19 44/1/19 40/102/17
f 38/104/20 42/105/21 43/106/21 39/107/20
f 35/108/22 38/104/20 39/107/20
