# Blender 4.2.3 LTS
# www.blender.org
mtllib pilar.mtl
o pilar.004
v -5.000000 -5.000000 5.000000
v -5.900000 -3.000000 4.100000
v -5.000000 -1.000000 5.000000
v -5.000000 3.498863 4.000000
v -5.900000 3.998863 3.700000
v -5.900000 -5.000000 4.100000
v -5.700000 -2.700000 4.300000
v -5.000000 5.000000 3.700000
v -5.900000 -1.400000 4.100000
v -5.000000 -1.400000 4.100000
v -5.900000 -1.000000 4.100000
v -5.000000 -1.000000 4.100000
v -5.500000 -1.025078 4.500000
v -5.000000 2.798863 5.000000
v -5.900000 3.498863 4.000000
v -5.000000 3.998863 3.700000
v -5.000000 -5.000000 4.100000
v -5.000000 -3.000000 4.100000
v -5.700000 -1.700000 4.300000
v -6.300000 5.000000 4.100000
v -5.500000 2.934041 4.500000
v -5.000000 2.934041 4.320000
v -5.900000 2.798863 4.100000
v -6.000000 3.498863 4.100000
v -6.300000 3.998863 4.100000
v -5.000000 5.000000 5.000000
v -5.900000 5.000000 3.700000
v -4.100000 -3.000000 4.100000
v -4.100000 2.798863 5.000000
v -4.000000 3.498863 5.000000
v -3.700000 3.998863 4.100000
v -4.100000 -5.000000 4.100000
v -4.300000 -2.700000 4.300000
v -4.300000 -2.700000 5.000000
v -5.000000 -1.025078 4.320000
v -4.320000 -1.025078 5.000000
v -3.700000 5.000000 5.000000
v -5.000000 2.798863 4.100000
v -4.100000 -1.400000 4.100000
v -4.100000 -1.400000 5.000000
v -4.100000 -1.000000 4.100000
v -4.100000 -1.000000 5.000000
v -4.500000 -1.025078 4.500000
v -4.000000 3.498863 4.100000
v -3.700000 3.998863 5.000000
v -4.100000 -5.000000 5.000000
v -4.100000 -3.000000 5.000000
v -5.000000 -2.700000 4.300000
v -5.000000 -1.700000 4.300000
v -4.300000 -1.700000 4.300000
v -4.100000 5.000000 3.700000
v -4.500000 2.934041 4.500000
v -4.320000 2.934041 5.000000
v -4.100000 2.798863 4.100000
v -4.100000 3.498863 4.000000
v -4.100000 3.998863 3.700000
v -3.700000 5.000000 4.100000
v -4.100000 -3.000000 5.900000
v -5.000000 2.798863 5.900000
v -5.000000 3.498863 6.000000
v -4.100000 3.998863 6.300000
v -4.100000 -5.000000 5.900000
v -4.300000 -2.700000 5.700000
v -4.100000 -1.400000 5.900000
v -5.000000 -1.400000 5.900000
v -4.100000 -1.000000 5.900000
v -4.500000 -1.025078 5.500000
v -4.100000 3.498863 6.000000
v -5.000000 -5.000000 5.900000
v -4.300000 -1.700000 5.000000
v -4.300000 -1.700000 5.700000
v -3.700000 5.000000 5.900000
v -4.500000 2.934041 5.500000
v -4.100000 2.798863 5.900000
v -4.000000 3.498863 5.900000
v -3.700000 3.998863 5.900000
v -4.100000 5.000000 6.300000
v -5.900000 -3.000000 5.900000
v -5.900000 2.798863 5.000000
v -6.000000 3.498863 5.000000
v -5.000000 3.998863 6.300000
v -6.300000 3.998863 5.900000
v -5.900000 -5.000000 5.900000
v -5.700000 -2.700000 5.700000
v -5.700000 -2.700000 5.000000
v -5.000000 -1.000000 5.900000
v -5.000000 -1.025078 5.680000
v -5.680000 -1.025078 5.000000
v -6.300000 5.000000 5.000000
v -5.000000 5.000000 6.300000
v -5.900000 -1.400000 5.900000
v -5.900000 -1.400000 5.000000
v -5.900000 -1.000000 5.900000
v -5.900000 -1.000000 5.000000
v -5.500000 -1.025078 5.500000
v -6.000000 3.498863 5.900000
v -6.300000 3.998863 5.000000
v -5.000000 -3.000000 5.900000
v -5.900000 -5.000000 5.000000
v -5.900000 -3.000000 5.000000
v -5.000000 -2.700000 5.700000
v -5.000000 -1.700000 5.700000
v -5.700000 -1.700000 5.700000
v -5.700000 -1.700000 5.000000
v -5.000000 -1.025078 5.000000
v -5.000000 2.934041 5.680000
v -5.900000 5.000000 6.300000
v -5.500000 2.934041 5.500000
v -5.680000 2.934041 5.000000
v -5.900000 2.798863 5.900000
v -5.900000 3.498863 6.000000
v -5.900000 3.998863 6.300000
v -6.300000 5.000000 5.900000
vn -1.0000 -0.0000 -0.0000
vn -0.5773 -0.5774 -0.5773
vn -0.7071 -0.7071 -0.0000
vn -0.7071 -0.0000 -0.7071
vn -0.0000 -0.7071 -0.7071
vn -0.0000 -1.0000 -0.0000
vn -0.0000 -0.0000 -1.0000
vn -0.8321 0.5547 -0.0000
vn -0.5145 0.6860 -0.5145
vn -0.0000 0.5547 -0.8321
vn -0.0000 0.5547 -0.8320
vn -0.5773 0.5774 -0.5773
vn -0.0000 1.0000 -0.0000
vn -0.0000 0.7071 -0.7071
vn -0.5533 -0.6226 -0.5533
vn -0.7699 -0.6382 -0.0000
vn -0.0000 -0.6382 -0.7699
vn -0.5213 -0.6756 -0.5213
vn -0.6552 -0.7554 -0.0000
vn -0.9424 -0.3346 -0.0000
vn -0.0000 -0.3346 -0.9424
vn -0.0000 -0.7555 -0.6552
vn -0.8575 -0.5145 -0.0000
vn -0.0000 -0.5145 -0.8575
vn -0.6811 -0.2686 -0.6811
vn -0.6509 -0.3906 -0.6509
vn -0.5145 -0.6860 -0.5145
vn -0.8321 -0.5547 -0.0000
vn -0.0000 -0.5547 -0.8321
vn -0.7035 -0.1005 -0.7035
vn 0.5773 -0.5774 -0.5773
vn 0.7071 -0.0000 -0.7071
vn 0.7071 -0.7071 -0.0000
vn 1.0000 -0.0000 -0.0000
vn 0.5145 0.6860 -0.5145
vn 0.8321 0.5547 -0.0000
vn 0.5773 0.5774 -0.5773
vn 0.7071 0.7071 -0.0000
vn 0.5533 -0.6226 -0.5533
vn 0.7699 -0.6382 -0.0000
vn 0.6552 -0.7555 -0.0000
vn 0.5213 -0.6756 -0.5214
vn 0.9424 -0.3346 -0.0000
vn 0.8575 -0.5145 -0.0000
vn 0.6811 -0.2686 -0.6811
vn 0.6509 -0.3906 -0.6509
vn 0.5145 -0.6860 -0.5145
vn 0.8321 -0.5547 -0.0000
vn 0.7035 -0.1005 -0.7035
vn 0.5773 -0.5774 0.5773
vn 0.7071 -0.0000 0.7071
vn -0.0000 -0.7071 0.7071
vn -0.0000 -0.0000 1.0000
vn 0.5145 0.6860 0.5145
vn -0.0000 0.5547 0.8321
vn -0.0000 0.7071 0.7071
vn 0.5773 0.5774 0.5774
vn 0.5533 -0.6226 0.5533
vn -0.0000 -0.6382 0.7699
vn 0.5213 -0.6756 0.5213
vn -0.0000 -0.3346 0.9424
vn -0.0000 -0.7554 0.6552
vn -0.0000 -0.5145 0.8575
vn 0.6811 -0.2686 0.6811
vn 0.6509 -0.3906 0.6509
vn 0.5145 -0.6860 0.5145
vn -0.0000 -0.5547 0.8321
vn -0.0000 -0.5547 0.8320
vn 0.7035 -0.1005 0.7035
vn -0.5773 -0.5774 0.5773
vn -0.7071 -0.0000 0.7071
vn -0.5145 0.6860 0.5145
vn -0.7071 0.7071 -0.0000
vn -0.5774 0.5774 0.5773
vn -0.5533 -0.6226 0.5533
vn -0.5213 -0.6756 0.5213
vn -0.6811 -0.2686 0.6811
vn -0.6509 -0.3906 0.6509
vn -0.5145 -0.6860 0.5145
vn -0.7035 -0.1005 0.7035
vt 0.875000 0.527778
vt 0.750000 0.250000
vt 0.875000 0.250000
vt 0.750000 0.527778
vt 0.625000 0.250000
vt 0.750000 0.000000
vt 0.875000 0.125000
vt 0.750000 0.125000
vt 0.722222 0.569445
vt 0.625000 0.708333
vt 0.625000 0.569445
vt 0.777778 0.569445
vt 0.625000 0.527778
vt 0.875000 0.569445
vt 0.777778 0.708333
vt 0.250000 0.000000
vt 0.375000 0.125000
vt 0.250000 0.125000
vt 0.875000 0.750000
vt 0.750000 0.805556
vt 0.750000 0.750000
vt 0.668360 0.783014
vt 0.609818 0.216986
vt 0.668360 0.216986
vt 0.475301 0.783014
vt 0.399326 0.216986
vt 0.475301 0.216986
vt 0.191422 0.756821
vt 0.254248 0.693996
vt 0.254248 0.779438
vt 0.715963 0.268486
vt 0.850206 0.134243
vt 0.850206 0.268486
vt 0.581720 0.333333
vt 0.715963 0.228238
vt 0.715963 0.333333
vt 0.059664 0.721146
vt 0.193907 0.616052
vt 0.193907 0.721146
vt 0.581720 0.145518
vt 0.581720 0.228238
vt 0.059664 0.533331
vt 0.059664 0.616052
vt 0.044748 0.619400
vt 0.059664 0.387813
vt 0.193907 0.533331
vt 0.625000 0.805556
vt 0.625000 0.750000
vt 0.722222 0.708333
vt 0.581720 0.000000
vt 0.715963 0.145518
vt 0.059664 0.387813
vt 0.193907 0.193907
vt 0.193907 0.387813
vt -0.000000 0.193907
vt 0.000000 0.328150
vt 0.000000 0.401206
vt 0.000000 0.546724
vt 0.500000 0.250000
vt 0.500000 0.527778
vt 0.375000 0.250000
vt 1.000000 0.000000
vt 0.875000 0.000000
vt 0.472222 0.569445
vt 0.375000 0.708334
vt 0.375000 0.569445
vt 0.527778 0.569445
vt 0.375000 0.527778
vt 0.527778 0.708334
vt 0.250000 0.250000
vt 0.375000 0.250000
vt 0.500000 0.805556
vt 0.500000 0.750000
vt 0.399326 0.783014
vt 0.340784 0.216986
vt 0.340784 0.783014
vt 0.264809 0.216986
vt 0.850206 -0.000000
vt 0.715963 0.134243
vt 0.715963 0.000000
vt 0.328150 0.721146
vt 0.447477 0.561572
vt 0.581720 0.666667
vt 0.447477 0.666667
vt 0.328150 0.616052
vt 0.447477 0.478851
vt 0.581720 0.561572
vt 0.432561 0.564920
vt 0.447477 0.333333
vt 0.581720 0.478851
vt 0.375000 0.805556
vt 0.375000 0.750000
vt 0.472222 0.708334
vt 0.328150 0.533331
vt 0.387813 0.328150
vt 0.387813 0.193907
vt 0.328150 0.387813
vt 0.387813 0.346726
vt 0.387813 0.492244
vt 0.250000 0.250000
vt 0.250000 0.527778
vt 0.125000 0.250000
vt 0.250000 0.250000
vt 1.000000 0.250000
vt 1.000000 0.125000
vt 0.222222 0.569445
vt 0.125000 0.708334
vt 0.125000 0.569445
vt 0.277778 0.569445
vt 0.250000 0.527778
vt 0.125000 0.527778
vt 0.277778 0.708334
vt 0.500000 0.125000
vt 0.500000 0.250000
vt 0.250000 0.805556
vt 0.250000 0.750000
vt 0.264809 0.783014
vt 0.206267 0.216986
vt 0.609818 0.783014
vt 0.533843 0.216986
vt 0.984449 0.000000
vt 0.715963 0.666667
vt 0.447477 0.894905
vt 0.581720 1.000000
vt 0.447477 1.000000
vt 0.715963 0.561572
vt 0.581720 0.812184
vt 0.581720 0.894905
vt 0.432561 0.898253
vt 0.447477 0.812184
vt 0.447477 0.666667
vt 0.250000 0.750000
vt 0.125000 0.805556
vt 0.125000 0.750000
vt 0.222222 0.708334
vt 0.581720 0.333333
vt 0.715963 0.478851
vt 0.328150 0.000000
vt 0.193907 0.000000
vt 0.387813 0.059664
vt 0.387813 0.680060
vt 0.387813 0.825577
vt 0.000000 0.250000
vt 1.000000 0.527778
vt 1.000000 0.250000
vt 0.750000 0.250000
vt 0.875000 0.250000
vt 0.972222 0.569445
vt 0.875000 0.708333
vt 0.027778 0.569445
vt 0.000000 0.527778
vt 0.027778 0.708334
vt 0.375000 0.000000
vt 0.500000 0.000000
vt 0.000000 0.805556
vt 0.000000 0.750000
vt 0.533843 0.783014
vt 0.475301 0.216986
vt 0.744335 0.783014
vt 0.744335 0.216986
vt 0.984449 0.268486
vt 0.984449 0.134243
vt 0.715963 1.000000
vt 0.447477 0.333333
vt 0.715963 0.812184
vt 0.715963 0.894905
vt 0.447477 0.228238
vt 0.432561 0.231587
vt 0.447477 0.145518
vt 0.447477 0.000000
vt 1.000000 0.750000
vt 0.875000 0.805556
vt 0.972222 0.708333
vt 0.000000 0.059664
vt 0.059664 -0.000000
vt 0.387813 0.013393
vt 0.387813 0.158911
vt 0.168805 0.693996
vt 0.715963 0.000000
vt 0.328150 0.387813
vt 0.206267 0.783014
vt 0.250000 0.805556
vt 0.715963 0.333333
vt 1.000000 0.805556
vt 0.715963 0.666667
vt 0.328150 0.387813
vt 0.379298 0.421323
vt 0.328150 0.557555
s 1
usemtl MAT_oriented.008
f 100/1/1 6/2/2 99/3/3
f 2/4/4 17/5/5 6/2/2
f 6/6/2 1/7/6 99/8/3
f 7/9/4 49/10/7 48/11/7
f 100/1/8 7/12/9 2/4/9
f 18/13/10 7/9/9 48/11/11
f 85/14/1 19/15/4 7/12/4
f 11/16/12 3/17/13 12/18/14
f 92/19/1 11/20/12 9/21/4
f 23/31/18 14/32/6 79/33/19
f 79/34/19 24/35/20 23/36/18
f 23/37/18 4/38/21 38/39/22
f 97/40/23 24/35/20 80/41/20
f 5/42/24 4/38/21 15/43/21
f 24/44/25 5/42/26 15/43/25
s 0
f 27/45/7 16/46/7 5/42/7
s 1
f 9/21/4 12/47/14 10/48/7
f 19/15/27 92/19/28 9/21/27
f 19/49/27 10/48/29 49/10/29
f 23/37/30 24/44/25 15/43/25
s 0
f 89/50/1 25/51/1 97/40/1
f 27/52/13 26/53/13 8/54/13
f 89/55/13 27/52/13 20/56/13
f 20/57/4 5/42/4 25/58/4
s 1
f 18/13/7 32/59/31 17/5/5
f 28/60/32 46/61/33 32/59/31
f 32/62/31 1/7/6 17/63/5
f 33/64/32 70/65/34 34/66/34
f 18/13/10 33/67/35 28/60/35
f 47/68/36 33/64/35 34/66/36
f 48/11/7 50/69/32 33/67/32
f 41/70/37 3/17/13 42/71/38
f 10/48/7 41/72/37 39/73/32
f 29/78/41 38/79/22 54/80/42
f 4/38/21 54/81/42 38/39/22
f 44/82/43 29/83/41 54/84/42
f 16/46/24 55/85/21 4/38/21
f 31/86/44 30/87/43 44/82/43
f 55/88/45 31/86/46 44/82/45
s 0
f 57/89/34 45/90/34 31/86/34
s 1
f 39/73/32 42/91/38 40/92/34
f 50/69/47 10/48/29 39/73/47
f 50/93/47 40/92/48 70/65/48
f 54/84/49 55/88/45 44/82/45
s 0
f 8/54/7 56/94/7 16/46/7
f 57/95/13 26/53/13 37/96/13
f 8/54/13 57/95/13 51/97/13
f 51/98/32 31/86/32 56/99/32
s 1
f 47/68/34 62/100/50 46/61/33
f 58/101/51 69/102/52 62/103/50
f 62/104/50 1/7/6 46/105/33
f 63/106/51 102/107/53 101/108/53
f 47/68/36 63/109/54 58/110/54
f 98/111/55 63/106/54 101/108/55
f 34/66/34 71/112/51 63/109/51
f 42/71/38 86/113/56 66/114/57
f 40/92/34 66/115/57 64/116/51
f 74/121/60 14/32/6 29/78/41
f 30/87/43 74/122/60 29/83/41
f 68/123/61 59/124/62 74/125/60
f 45/90/44 75/126/43 30/87/43
f 68/123/61 81/127/63 60/128/61
f 75/129/64 61/130/65 68/123/64
s 0
f 77/131/53 81/127/53 61/130/53
s 1
f 64/132/51 86/133/56 65/134/53
f 71/112/66 40/92/48 64/116/66
f 71/135/66 65/134/67 102/107/68
f 74/125/69 75/129/64 68/123/64
s 0
f 37/136/34 76/137/34 45/90/34
f 77/138/13 26/53/13 90/139/13
f 37/96/13 77/138/13 72/140/13
f 72/141/51 61/130/51 76/142/51
s 1
f 98/111/53 83/143/70 69/102/52
f 78/144/71 99/3/3 83/145/70
f 83/146/70 1/7/6 69/147/52
f 84/148/71 104/149/1 85/14/1
f 98/111/55 84/150/72 78/151/72
f 100/1/8 84/148/72 85/14/8
f 101/108/53 103/152/71 84/150/71
f 86/113/56 94/153/73 93/154/74
f 65/134/53 93/155/74 91/156/71
f 110/161/76 14/32/6 59/162/62
f 60/128/61 110/163/76 59/124/62
f 110/164/76 80/41/20 79/34/19
f 60/128/61 112/165/63 111/166/61
f 96/167/20 97/40/23 80/41/20
f 111/168/77 82/169/78 96/167/77
s 0
f 113/170/1 97/40/1 82/169/1
s 1
f 91/171/71 94/172/73 92/19/1
f 103/152/79 65/134/67 91/156/79
f 103/173/79 92/19/28 104/149/28
f 110/164/80 111/168/77 96/167/77
s 0
f 90/83/53 112/165/53 81/127/53
f 113/174/13 26/53/13 89/55/13
f 90/139/13 113/174/13 107/175/13
f 107/176/71 82/169/71 112/177/71
s 1
f 100/1/1 2/4/4 6/2/2
f 2/4/4 18/13/7 17/5/5
f 6/6/2 17/63/5 1/7/6
f 7/9/4 19/49/4 49/10/7
f 100/1/8 85/14/8 7/12/9
f 18/13/10 2/4/9 7/9/9
f 85/14/1 104/149/1 19/15/4
f 11/16/12 94/153/73 3/17/13
f 92/19/1 94/172/73 11/20/12
f 23/31/18 38/79/22 14/32/6
f 79/34/19 80/41/20 24/35/20
f 23/37/18 15/43/21 4/38/21
f 97/40/23 25/51/23 24/35/20
f 5/42/24 16/46/24 4/38/21
f 24/44/25 25/58/26 5/42/26
s 0
f 27/45/7 8/54/7 16/46/7
s 1
f 9/21/4 11/20/12 12/47/14
f 19/15/27 104/149/28 92/19/28
f 19/49/27 9/21/27 10/48/29
s 0
f 89/50/1 20/179/1 25/51/1
f 89/55/13 26/53/13 27/52/13
f 20/57/4 27/45/4 5/42/4
s 1
f 18/13/7 28/60/32 32/59/31
f 28/60/32 47/68/34 46/61/33
f 32/62/31 46/105/33 1/7/6
f 33/64/32 50/93/32 70/65/34
f 18/13/10 48/11/11 33/67/35
f 47/68/36 28/60/35 33/64/35
f 48/11/7 49/10/7 50/69/32
f 41/70/37 12/18/14 3/17/13
f 10/48/7 12/47/14 41/72/37
f 29/78/41 14/32/6 38/79/22
f 4/38/21 55/85/21 54/81/42
f 44/82/43 30/87/43 29/83/41
f 16/46/24 56/94/24 55/85/21
f 31/86/44 45/90/44 30/87/43
f 55/88/45 56/99/46 31/86/46
s 0
f 57/89/34 37/136/34 45/90/34
s 1
f 39/73/32 41/72/37 42/91/38
f 50/69/47 49/10/29 10/48/29
f 50/93/47 39/73/47 40/92/48
s 0
f 8/54/7 51/180/7 56/94/7
f 8/54/13 26/53/13 57/95/13
f 51/98/32 57/89/32 31/86/32
s 1
f 47/68/34 58/110/51 62/100/50
f 58/101/51 98/111/53 69/102/52
f 62/104/50 69/147/52 1/7/6
f 63/106/51 71/135/51 102/107/53
f 47/68/36 34/66/36 63/109/54
f 98/111/55 58/101/54 63/106/54
f 34/66/34 70/65/34 71/112/51
f 42/71/38 3/17/13 86/113/56
f 40/92/34 42/91/38 66/115/57
f 74/121/60 59/162/62 14/32/6
f 30/87/43 75/126/43 74/122/60
f 68/123/61 60/128/61 59/124/62
f 45/90/44 76/137/44 75/126/43
f 68/123/61 61/130/63 81/127/63
f 75/129/64 76/142/65 61/130/65
s 0
f 77/131/53 90/83/53 81/127/53
s 1
f 64/132/51 66/182/57 86/133/56
f 71/112/66 70/65/48 40/92/48
f 71/135/66 64/132/66 65/134/67
s 0
f 37/136/34 72/183/34 76/137/34
f 37/96/13 26/53/13 77/138/13
f 72/141/51 77/131/51 61/130/51
s 1
f 98/111/53 78/151/71 83/143/70
f 78/144/71 100/1/1 99/3/3
f 83/146/70 99/8/3 1/7/6
f 84/148/71 103/173/71 104/149/1
f 98/111/55 101/108/55 84/150/72
f 100/1/8 78/144/72 84/148/72
f 101/108/53 102/107/53 103/152/71
f 86/113/56 3/17/13 94/153/73
f 65/134/53 86/133/56 93/155/74
f 110/161/76 79/33/19 14/32/6
f 60/128/61 111/166/61 110/163/76
f 110/164/76 96/167/20 80/41/20
f 60/128/61 81/127/63 112/165/63
f 96/167/20 82/169/23 97/40/23
f 111/168/77 112/177/78 82/169/78
s 0
f 113/170/1 89/50/1 97/40/1
s 1
f 91/171/71 93/184/74 94/172/73
f 103/152/79 102/107/68 65/134/67
f 103/173/79 91/171/79 92/19/28
s 0
f 90/83/53 107/185/53 112/165/53
f 90/139/13 26/53/13 113/174/13
f 107/186/71 113/187/71 82/188/71
s 1
usemtl cliff
f 109/22/1 13/23/15 88/24/16
f 21/25/4 35/26/17 13/27/15
f 13/28/15 105/29/6 88/30/16
f 22/74/7 43/75/39 35/26/17
f 52/76/32 36/77/40 43/75/39
f 43/28/39 105/29/6 35/30/17
f 53/117/34 67/118/58 36/77/40
f 73/119/51 87/120/59 67/23/58
f 67/28/58 105/29/6 36/30/40
f 106/157/53 95/158/75 87/120/59
f 108/159/71 88/24/16 95/160/75
f 95/28/75 105/29/6 87/30/59
f 109/22/1 21/119/4 13/23/15
f 21/25/4 22/74/7 35/26/17
f 13/28/15 35/178/17 105/29/6
f 22/74/7 52/76/32 43/75/39
f 52/76/32 53/117/34 36/77/40
f 43/28/39 36/178/40 105/29/6
f 53/117/34 73/181/51 67/118/58
f 73/119/51 106/157/53 87/120/59
f 67/28/58 87/178/59 105/29/6
f 106/157/53 108/25/71 95/158/75
f 108/159/71 109/22/1 88/24/16
f 95/28/75 88/178/16 105/29/6
