# Blender 4.2.3 LTS
# www.blender.org
mtllib rail.mtl
o rail
v -5.000000 -5.000000 4.503737
v -5.000000 -2.817058 4.503737
v 5.000000 -5.000000 4.503737
v 5.000000 -2.817058 4.503737
v -5.000000 -2.617058 4.345535
v 5.000000 -2.617058 4.345535
v -5.000000 -2.417058 4.345535
v 5.000000 -2.417058 4.345535
v 5.000000 -5.000000 5.024638
v 5.000000 -2.817058 5.024638
v 5.000000 -5.000000 5.520901
v 5.000000 -2.817058 5.520901
v -5.000000 -5.000000 5.024636
v -5.000000 -2.817058 5.024636
v -5.000000 -5.000000 5.520899
v -5.000000 -2.817058 5.520899
v 5.000000 -2.617058 5.024638
v 5.000000 -2.617058 5.679102
v -5.000000 -2.617058 5.679101
v -5.000000 -2.617058 5.024636
v 5.000000 -2.417058 5.024638
v 5.000000 -2.417058 5.679102
v -5.000000 -2.417058 5.679101
v -5.000000 -2.417058 5.024636
vn -1.0000 -0.0000 -0.0000
vn -0.0000 -0.0000 -1.0000
vn 1.0000 -0.0000 -0.0000
vn -0.0000 -0.0000 1.0000
vn -0.0000 -1.0000 -0.0000
vn -0.0000 -0.6204 -0.7843
vn -0.0000 1.0000 -0.0000
vn -0.0000 -0.6204 0.7843
vt 0.463904 0.016856
vt 0.182356 0.016856
vt 0.182356 -0.050328
vt 0.463904 -0.050328
vt 1.087392 0.737594
vt 1.087392 1.019142
vt -0.202373 1.019142
vt -0.202373 0.737594
vt 0.130766 0.080862
vt -0.150782 0.080862
vt -0.150782 0.013678
vt 0.130766 0.013678
vt 1.087392 0.404455
vt 1.087392 0.686003
vt -0.202373 0.686003
vt -0.202373 0.404455
vt 1.087392 0.232456
vt -0.202373 0.232456
vt -0.202373 0.165272
vt 1.087392 0.165272
vt -0.176578 0.101266
vt -0.176578 0.013678
vt 0.156561 -0.070732
vt 0.156561 0.016856
vt 0.130766 0.016856
vt 0.130766 -0.070732
vt 0.463904 0.080862
vt 0.182356 0.080862
vt 1.087392 1.044938
vt -0.202373 1.044937
vt 1.087392 0.404455
vt -0.202373 0.316867
vt 1.087392 0.316867
vt -0.150782 -0.050328
vt 0.130766 -0.050328
vt 1.087392 1.070733
vt -0.202373 1.070733
vt -0.202373 0.101266
vt -0.202373 0.013678
vt -0.202373 0.101266
vt 1.087392 0.101266
vt 0.156561 0.101266
vt -0.176578 -0.070733
vt -0.202373 -0.070733
vt 1.087392 0.711799
vt -0.202373 0.711799
vt -0.202373 0.232457
vt 1.087392 0.232456
vt 1.087392 0.737594
vt -0.202373 0.737594
vt 0.130766 0.101266
s 0
usemtl MAT_oriented.001
f 13/1/1 14/2/1 2/3/1 1/4/1
f 1/5/2 2/6/2 4/7/2 3/8/2
f 3/9/3 4/10/3 10/11/3 9/12/3
f 11/13/4 12/14/4 16/15/4 15/16/4
f 1/17/5 3/18/5 9/19/5 13/20/5
f 10/11/3 4/10/3 6/21/3 17/22/3
f 5/23/1 20/24/1 24/25/1 7/26/1
f 2/3/1 14/2/1 20/24/1 5/23/1
f 15/27/1 16/28/1 14/2/1 13/1/1
f 4/7/6 2/6/6 5/29/6 6/30/6
f 8/31/7 7/16/7 24/32/7 21/33/7
f 9/12/3 10/11/3 12/34/3 11/35/3
f 6/30/2 5/29/2 7/36/2 8/37/2
f 17/22/3 6/21/3 8/38/3 21/39/3
f 11/40/5 15/41/5 13/20/5 9/19/5
f 14/2/1 16/28/1 19/42/1 20/24/1
f 18/43/3 17/22/3 21/39/3 22/44/3
f 12/34/3 10/11/3 17/22/3 18/43/3
f 16/15/8 12/14/8 18/45/8 19/46/8
f 23/47/7 22/48/7 21/33/7 24/32/7
f 19/46/4 18/45/4 22/49/4 23/50/4
f 20/24/1 19/42/1 23/51/1 24/25/1
