# Blender 4.2.3 LTS
# www.blender.org
mtllib stairs1_steps_only.mtl
o Cube.007
v -4.000000 -5.000000 5.000000
v -4.000000 -4.500000 5.000000
v -4.000000 -4.500000 4.000000
v 4.000000 -5.000000 5.000000
v 4.000000 -4.500000 5.000000
v 4.000000 -4.500000 4.000000
v -4.000000 -4.500000 4.000000
v -4.000000 -4.000000 4.000000
v -4.000000 -4.000000 3.000000
v 4.000000 -4.500000 4.000000
v 4.000000 -4.000000 4.000000
v 4.000000 -4.000000 3.000000
v -4.000000 -4.000000 3.000000
v -4.000000 -3.500000 3.000000
v -4.000000 -3.500000 2.000000
v 4.000000 -4.000000 3.000000
v 4.000000 -3.500000 3.000000
v 4.000000 -3.500000 2.000000
v -4.000000 -3.500000 2.000000
v -4.000000 -3.000000 2.000000
v -4.000000 -3.000000 1.000000
v 4.000000 -3.500000 2.000000
v 4.000000 -3.000000 2.000000
v 4.000000 -3.000000 1.000000
v -4.000000 -3.000000 1.000000
v -4.000000 -2.500000 1.000000
v -4.000000 -2.500000 0.000000
v 4.000000 -3.000000 1.000000
v 4.000000 -2.500000 1.000000
v 4.000000 -2.500000 0.000000
v -4.000000 -2.500000 0.000000
v -4.000000 -2.000000 0.000000
v -4.000000 -2.000000 -1.000000
v 4.000000 -2.500000 0.000000
v 4.000000 -2.000000 0.000000
v 4.000000 -2.000000 -1.000000
v -4.000000 -2.000000 -1.000000
v -4.000000 -1.500000 -1.000000
v -4.000000 -1.500000 -2.000000
v 4.000000 -2.000000 -1.000000
v 4.000000 -1.500000 -1.000000
v 4.000000 -1.500000 -2.000000
v -4.000000 -1.500000 -2.000000
v -4.000000 -1.000000 -2.000000
v -4.000000 -1.000000 -3.000000
v 4.000000 -1.500000 -2.000000
v 4.000000 -1.000000 -2.000000
v 4.000000 -1.000000 -3.000000
v -4.000000 -1.000000 -3.000000
v -4.000000 -0.500000 -3.000000
v -4.000000 -0.500000 -4.000000
v 4.000000 -1.000000 -3.000000
v 4.000000 -0.500000 -3.000000
v 4.000000 -0.500000 -4.000000
v -4.000000 -0.500000 -4.000000
v -4.000000 0.000000 -4.000000
v -4.000000 0.000000 -5.000000
v 4.000000 -0.500000 -4.000000
v 4.000000 0.000000 -4.000000
v 4.000000 0.000000 -5.000000
v -4.000000 0.000000 -5.000000
v -4.000000 0.500000 -5.000000
v -4.000000 0.500000 -6.000000
v 4.000000 0.000000 -5.000000
v 4.000000 0.500000 -5.000000
v 4.000000 0.500000 -6.000000
v -4.000000 0.500000 -6.000000
v -4.000000 1.000000 -6.000000
v -4.000000 1.000000 -7.000000
v 4.000000 0.500000 -6.000000
v 4.000000 1.000000 -6.000000
v 4.000000 1.000000 -7.000000
v -4.000000 1.000000 -7.000000
v -4.000000 1.500000 -7.000000
v -4.000000 1.500000 -8.000000
v 4.000000 1.000000 -7.000000
v 4.000000 1.500000 -7.000000
v 4.000000 1.500000 -8.000000
v -4.000000 1.500000 -8.000000
v -4.000000 2.000000 -8.000000
v -4.000000 2.000000 -9.000000
v 4.000000 1.500000 -8.000000
v 4.000000 2.000000 -8.000000
v 4.000000 2.000000 -9.000000
v -4.000000 2.000000 -9.000000
v -4.000000 2.500000 -9.000000
v -4.000000 2.500000 -10.000000
v 4.000000 2.000000 -9.000000
v 4.000000 2.500000 -9.000000
v 4.000000 2.500000 -10.000000
v -4.000000 2.500000 -10.000000
v -4.000000 3.000000 -10.000000
v -4.000000 3.000000 -11.000000
v 4.000000 2.500000 -10.000000
v 4.000000 3.000000 -10.000000
v 4.000000 3.000000 -11.000000
v -4.000000 3.000000 -11.000000
v -4.000000 3.500000 -11.000000
v -4.000000 3.500000 -12.000000
v 4.000000 3.000000 -11.000000
v 4.000000 3.500000 -11.000000
v 4.000000 3.500000 -12.000000
v -4.000000 3.500000 -12.000000
v -4.000000 4.000000 -12.000000
v -4.000000 4.000000 -13.000000
v 4.000000 3.500000 -12.000000
v 4.000000 4.000000 -12.000000
v 4.000000 4.000000 -13.000000
v -4.000000 4.000000 -13.000000
v -4.000000 4.500000 -13.000000
v -4.000000 4.500000 -14.000000
v 4.000000 4.000000 -13.000000
v 4.000000 4.500000 -13.000000
v 4.000000 4.500000 -14.000000
v -4.000000 4.500000 -14.000000
v -4.000000 5.000000 -14.000000
v -4.000000 5.000000 -15.000000
v 4.000000 4.500000 -14.000000
v 4.000000 5.000000 -14.000000
v 4.000000 5.000000 -15.000000
vn -0.0000 -0.0000 1.0000
vn -0.0000 1.0000 -0.0000
vt 0.535293 1.003653
vt 0.535293 1.058846
vt -0.347792 1.058846
vt -0.347792 1.003654
vt 0.543878 1.157828
vt -0.356377 1.157828
vt -0.356377 1.045296
vt 0.543878 1.045296
vt 1.222793 0.359122
vt 1.222793 0.414315
vt 0.339708 0.414315
vt 0.339708 0.359122
vt 1.231378 0.513297
vt 0.331123 0.513297
vt 0.331123 0.400765
vt 1.231378 0.400765
vt 0.535293 0.613029
vt 0.535293 0.668221
vt -0.347792 0.668221
vt -0.347792 0.613029
vt 0.543878 0.767203
vt -0.356377 0.767203
vt -0.356377 0.654672
vt 0.543878 0.654671
vt 1.410293 -0.285409
vt 1.410293 -0.230216
vt 0.527208 -0.230216
vt 0.527208 -0.285409
vt 1.418878 -0.131234
vt 0.518623 -0.131234
vt 0.518623 -0.243766
vt 1.418878 -0.243766
vt 0.535293 0.765372
vt 0.535293 0.820565
vt -0.347792 0.820565
vt -0.347792 0.765372
vt 0.543878 0.919547
vt -0.356377 0.919547
vt -0.356377 0.807015
vt 0.543878 0.807015
vt 0.718886 0.398185
vt 0.718886 0.453378
vt -0.164199 0.453378
vt -0.164199 0.398185
vt 0.727471 0.552360
vt -0.172784 0.552360
vt -0.172784 0.439828
vt 0.727471 0.439828
vt 1.226699 0.081779
vt 1.226699 0.136971
vt 0.343614 0.136971
vt 0.343614 0.081779
vt 1.235284 0.235953
vt 0.335029 0.235953
vt 0.335029 0.123422
vt 1.235284 0.123422
vt 0.535293 0.359122
vt 0.535293 0.414315
vt -0.347792 0.414315
vt -0.347792 0.359122
vt 0.543878 0.513297
vt -0.356377 0.513297
vt -0.356377 0.400765
vt 0.543878 0.400765
vt 1.226699 0.726310
vt 1.226699 0.781502
vt 0.343614 0.781503
vt 0.343614 0.726310
vt 1.235284 0.880485
vt 0.335029 0.880485
vt 0.335029 0.767953
vt 1.235284 0.767953
vt 1.226699 0.488028
vt 1.226699 0.543221
vt 0.343614 0.543221
vt 0.343614 0.488029
vt 1.235284 0.642203
vt 0.335029 0.642203
vt 0.335029 0.529672
vt 1.235284 0.529671
s 1
usemtl MAT_oriented.001
f 4/1/1 5/2/1 2/3/1 1/4/1
f 10/9/1 11/10/1 8/11/1 7/12/1
f 16/17/1 17/18/1 14/19/1 13/20/1
f 22/25/1 23/26/1 20/27/1 19/28/1
f 28/33/1 29/34/1 26/35/1 25/36/1
f 34/41/1 35/42/1 32/43/1 31/44/1
f 40/49/1 41/50/1 38/51/1 37/52/1
f 46/1/1 47/2/1 44/3/1 43/4/1
f 52/41/1 53/42/1 50/43/1 49/44/1
f 58/57/1 59/58/1 56/59/1 55/60/1
f 64/49/1 65/50/1 62/51/1 61/52/1
f 70/1/1 71/2/1 68/3/1 67/4/1
f 76/41/1 77/42/1 74/43/1 73/44/1
f 82/57/1 83/58/1 80/59/1 79/60/1
f 88/1/1 89/2/1 86/3/1 85/4/1
f 94/65/1 95/66/1 92/67/1 91/68/1
f 100/41/1 101/42/1 98/43/1 97/44/1
f 106/57/1 107/58/1 104/59/1 103/60/1
f 112/73/1 113/74/1 110/75/1 109/76/1
f 118/1/1 119/2/1 116/3/1 115/4/1
usemtl default
f 6/5/2 3/6/2 2/7/2 5/8/2
f 12/13/2 9/14/2 8/15/2 11/16/2
f 18/21/2 15/22/2 14/23/2 17/24/2
f 24/29/2 21/30/2 20/31/2 23/32/2
f 30/37/2 27/38/2 26/39/2 29/40/2
f 36/45/2 33/46/2 32/47/2 35/48/2
f 42/53/2 39/54/2 38/55/2 41/56/2
f 48/5/2 45/6/2 44/7/2 47/8/2
f 54/45/2 51/46/2 50/47/2 53/48/2
f 60/61/2 57/62/2 56/63/2 59/64/2
f 66/53/2 63/54/2 62/55/2 65/56/2
f 72/5/2 69/6/2 68/7/2 71/8/2
f 78/45/2 75/46/2 74/47/2 77/48/2
f 84/61/2 81/62/2 80/63/2 83/64/2
f 90/5/2 87/6/2 86/7/2 89/8/2
f 96/69/2 93/70/2 92/71/2 95/72/2
f 102/45/2 99/46/2 98/47/2 101/48/2
f 108/61/2 105/62/2 104/63/2 107/64/2
f 114/77/2 111/78/2 110/79/2 113/80/2
f 120/5/2 117/6/2 116/7/2 119/8/2
