# Blender 4.2.2 LTS
# www.blender.org
mtllib item_shine.mtl
o Circle
v -0.000000 0.000000 -0.176395
v -0.124730 0.000000 -0.124730
v -0.176395 0.000000 0.000000
v -0.124730 0.000000 0.124730
v -0.000000 0.000000 0.176395
v 0.124730 0.000000 0.124730
v 0.176395 0.000000 0.000000
v 0.124730 0.000000 -0.124730
v 0.000000 0.173204 -0.398940
v -0.282093 0.173204 -0.282093
v -0.398940 0.173204 0.000000
v -0.282093 0.173204 0.282093
v 0.000000 0.173204 0.398940
v 0.282093 0.173204 0.282093
v 0.398940 0.173204 0.000000
v 0.282093 0.173204 -0.282093
vn 0.2466 -0.7648 0.5952
vn -0.5952 -0.7648 0.2466
vn -0.2466 -0.7648 -0.5952
vn 0.2466 -0.7648 -0.5952
vn 0.5952 -0.7648 0.2466
vn -0.2466 -0.7648 0.5952
vn -0.5952 -0.7648 -0.2466
vn 0.5952 -0.7648 -0.2466
vt -1.709356 0.308489
vt -1.709355 0.945418
vt -2.309779 0.945418
vt -2.309779 0.308489
vt 1.893188 0.308489
vt 1.893188 0.945417
vt 1.292764 0.945417
vt 1.292764 0.308489
vt 0.692340 0.308489
vt 0.692340 0.945417
vt 0.091917 0.945417
vt 0.091916 0.308489
vt -0.508507 0.945418
vt -0.508507 0.308489
vt -1.108931 0.308489
vt -1.108931 0.945418
vt 2.493612 0.308488
vt 2.493612 0.945417
s 0
usemtl MAT_oriented
f 6/1/1 14/2/1 13/3/1 5/4/1
f 4/5/2 12/6/2 11/7/2 3/8/2
f 2/9/3 10/10/3 9/11/3 1/12/3
f 1/12/4 9/11/4 16/13/4 8/14/4
f 7/15/5 15/16/5 14/2/5 6/1/5
f 5/17/6 13/18/6 12/6/6 4/5/6
f 3/8/7 11/7/7 10/10/7 2/9/7
f 8/14/8 16/13/8 15/16/8 7/15/8
