# Blender 4.4.0
# www.blender.org
mtllib circle.mtl
o Circle
v 0.000000 0.000000 -6.440000
v -1.256382 0.000000 -6.316257
v -2.464481 0.000000 -5.949784
v -3.577872 0.000000 -5.354664
v -4.553767 0.000000 -4.553767
v -5.354664 0.000000 -3.577872
v -5.949784 0.000000 -2.464481
v -6.316257 0.000000 -1.256382
v -6.440000 0.000000 0.000000
v -6.316257 0.000000 1.256382
v -5.949784 0.000000 2.464481
v -5.354664 0.000000 3.577872
v -4.553767 0.000000 4.553767
v -3.577872 0.000000 5.354664
v -2.464481 0.000000 5.949784
v -1.256382 0.000000 6.316257
v 0.000000 0.000000 6.440000
v 1.256382 0.000000 6.316257
v 2.464481 0.000000 5.949784
v 3.577872 0.000000 5.354664
v 4.553767 0.000000 4.553767
v 5.354664 0.000000 3.577872
v 5.949784 0.000000 2.464481
v 6.316257 0.000000 1.256382
v 6.440000 0.000000 0.000000
v 6.316257 0.000000 -1.256382
v 5.949784 0.000000 -2.464481
v 5.354664 0.000000 -3.577872
v 4.553767 0.000000 -4.553767
v 3.577872 0.000000 -5.354664
v 2.464481 0.000000 -5.949784
v 1.256382 0.000000 -6.316257
v 0.000000 0.230537 -5.702888
v -1.112578 0.230537 -5.593308
v -2.182401 0.230537 -5.268781
v -3.168355 0.230537 -4.741777
v -4.032550 0.230537 -4.032550
v -4.741778 0.230537 -3.168355
v -5.268781 0.230537 -2.182401
v -5.593308 0.230537 -1.112578
v -5.702888 0.230537 0.000000
v -5.593308 0.230537 1.112578
v -5.268781 0.230537 2.182401
v -4.741777 0.230537 3.168355
v -4.032550 0.230537 4.032550
v -3.168355 0.230537 4.741778
v -2.182401 0.230537 5.268781
v -1.112578 0.230537 5.593308
v 0.000000 0.230537 5.702888
v 1.112578 0.230537 5.593308
v 2.182401 0.230537 5.268781
v 3.168355 0.230537 4.741777
v 4.032550 0.230537 4.032550
v 4.741778 0.230537 3.168355
v 5.268781 0.230537 2.182401
v 5.593308 0.230537 1.112578
v 5.702888 0.230537 0.000000
v 5.593308 0.230537 -1.112578
v 5.268781 0.230537 -2.182401
v 4.741777 0.230537 -3.168355
v 4.032550 0.230537 -4.032550
v 3.168355 0.230537 -4.741778
v 2.182401 0.230537 -5.268781
v 1.112578 0.230537 -5.593308
v -1.256382 0.230537 -6.316257
v 0.000000 0.230537 -6.440000
v -2.464481 0.230537 -5.949784
v -3.577872 0.230537 -5.354664
v -4.553767 0.230537 -4.553767
v -5.354664 0.230537 -3.577872
v -5.949784 0.230537 -2.464481
v -6.316257 0.230537 -1.256382
v -6.440000 0.230537 0.000000
v -6.316257 0.230537 1.256382
v -5.949784 0.230537 2.464481
v -5.354664 0.230537 3.577872
v -4.553767 0.230537 4.553767
v -3.577872 0.230537 5.354664
v -2.464481 0.230537 5.949784
v -1.256382 0.230537 6.316257
v 0.000000 0.230537 6.440000
v 1.256382 0.230537 6.316257
v 2.464481 0.230537 5.949784
v 3.577872 0.230537 5.354664
v 4.553767 0.230537 4.553767
v 5.354664 0.230537 3.577872
v 5.949784 0.230537 2.464481
v 6.316257 0.230537 1.256382
v 6.440000 0.230537 0.000000
v 6.316257 0.230537 -1.256382
v 5.949784 0.230537 -2.464481
v 5.354664 0.230537 -3.577872
v 4.553767 0.230537 -4.553767
v 3.577872 0.230537 -5.354664
v 2.464481 0.230537 -5.949784
v 1.256382 0.230537 -6.316257
v -0.978603 0.435831 -4.919771
v 0.000000 0.435831 -5.016155
v -1.919600 0.435831 -4.634323
v -2.786827 0.435831 -4.170781
v -3.546957 0.435831 -3.546957
v -4.170781 0.435831 -2.786827
v -4.634323 0.435831 -1.919600
v -4.919771 0.435831 -0.978603
v -5.016155 0.435831 0.000000
v -4.919771 0.435831 0.978604
v -4.634323 0.435831 1.919600
v -4.170781 0.435831 2.786827
v -3.546957 0.435831 3.546957
v -2.786827 0.435831 4.170781
v -1.919600 0.435831 4.634323
v -0.978603 0.435831 4.919771
v 0.000000 0.435831 5.016155
v 0.978604 0.435831 4.919771
v 1.919600 0.435831 4.634323
v 2.786827 0.435831 4.170781
v 3.546957 0.435831 3.546957
v 4.170781 0.435831 2.786827
v 4.634323 0.435831 1.919600
v 4.919771 0.435831 0.978604
v 5.016155 0.435831 0.000000
v 4.919771 0.435831 -0.978603
v 4.634323 0.435831 -1.919600
v 4.170781 0.435831 -2.786827
v 3.546957 0.435831 -3.546957
v 2.786827 0.435831 -4.170781
v 1.919600 0.435831 -4.634323
v 0.978604 0.435831 -4.919771
v -1.112578 0.435831 -5.593308
v 0.000000 0.435831 -5.702888
v -2.182401 0.435831 -5.268781
v -3.168355 0.435831 -4.741777
v -4.032550 0.435831 -4.032550
v -4.741778 0.435831 -3.168355
v -5.268781 0.435831 -2.182401
v -5.593308 0.435831 -1.112578
v -5.702888 0.435831 0.000000
v -5.593308 0.435831 1.112578
v -5.268781 0.435831 2.182401
v -4.741777 0.435831 3.168355
v -4.032550 0.435831 4.032550
v -3.168355 0.435831 4.741778
v -2.182401 0.435831 5.268781
v -1.112578 0.435831 5.593308
v 0.000000 0.435831 5.702888
v 1.112578 0.435831 5.593308
v 2.182401 0.435831 5.268781
v 3.168355 0.435831 4.741777
v 4.032550 0.435831 4.032550
v 4.741778 0.435831 3.168355
v 5.268781 0.435831 2.182401
v 5.593308 0.435831 1.112578
v 5.702888 0.435831 0.000000
v 5.593308 0.435831 -1.112578
v 5.268781 0.435831 -2.182401
v 4.741777 0.435831 -3.168355
v 4.032550 0.435831 -4.032550
v 3.168355 0.435831 -4.741778
v 2.182401 0.435831 -5.268781
v 1.112578 0.435831 -5.593308
v -0.978603 0.595505 -4.919771
v 0.000000 0.595505 -5.016155
v -1.919600 0.595505 -4.634323
v -2.786827 0.595505 -4.170781
v -3.546957 0.595505 -3.546957
v -4.170781 0.595505 -2.786827
v -4.634323 0.595505 -1.919600
v -4.919771 0.595505 -0.978603
v -5.016155 0.595505 0.000000
v -4.919771 0.595505 0.978604
v -4.634323 0.595505 1.919600
v -4.170781 0.595505 2.786827
v -3.546957 0.595505 3.546957
v -2.786827 0.595505 4.170781
v -1.919600 0.595505 4.634323
v -0.978603 0.595505 4.919771
v 0.000000 0.595505 5.016155
v 0.978604 0.595505 4.919771
v 1.919600 0.595505 4.634323
v 2.786827 0.595505 4.170781
v 3.546957 0.595505 3.546957
v 4.170781 0.595505 2.786827
v 4.634323 0.595505 1.919600
v 4.919771 0.595505 0.978604
v 5.016155 0.595505 0.000000
v 4.919771 0.595505 -0.978603
v 4.634323 0.595505 -1.919600
v 4.170781 0.595505 -2.786827
v 3.546957 0.595505 -3.546957
v 2.786827 0.595505 -4.170781
v 1.919600 0.595505 -4.634323
v 0.978604 0.595505 -4.919771
vn 0.2903 -0.0000 0.9569
vn -0.7730 -0.0000 -0.6344
vn 0.0980 -0.0000 -0.9952
vn 0.4714 -0.0000 0.8819
vn -0.8819 -0.0000 -0.4714
vn 0.6344 -0.0000 0.7730
vn -0.9569 -0.0000 -0.2903
vn 0.7730 -0.0000 0.6344
vn -0.9952 -0.0000 -0.0980
vn 0.8819 -0.0000 0.4714
vn -0.9952 -0.0000 0.0980
vn 0.9569 -0.0000 0.2903
vn -0.9569 -0.0000 0.2903
vn 0.9952 -0.0000 0.0980
vn -0.8819 -0.0000 0.4714
vn 0.9952 -0.0000 -0.0980
vn -0.7730 -0.0000 0.6344
vn 0.9569 -0.0000 -0.2903
vn -0.6344 -0.0000 0.7730
vn 0.8819 -0.0000 -0.4714
vn -0.4714 -0.0000 0.8819
vn -0.0980 -0.0000 -0.9952
vn 0.7730 -0.0000 -0.6344
vn -0.2903 -0.0000 0.9569
vn -0.2903 -0.0000 -0.9569
vn 0.6344 -0.0000 -0.7730
vn -0.0980 -0.0000 0.9952
vn -0.4714 -0.0000 -0.8819
vn 0.4714 -0.0000 -0.8819
vn 0.0980 -0.0000 0.9952
vn -0.6344 -0.0000 -0.7730
vn 0.2903 -0.0000 -0.9569
vn -0.0000 1.0000 -0.0000
vt 0.666639 0.619295
vt 0.639365 0.619295
vt 0.639365 0.765786
vt 0.666639 0.765786
vt 0.693914 1.199627
vt 0.666640 1.199627
vt 0.666639 1.323815
vt 0.693914 1.323815
vt 0.748463 0.660172
vt 0.721189 0.660172
vt 0.721189 0.809532
vt 0.748463 0.809532
vt 0.666639 0.481305
vt 0.639365 0.481305
vt 0.693914 1.061636
vt 0.666640 1.061636
vt 0.666640 0.357116
vt 0.639365 0.357116
vt 0.693914 0.915146
vt 0.666640 0.915146
vt 0.666640 0.251503
vt 0.639365 0.251503
vt 0.693914 0.765786
vt 0.666640 0.765786
vt 0.721189 1.094013
vt 0.693914 1.094013
vt 0.693914 1.218202
vt 0.721189 1.218202
vt 0.693914 0.619295
vt 0.666640 0.619295
vt 0.721189 0.956022
vt 0.693914 0.956022
vt 0.693914 0.481305
vt 0.666640 0.481305
vt 0.721189 0.809532
vt 0.693914 0.809532
vt 0.693914 0.357116
vt 0.693914 0.660172
vt 0.693914 0.251503
vt 0.721189 0.513682
vt 0.693914 0.513682
vt 0.639365 1.323815
vt 0.639365 1.429428
vt 0.666639 1.429428
vt 0.721189 0.375691
vt 0.693914 0.375691
vt 0.666639 1.199627
vt 0.639365 1.199627
vt 0.748463 0.513682
vt 0.721189 0.251503
vt 0.666639 1.061636
vt 0.639365 1.061636
vt 0.748463 0.375691
vt 0.748463 1.094013
vt 0.721189 1.094013
vt 0.721189 1.218201
vt 0.748463 1.218201
vt 0.666639 0.915146
vt 0.639365 0.915146
vt 0.748463 0.251503
vt 0.748463 0.956022
vt 0.721189 0.956022
vt 0.666639 1.429429
vt 0.693914 1.429429
vt 0.772751 0.706922
vt 0.748463 0.706922
vt 0.748463 0.839186
vt 0.772751 0.839186
vt -0.790327 -0.105320
vt -0.877114 -0.096772
vt -0.847975 0.049718
vt -0.764523 0.024403
vt -0.790817 0.187709
vt -0.713908 0.146600
vt -0.707837 0.311897
vt -0.640425 0.256574
vt -0.602224 0.417511
vt -0.546900 0.350099
vt -0.478035 0.500490
vt -0.436926 0.423581
vt -0.340044 0.557648
vt -0.314730 0.474197
vt -0.193554 0.586787
vt -0.185006 0.500000
vt -0.044194 0.586787
vt -0.052742 0.500000
vt 0.102296 0.557648
vt 0.076981 0.474196
vt 0.240287 0.500490
vt 0.199178 0.423581
vt 0.364475 0.417510
vt 0.309152 0.350099
vt 0.470089 0.311897
vt 0.402677 0.256573
vt 0.553069 0.187708
vt 0.476159 0.146599
vt 0.610226 0.049718
vt 0.526775 0.024403
vt 0.639365 -0.096773
vt 0.552578 -0.105320
vt 0.639365 -0.246133
vt 0.552578 -0.237585
vt 0.610226 -0.392623
vt 0.526774 -0.367308
vt 0.553068 -0.530614
vt 0.476159 -0.489505
vt 0.470088 -0.654802
vt 0.402677 -0.599479
vt 0.364475 -0.760415
vt 0.309151 -0.693004
vt 0.240286 -0.843395
vt 0.199178 -0.766486
vt 0.102296 -0.900553
vt 0.076981 -0.817101
vt -0.044194 -0.929692
vt -0.052742 -0.842905
vt -0.193555 -0.929692
vt -0.185007 -0.842905
vt -0.340045 -0.900553
vt -0.314730 -0.817101
vt -0.478036 -0.843395
vt -0.436927 -0.766486
vt -0.602224 -0.760415
vt -0.546901 -0.693004
vt -0.707837 -0.654802
vt -0.640426 -0.599478
vt -0.790817 -0.530613
vt -0.713908 -0.489504
vt -0.847975 -0.392623
vt -0.764523 -0.367308
vt -0.790327 -0.237585
vt -0.877114 -0.246132
vt 0.902288 0.800257
vt 0.883398 0.800257
vt 0.883398 0.907739
vt 0.902288 0.907739
vt 0.797040 1.201080
vt 0.772752 1.201080
vt 0.772752 1.294605
vt 0.797040 1.294605
vt 0.821328 0.613396
vt 0.797040 0.613396
vt 0.797040 0.745661
vt 0.821328 0.745661
vt 0.772751 0.577198
vt 0.748463 0.577198
vt 0.797040 1.091106
vt 0.772752 1.091106
vt 0.797040 0.875384
vt 0.821328 0.875384
vt 0.772751 0.455002
vt 0.748463 0.455002
vt 0.797040 0.968909
vt 0.772752 0.968909
vt 0.772751 0.345028
vt 0.748463 0.345028
vt 0.797040 0.839186
vt 0.772752 0.839186
vt 0.772751 0.251503
vt 0.748463 0.251503
vt 0.797040 0.706922
vt 0.772752 0.706922
vt 0.845616 0.997581
vt 0.821328 0.997581
vt 0.821328 1.107555
vt 0.845616 1.107555
vt 0.797040 0.577198
vt 0.772752 0.577198
vt 0.845616 0.875384
vt 0.797040 0.455002
vt 0.772752 0.455002
vt 0.845616 0.745661
vt 0.821328 0.745661
vt 0.797040 0.345028
vt 0.772752 0.345028
vt 0.845616 0.613396
vt 0.797040 0.251503
vt 0.772752 0.251503
vt 0.845616 0.483673
vt 0.821328 0.483673
vt 0.772751 1.201080
vt 0.748463 1.201080
vt 0.748463 1.294605
vt 0.772751 1.294605
vt 0.845616 0.361477
vt 0.821328 0.361477
vt 0.772751 1.091106
vt 0.748463 1.091106
vt 0.797040 0.483673
vt 0.845616 0.251503
vt 0.821328 0.251503
vt 0.772751 0.968909
vt 0.748463 0.968909
vt 0.821328 0.361477
vt 0.797040 0.361477
vt 0.797040 0.997581
vt 0.797040 1.107555
vt 0.821328 0.251503
vt 0.797040 0.251503
vt -0.796258 1.316408
vt -0.877114 1.324372
vt -0.851310 1.454095
vt -0.773562 1.430510
vt -0.800695 1.576291
vt -0.729042 1.537992
vt -0.727212 1.686265
vt -0.664408 1.634723
vt -0.633687 1.779790
vt -0.582145 1.716986
vt -0.523713 1.853273
vt -0.485414 1.781620
vt -0.401517 1.903888
vt -0.377932 1.826140
vt -0.271793 1.929692
vt -0.263830 1.848837
vt -0.139529 1.929692
vt -0.147492 1.848837
vt -0.009806 1.903888
vt -0.033390 1.826140
vt 0.112391 1.853273
vt 0.074092 1.781620
vt 0.222365 1.779790
vt 0.170823 1.716986
vt 0.315890 1.686265
vt 0.253086 1.634723
vt 0.389372 1.576291
vt 0.317719 1.537992
vt 0.439988 1.454095
vt 0.362240 1.430510
vt 0.465791 1.324371
vt 0.384936 1.316408
vt 0.465791 1.192107
vt 0.384936 1.200070
vt 0.439988 1.062384
vt 0.362240 1.085968
vt 0.389372 0.940187
vt 0.317719 0.978486
vt 0.315890 0.830213
vt 0.253086 0.881755
vt 0.222365 0.736688
vt 0.170823 0.799492
vt 0.112391 0.663206
vt 0.074091 0.734859
vt -0.009806 0.612590
vt -0.033390 0.690338
vt -0.139529 0.586787
vt -0.147492 0.667642
vt -0.271794 0.586787
vt -0.263830 0.667642
vt -0.401517 0.612590
vt -0.377932 0.690338
vt -0.523713 0.663206
vt -0.485414 0.734859
vt -0.633687 0.736688
vt -0.582145 0.799492
vt -0.727212 0.830213
vt -0.664408 0.881756
vt -0.800695 0.940187
vt -0.729042 0.978487
vt -0.851310 1.062384
vt -0.773562 1.085968
vt -0.796258 1.200071
vt -0.877114 1.192107
vt 0.639365 -0.280926
vt 0.662061 -0.166824
vt 0.706581 -0.059342
vt 0.771215 0.037389
vt 0.853478 0.119652
vt 0.950209 0.184286
vt 1.057691 0.228806
vt 1.171793 0.251503
vt 1.288131 0.251503
vt 1.402233 0.228806
vt 1.509715 0.184286
vt 1.606446 0.119652
vt 1.688709 0.037389
vt 1.753343 -0.059342
vt 1.797863 -0.166824
vt 1.820559 -0.280926
vt 1.820559 -0.397263
vt 1.797863 -0.511365
vt 1.753343 -0.618847
vt 1.688709 -0.715578
vt 1.606446 -0.797841
vt 1.509715 -0.862475
vt 1.402233 -0.906995
vt 1.288131 -0.929692
vt 1.171793 -0.929692
vt 1.057691 -0.906995
vt 0.950209 -0.862475
vt 0.853478 -0.797841
vt 0.771215 -0.715578
vt 0.706581 -0.618847
vt 0.662061 -0.511365
vt 0.639365 -0.397263
vt 0.864507 0.430497
vt 0.845616 0.430497
vt 0.845616 0.537979
vt 0.864507 0.537979
vt 0.902288 0.686155
vt 0.883398 0.686155
vt 0.864507 0.333766
vt 0.845616 0.333766
vt 0.902288 0.569818
vt 0.883398 0.569818
vt 0.864507 0.251503
vt 0.845616 0.251503
vt 0.902288 0.455716
vt 0.883398 0.455716
vt 0.883398 1.086733
vt 0.864507 1.086733
vt 0.864507 1.168996
vt 0.883398 1.168996
vt 0.902288 0.348234
vt 0.883398 0.348234
vt 0.883398 0.990002
vt 0.864507 0.990002
vt 0.921179 0.455716
vt 0.902288 0.455716
vt 0.902288 0.569818
vt 0.921179 0.569818
vt 0.902288 0.251503
vt 0.883398 0.251503
vt 0.883398 0.882520
vt 0.864507 0.882520
vt 0.921179 0.348234
vt 0.921179 0.907739
vt 0.902288 1.004470
vt 0.921179 1.004470
vt 0.883398 0.768418
vt 0.864507 0.768418
vt 0.921179 0.251503
vt 0.921179 0.800258
vt 0.902288 0.800258
vt 0.883398 0.652081
vt 0.864507 0.652081
vt 0.845616 1.086733
vt 0.845616 1.168996
vt 0.921179 0.686155
vt 0.883398 0.537979
vt 0.845616 0.990002
vt 0.883398 0.430497
vt 0.864507 0.430497
vt 0.845616 0.882520
vt 0.883398 0.333766
vt 0.864507 0.768418
vt 0.845616 0.768418
vt 0.883398 0.251503
vt 0.864507 0.251503
vt 0.845616 0.652081
vt 0.883398 1.004470
s 0
usemtl Material.010
f 19/1/1 83/2/1 82/3/1 18/4/1
f 6/5/2 70/6/2 69/7/2 5/8/2
f 1/9/3 66/10/3 96/11/3 32/12/3
f 20/13/4 84/14/4 83/2/4 19/1/4
f 7/15/5 71/16/5 70/6/5 6/5/5
f 21/17/6 85/18/6 84/14/6 20/13/6
f 8/19/7 72/20/7 71/16/7 7/15/7
f 22/21/8 86/22/8 85/18/8 21/17/8
f 9/23/9 73/24/9 72/20/9 8/19/9
f 23/25/10 87/26/10 86/27/10 22/28/10
f 10/29/11 74/30/11 73/24/11 9/23/11
f 24/31/12 88/32/12 87/26/12 23/25/12
f 11/33/13 75/34/13 74/30/13 10/29/13
f 25/35/14 89/36/14 88/32/14 24/31/14
f 12/37/15 76/17/15 75/34/15 11/33/15
f 26/10/16 90/38/16 89/36/16 25/35/16
f 13/39/17 77/21/17 76/17/17 12/37/17
f 27/40/18 91/41/18 90/38/18 26/10/18
f 14/7/19 78/42/19 77/43/19 13/44/19
f 28/45/20 92/46/20 91/41/20 27/40/20
f 15/47/21 79/48/21 78/42/21 14/7/21
f 2/49/22 65/40/22 66/10/22 1/9/22
f 29/50/23 93/39/23 92/46/23 28/45/23
f 16/51/24 80/52/24 79/48/24 15/47/24
f 3/53/25 67/45/25 65/40/25 2/49/25
f 30/54/26 94/55/26 93/56/26 29/57/26
f 17/58/27 81/59/27 80/52/27 16/51/27
f 4/60/28 68/50/28 67/45/28 3/53/28
f 31/61/29 95/62/29 94/55/29 30/54/29
f 18/4/30 82/3/30 81/59/30 17/58/30
f 5/8/31 69/7/31 68/63/31 4/64/31
f 32/12/32 96/11/32 95/62/32 31/61/32
f 50/65/30 146/66/30 145/67/30 49/68/30
f 33/69/33 66/70/33 65/71/33 34/72/33
f 34/72/33 65/71/33 67/73/33 35/74/33
f 35/74/33 67/73/33 68/75/33 36/76/33
f 36/76/33 68/75/33 69/77/33 37/78/33
f 37/78/33 69/77/33 70/79/33 38/80/33
f 38/80/33 70/79/33 71/81/33 39/82/33
f 39/82/33 71/81/33 72/83/33 40/84/33
f 40/84/33 72/83/33 73/85/33 41/86/33
f 41/86/33 73/85/33 74/87/33 42/88/33
f 42/88/33 74/87/33 75/89/33 43/90/33
f 43/90/33 75/89/33 76/91/33 44/92/33
f 44/92/33 76/91/33 77/93/33 45/94/33
f 45/94/33 77/93/33 78/95/33 46/96/33
f 46/96/33 78/95/33 79/97/33 47/98/33
f 47/98/33 79/97/33 80/99/33 48/100/33
f 48/100/33 80/99/33 81/101/33 49/102/33
f 49/102/33 81/101/33 82/103/33 50/104/33
f 50/104/33 82/103/33 83/105/33 51/106/33
f 51/106/33 83/105/33 84/107/33 52/108/33
f 52/108/33 84/107/33 85/109/33 53/110/33
f 53/110/33 85/109/33 86/111/33 54/112/33
f 54/112/33 86/111/33 87/113/33 55/114/33
f 55/114/33 87/113/33 88/115/33 56/116/33
f 56/116/33 88/115/33 89/117/33 57/118/33
f 57/118/33 89/117/33 90/119/33 58/120/33
f 58/120/33 90/119/33 91/121/33 59/122/33
f 59/122/33 91/121/33 92/123/33 60/124/33
f 60/124/33 92/123/33 93/125/33 61/126/33
f 61/126/33 93/125/33 94/127/33 62/128/33
f 62/128/33 94/127/33 95/129/33 63/130/33
f 64/131/33 96/132/33 66/70/33 33/69/33
f 63/130/33 95/129/33 96/132/33 64/131/33
f 120/133/12 184/134/12 183/135/12 119/136/12
f 37/137/31 133/138/31 132/139/31 36/140/31
f 33/141/3 130/142/3 160/143/3 64/144/3
f 51/145/1 147/146/1 146/66/1 50/65/1
f 38/147/2 134/148/2 133/138/2 37/137/2
f 64/144/32 160/143/32 159/149/32 63/150/32
f 52/151/4 148/152/4 147/146/4 51/145/4
f 39/153/5 135/154/5 134/148/5 38/147/5
f 53/155/6 149/156/6 148/152/6 52/151/6
f 40/157/7 136/158/7 135/154/7 39/153/7
f 54/159/8 150/160/8 149/156/8 53/155/8
f 41/161/9 137/162/9 136/158/9 40/157/9
f 55/163/10 151/164/10 150/165/10 54/166/10
f 42/167/11 138/168/11 137/162/11 41/161/11
f 56/169/12 152/150/12 151/164/12 55/163/12
f 43/170/13 139/171/13 138/168/13 42/167/13
f 57/172/14 153/173/14 152/150/14 56/169/14
f 44/174/15 140/175/15 139/171/15 43/170/15
f 58/176/16 154/141/16 153/173/16 57/172/16
f 45/177/17 141/178/17 140/175/17 44/174/17
f 59/179/18 155/180/18 154/141/18 58/176/18
f 46/181/19 142/182/19 141/183/19 45/184/19
f 60/185/20 156/186/20 155/180/20 59/179/20
f 47/187/21 143/188/21 142/182/21 46/181/21
f 34/180/22 129/189/22 130/142/22 33/141/22
f 61/190/23 157/191/23 156/186/23 60/185/23
f 48/192/24 144/193/24 143/188/24 47/187/24
f 35/194/25 131/195/25 129/189/25 34/180/25
f 62/164/26 158/196/26 157/197/26 61/165/26
f 49/68/27 145/67/27 144/193/27 48/192/27
f 36/198/28 132/199/28 131/195/28 35/194/28
f 63/150/29 159/149/29 158/196/29 62/164/29
f 98/200/33 130/201/33 129/202/33 97/203/33
f 97/203/33 129/202/33 131/204/33 99/205/33
f 99/205/33 131/204/33 132/206/33 100/207/33
f 100/207/33 132/206/33 133/208/33 101/209/33
f 101/209/33 133/208/33 134/210/33 102/211/33
f 102/211/33 134/210/33 135/212/33 103/213/33
f 103/213/33 135/212/33 136/214/33 104/215/33
f 104/215/33 136/214/33 137/216/33 105/217/33
f 105/217/33 137/216/33 138/218/33 106/219/33
f 106/219/33 138/218/33 139/220/33 107/221/33
f 107/221/33 139/220/33 140/222/33 108/223/33
f 108/223/33 140/222/33 141/224/33 109/225/33
f 109/225/33 141/224/33 142/226/33 110/227/33
f 110/227/33 142/226/33 143/228/33 111/229/33
f 111/229/33 143/228/33 144/230/33 112/231/33
f 112/231/33 144/230/33 145/232/33 113/233/33
f 113/233/33 145/232/33 146/234/33 114/235/33
f 114/235/33 146/234/33 147/236/33 115/237/33
f 115/237/33 147/236/33 148/238/33 116/239/33
f 116/239/33 148/238/33 149/240/33 117/241/33
f 117/241/33 149/240/33 150/242/33 118/243/33
f 118/243/33 150/242/33 151/244/33 119/245/33
f 119/245/33 151/244/33 152/246/33 120/247/33
f 120/247/33 152/246/33 153/248/33 121/249/33
f 121/249/33 153/248/33 154/250/33 122/251/33
f 122/251/33 154/250/33 155/252/33 123/253/33
f 123/253/33 155/252/33 156/254/33 124/255/33
f 124/255/33 156/254/33 157/256/33 125/257/33
f 125/257/33 157/256/33 158/258/33 126/259/33
f 126/259/33 158/258/33 159/260/33 127/261/33
f 128/262/33 160/263/33 130/201/33 98/200/33
f 127/261/33 159/260/33 160/263/33 128/262/33
f 162/264/33 161/265/33 163/266/33 164/267/33 165/268/33 166/269/33 167/270/33 168/271/33 169/272/33 170/273/33 171/274/33 172/275/33 173/276/33 174/277/33 175/278/33 176/279/33 177/280/33 178/281/33 179/282/33 180/283/33 181/284/33 182/285/33 183/286/33 184/287/33 185/288/33 186/289/33 187/290/33 188/291/33 189/292/33 190/293/33 191/294/33 192/295/33
f 107/296/13 171/297/13 170/298/13 106/299/13
f 121/300/14 185/301/14 184/134/14 120/133/14
f 108/302/15 172/303/15 171/297/15 107/296/15
f 122/304/16 186/305/16 185/301/16 121/300/16
f 109/306/17 173/307/17 172/303/17 108/302/17
f 123/308/18 187/309/18 186/305/18 122/304/18
f 110/310/19 174/311/19 173/312/19 109/313/19
f 124/314/20 188/315/20 187/309/20 123/308/20
f 111/316/21 175/317/21 174/311/21 110/310/21
f 97/318/22 161/319/22 162/320/22 98/321/22
f 125/322/23 189/323/23 188/315/23 124/314/23
f 112/324/24 176/325/24 175/317/24 111/316/24
f 99/326/25 163/314/25 161/319/25 97/318/25
f 126/327/26 190/136/26 189/328/26 125/329/26
f 113/330/27 177/331/27 176/325/27 112/324/27
f 100/332/28 164/322/28 163/314/28 99/326/28
f 127/333/29 191/334/29 190/136/29 126/327/29
f 114/335/30 178/336/30 177/331/30 113/330/30
f 101/311/31 165/337/31 164/338/31 100/312/31
f 98/321/3 162/320/3 192/300/3 128/339/3
f 115/340/1 179/299/1 178/336/1 114/335/1
f 102/317/2 166/341/2 165/337/2 101/311/2
f 128/339/32 192/300/32 191/334/32 127/333/32
f 116/342/4 180/343/4 179/299/4 115/340/4
f 103/325/5 167/344/5 166/341/5 102/317/5
f 117/345/6 181/302/6 180/343/6 116/342/6
f 104/346/7 168/347/7 167/344/7 103/325/7
f 118/348/8 182/349/8 181/302/8 117/345/8
f 105/336/9 169/350/9 168/347/9 104/346/9
f 119/136/10 183/135/10 182/351/10 118/328/10
f 106/299/11 170/298/11 169/350/11 105/336/11
