# Blender 4.4.0
# www.blender.org
mtllib sphere_collider.mtl
o Circle.001
v 0.000000 0.000000 -4.793880
v -0.935239 0.000000 -4.701766
v -1.834538 0.000000 -4.428967
v -2.663337 0.000000 -3.985965
v -3.389785 0.000000 -3.389785
v -3.985965 0.000000 -2.663337
v -4.428967 0.000000 -1.834538
v -4.701766 0.000000 -0.935239
v -4.793880 0.000000 0.000000
v -4.701766 0.000000 0.935239
v -4.428967 0.000000 1.834538
v -3.985965 0.000000 2.663337
v -3.389785 0.000000 3.389785
v -2.663337 0.000000 3.985965
v -1.834538 0.000000 4.428967
v -0.935239 0.000000 4.701766
v 0.000000 0.000000 4.793880
v 0.935239 0.000000 4.701766
v 1.834538 0.000000 4.428967
v 2.663337 0.000000 3.985965
v 3.389785 0.000000 3.389785
v 3.985965 0.000000 2.663337
v 4.428967 0.000000 1.834538
v 4.701766 0.000000 0.935239
v 4.793880 0.000000 0.000000
v 4.701766 0.000000 -0.935239
v 4.428967 0.000000 -1.834538
v 3.985965 0.000000 -2.663337
v 3.389785 0.000000 -3.389785
v 2.663337 0.000000 -3.985965
v 1.834538 0.000000 -4.428967
v 0.935239 0.000000 -4.701766
v -0.000000 0.000000 -4.474504
v -0.872932 0.000000 -4.388528
v -1.712319 0.000000 -4.133903
v -2.485901 0.000000 -3.720414
v -3.163952 0.000000 -3.163952
v -3.720414 0.000000 -2.485901
v -4.133903 0.000000 -1.712319
v -4.388528 0.000000 -0.872932
v -4.474504 0.000000 -0.000000
v -4.388528 0.000000 0.872932
v -4.133903 0.000000 1.712319
v -3.720414 0.000000 2.485901
v -3.163952 0.000000 3.163952
v -2.485901 0.000000 3.720414
v -1.712319 0.000000 4.133903
v -0.872932 0.000000 4.388528
v -0.000000 0.000000 4.474504
v 0.872932 0.000000 4.388528
v 1.712319 0.000000 4.133903
v 2.485901 0.000000 3.720414
v 3.163952 0.000000 3.163952
v 3.720414 0.000000 2.485901
v 4.133903 0.000000 1.712319
v 4.388528 0.000000 0.872932
v 4.474504 0.000000 -0.000000
v 4.388528 0.000000 -0.872932
v 4.133903 0.000000 -1.712319
v 3.720414 0.000000 -2.485901
v 3.163952 0.000000 -3.163952
v 2.485901 0.000000 -3.720414
v 1.712319 0.000000 -4.133903
v 0.872932 0.000000 -4.388528
v 0.000000 9.535646 -4.793880
v -0.935239 9.535646 -4.701766
v -1.834538 9.535646 -4.428967
v -2.663337 9.535646 -3.985965
v -3.389785 9.535646 -3.389785
v -3.985965 9.535646 -2.663337
v -4.428967 9.535646 -1.834538
v -4.701766 9.535646 -0.935239
v -4.793880 9.535646 0.000000
v -4.701766 9.535646 0.935239
v -4.428967 9.535646 1.834538
v -3.985965 9.535646 2.663337
v -3.389785 9.535646 3.389785
v -2.663337 9.535646 3.985965
v -1.834538 9.535646 4.428967
v -0.935239 9.535646 4.701766
v 0.000000 9.535646 4.793880
v 0.935239 9.535646 4.701766
v 1.834538 9.535646 4.428967
v 2.663337 9.535646 3.985965
v 3.389785 9.535646 3.389785
v 3.985965 9.535646 2.663337
v 4.428967 9.535646 1.834538
v 4.701766 9.535646 0.935239
v 4.793880 9.535646 0.000000
v 4.701766 9.535646 -0.935239
v 4.428967 9.535646 -1.834538
v 3.985965 9.535646 -2.663337
v 3.389785 9.535646 -3.389785
v 2.663337 9.535646 -3.985965
v 1.834538 9.535646 -4.428967
v 0.935239 9.535646 -4.701766
v -0.000000 9.535646 -4.474504
v -0.872932 9.535646 -4.388528
v -1.712319 9.535646 -4.133903
v -2.485901 9.535646 -3.720414
v -3.163952 9.535646 -3.163952
v -3.720414 9.535646 -2.485901
v -4.133903 9.535646 -1.712319
v -4.388528 9.535646 -0.872932
v -4.474504 9.535646 -0.000000
v -4.388528 9.535646 0.872932
v -4.133903 9.535646 1.712319
v -3.720414 9.535646 2.485901
v -3.163952 9.535646 3.163952
v -2.485901 9.535646 3.720414
v -1.712319 9.535646 4.133903
v -0.872932 9.535646 4.388528
v -0.000000 9.535646 4.474504
v 0.872932 9.535646 4.388528
v 1.712319 9.535646 4.133903
v 2.485901 9.535646 3.720414
v 3.163952 9.535646 3.163952
v 3.720414 9.535646 2.485901
v 4.133903 9.535646 1.712319
v 4.388528 9.535646 0.872932
v 4.474504 9.535646 -0.000000
v 4.388528 9.535646 -0.872932
v 4.133903 9.535646 -1.712319
v 3.720414 9.535646 -2.485901
v 3.163952 9.535646 -3.163952
v 2.485901 9.535646 -3.720414
v 1.712319 9.535646 -4.133903
v 0.872932 9.535646 -4.388528
v -5.358796 9.364100 5.358796
v -5.358796 9.934237 5.358796
v -5.358796 9.364100 -5.358796
v -5.358796 9.934237 -5.358796
v 5.358796 9.364100 5.358796
v 5.358796 9.934237 5.358796
v 5.358796 9.364100 -5.358796
v 5.358796 9.934237 -5.358796
vn -0.0000 -1.0000 -0.0000
vn -0.0000 1.0000 -0.0000
vn 0.4714 -0.0000 0.8819
vn -0.9952 -0.0000 0.0980
vn -0.4714 -0.0000 0.8819
vn 0.6344 -0.0000 0.7730
vn -0.9569 -0.0000 0.2903
vn -0.2903 -0.0000 0.9569
vn 0.7730 -0.0000 0.6344
vn -0.8819 -0.0000 0.4714
vn -0.0980 -0.0000 0.9952
vn 0.8819 -0.0000 0.4714
vn -0.7730 -0.0000 0.6344
vn 0.9569 -0.0000 0.2903
vn -0.6344 -0.0000 0.7730
vn 0.9952 -0.0000 0.0980
vn 0.9952 -0.0000 -0.0980
vn 0.9569 -0.0000 -0.2903
vn 0.8819 -0.0000 -0.4714
vn 0.0980 -0.0000 0.9952
vn 0.7730 -0.0000 -0.6344
vn 0.2903 -0.0000 0.9569
vn 0.6344 -0.0000 -0.7730
vn 0.4714 -0.0000 -0.8819
vn 0.2903 -0.0000 -0.9569
vn 0.0980 -0.0000 -0.9952
vn -0.0980 -0.0000 -0.9952
vn -0.2903 -0.0000 -0.9569
vn -0.4714 -0.0000 -0.8819
vn -0.6344 -0.0000 -0.7730
vn -0.7730 -0.0000 -0.6344
vn -0.8819 -0.0000 -0.4714
vn -0.9569 -0.0000 -0.2903
vn -0.9952 -0.0000 -0.0980
vn -1.0000 -0.0000 -0.0000
vn -0.0000 -0.0000 -1.0000
vn 1.0000 -0.0000 -0.0000
vn -0.0000 -0.0000 1.0000
vt 0.000000 0.000000
vt 0.375000 0.000000
vt 0.625000 0.000000
vt 0.625000 0.250000
vt 0.375000 0.250000
vt 0.625000 0.500000
vt 0.375000 0.500000
vt 0.625000 0.750000
vt 0.375000 0.750000
vt 0.625000 1.000000
vt 0.375000 1.000000
vt 0.125000 0.500000
vt 0.125000 0.750000
vt 0.875000 0.500000
vt 0.875000 0.750000
s 0
f 23/1/1 22/1/1 54/1/1 55/1/1
f 10/1/1 9/1/1 41/1/1 42/1/1
f 24/1/1 23/1/1 55/1/1 56/1/1
f 11/1/1 10/1/1 42/1/1 43/1/1
f 25/1/1 24/1/1 56/1/1 57/1/1
f 12/1/1 11/1/1 43/1/1 44/1/1
f 26/1/1 25/1/1 57/1/1 58/1/1
f 13/1/1 12/1/1 44/1/1 45/1/1
f 27/1/1 26/1/1 58/1/1 59/1/1
f 14/1/1 13/1/1 45/1/1 46/1/1
f 28/1/1 27/1/1 59/1/1 60/1/1
f 15/1/1 14/1/1 46/1/1 47/1/1
f 2/1/1 1/1/1 33/1/1 34/1/1
f 29/1/1 28/1/1 60/1/1 61/1/1
f 16/1/1 15/1/1 47/1/1 48/1/1
f 3/1/1 2/1/1 34/1/1 35/1/1
f 30/1/1 29/1/1 61/1/1 62/1/1
f 17/1/1 16/1/1 48/1/1 49/1/1
f 4/1/1 3/1/1 35/1/1 36/1/1
f 31/1/1 30/1/1 62/1/1 63/1/1
f 18/1/1 17/1/1 49/1/1 50/1/1
f 5/1/1 4/1/1 36/1/1 37/1/1
f 32/1/1 31/1/1 63/1/1 64/1/1
f 19/1/1 18/1/1 50/1/1 51/1/1
f 6/1/1 5/1/1 37/1/1 38/1/1
f 1/1/1 32/1/1 64/1/1 33/1/1
f 20/1/1 19/1/1 51/1/1 52/1/1
f 7/1/1 6/1/1 38/1/1 39/1/1
f 21/1/1 20/1/1 52/1/1 53/1/1
f 8/1/1 7/1/1 39/1/1 40/1/1
f 22/1/1 21/1/1 53/1/1 54/1/1
f 9/1/1 8/1/1 40/1/1 41/1/1
f 87/1/2 119/1/2 118/1/2 86/1/2
f 74/1/2 106/1/2 105/1/2 73/1/2
f 88/1/2 120/1/2 119/1/2 87/1/2
f 75/1/2 107/1/2 106/1/2 74/1/2
f 89/1/2 121/1/2 120/1/2 88/1/2
f 76/1/2 108/1/2 107/1/2 75/1/2
f 90/1/2 122/1/2 121/1/2 89/1/2
f 77/1/2 109/1/2 108/1/2 76/1/2
f 91/1/2 123/1/2 122/1/2 90/1/2
f 78/1/2 110/1/2 109/1/2 77/1/2
f 92/1/2 124/1/2 123/1/2 91/1/2
f 79/1/2 111/1/2 110/1/2 78/1/2
f 66/1/2 98/1/2 97/1/2 65/1/2
f 93/1/2 125/1/2 124/1/2 92/1/2
f 80/1/2 112/1/2 111/1/2 79/1/2
f 67/1/2 99/1/2 98/1/2 66/1/2
f 94/1/2 126/1/2 125/1/2 93/1/2
f 81/1/2 113/1/2 112/1/2 80/1/2
f 68/1/2 100/1/2 99/1/2 67/1/2
f 95/1/2 127/1/2 126/1/2 94/1/2
f 82/1/2 114/1/2 113/1/2 81/1/2
f 69/1/2 101/1/2 100/1/2 68/1/2
f 96/1/2 128/1/2 127/1/2 95/1/2
f 83/1/2 115/1/2 114/1/2 82/1/2
f 70/1/2 102/1/2 101/1/2 69/1/2
f 65/1/2 97/1/2 128/1/2 96/1/2
f 84/1/2 116/1/2 115/1/2 83/1/2
f 71/1/2 103/1/2 102/1/2 70/1/2
f 85/1/2 117/1/2 116/1/2 84/1/2
f 72/1/2 104/1/2 103/1/2 71/1/2
f 86/1/2 118/1/2 117/1/2 85/1/2
f 73/1/2 105/1/2 104/1/2 72/1/2
f 35/1/3 99/1/3 100/1/3 36/1/3
f 10/1/4 74/1/4 73/1/4 9/1/4
f 62/1/5 126/1/5 127/1/5 63/1/5
f 36/1/6 100/1/6 101/1/6 37/1/6
f 11/1/7 75/1/7 74/1/7 10/1/7
f 63/1/8 127/1/8 128/1/8 64/1/8
f 37/1/9 101/1/9 102/1/9 38/1/9
f 12/1/10 76/1/10 75/1/10 11/1/10
f 64/1/11 128/1/11 97/1/11 33/1/11
f 38/1/12 102/1/12 103/1/12 39/1/12
f 13/1/13 77/1/13 76/1/13 12/1/13
f 39/1/14 103/1/14 104/1/14 40/1/14
f 14/1/15 78/1/15 77/1/15 13/1/15
f 40/1/16 104/1/16 105/1/16 41/1/16
f 15/1/5 79/1/5 78/1/5 14/1/5
f 41/1/17 105/1/17 106/1/17 42/1/17
f 16/1/8 80/1/8 79/1/8 15/1/8
f 42/1/18 106/1/18 107/1/18 43/1/18
f 17/1/11 81/1/11 80/1/11 16/1/11
f 43/1/19 107/1/19 108/1/19 44/1/19
f 18/1/20 82/1/20 81/1/20 17/1/20
f 44/1/21 108/1/21 109/1/21 45/1/21
f 19/1/22 83/1/22 82/1/22 18/1/22
f 45/1/23 109/1/23 110/1/23 46/1/23
f 20/1/3 84/1/3 83/1/3 19/1/3
f 46/1/24 110/1/24 111/1/24 47/1/24
f 21/1/6 85/1/6 84/1/6 20/1/6
f 47/1/25 111/1/25 112/1/25 48/1/25
f 22/1/9 86/1/9 85/1/9 21/1/9
f 48/1/26 112/1/26 113/1/26 49/1/26
f 23/1/12 87/1/12 86/1/12 22/1/12
f 49/1/27 113/1/27 114/1/27 50/1/27
f 24/1/14 88/1/14 87/1/14 23/1/14
f 50/1/28 114/1/28 115/1/28 51/1/28
f 25/1/16 89/1/16 88/1/16 24/1/16
f 51/1/29 115/1/29 116/1/29 52/1/29
f 26/1/17 90/1/17 89/1/17 25/1/17
f 52/1/30 116/1/30 117/1/30 53/1/30
f 27/1/18 91/1/18 90/1/18 26/1/18
f 53/1/31 117/1/31 118/1/31 54/1/31
f 28/1/19 92/1/19 91/1/19 27/1/19
f 2/1/27 66/1/27 65/1/27 1/1/27
f 54/1/32 118/1/32 119/1/32 55/1/32
f 29/1/21 93/1/21 92/1/21 28/1/21
f 3/1/28 67/1/28 66/1/28 2/1/28
f 55/1/33 119/1/33 120/1/33 56/1/33
f 30/1/23 94/1/23 93/1/23 29/1/23
f 4/1/29 68/1/29 67/1/29 3/1/29
f 56/1/34 120/1/34 121/1/34 57/1/34
f 31/1/24 95/1/24 94/1/24 30/1/24
f 5/1/30 69/1/30 68/1/30 4/1/30
f 57/1/4 121/1/4 122/1/4 58/1/4
f 32/1/25 96/1/25 95/1/25 31/1/25
f 6/1/31 70/1/31 69/1/31 5/1/31
f 58/1/7 122/1/7 123/1/7 59/1/7
f 1/1/26 65/1/26 96/1/26 32/1/26
f 7/1/32 71/1/32 70/1/32 6/1/32
f 59/1/10 123/1/10 124/1/10 60/1/10
f 33/1/20 97/1/20 98/1/20 34/1/20
f 8/1/33 72/1/33 71/1/33 7/1/33
f 60/1/13 124/1/13 125/1/13 61/1/13
f 34/1/22 98/1/22 99/1/22 35/1/22
f 9/1/34 73/1/34 72/1/34 8/1/34
f 61/1/15 125/1/15 126/1/15 62/1/15
f 129/2/35 130/3/35 132/4/35 131/5/35
f 131/5/36 132/4/36 136/6/36 135/7/36
f 135/7/37 136/6/37 134/8/37 133/9/37
f 133/9/38 134/8/38 130/10/38 129/11/38
f 131/12/1 135/7/1 133/9/1 129/13/1
f 136/6/2 132/14/2 130/15/2 134/8/2
