# Blender 4.3.0
# www.blender.org
mtllib warden_cage.mtl
o Cube
v -2.808712 -1.125102 -0.558688
v -2.645749 -1.125102 -1.095905
v -2.381111 -1.125102 -1.591008
v -2.024968 -1.125102 -2.024968
v -1.591008 -1.125102 -2.381111
v -1.095905 -1.125102 -2.645749
v -0.558688 -1.125102 -2.808712
v -0.000000 -1.125102 -2.863738
v -2.863738 -1.125102 0.000000
v -2.808712 -1.125102 0.558688
v -2.645749 -1.125102 1.095905
v -2.381111 -1.125102 1.591008
v -2.024968 -1.125102 2.024968
v -1.591008 -1.125102 2.381111
v -1.095905 -1.125102 2.645749
v -0.558688 -1.125102 2.808712
v -0.000000 -1.125102 2.863738
v 0.558688 -1.125102 2.808712
v 1.095905 -1.125102 2.645749
v 1.591008 -1.125102 2.381111
v 2.024968 -1.125102 2.024968
v 2.381111 -1.125102 1.591008
v 2.645749 -1.125102 1.095905
v 2.808712 -1.125102 0.558688
v 2.863738 -1.125102 0.000000
v 2.808712 -1.125102 -0.558688
v 2.645749 -1.125102 -1.095905
v 2.381111 -1.125102 -1.591008
v 2.024968 -1.125102 -2.024968
v 1.591008 -1.125102 -2.381111
v 1.095905 -1.125102 -2.645749
v 0.558688 -1.125102 -2.808712
v -2.808712 1.132054 -0.558688
v -2.645749 1.132054 -1.095905
v -2.381111 1.132054 -1.591008
v -2.024968 1.132054 -2.024968
v -1.591008 1.132054 -2.381111
v -1.095905 1.132054 -2.645749
v -0.558688 1.132054 -2.808712
v -0.000000 1.132054 -2.863738
v -2.863738 1.132054 0.000000
v -2.808712 1.132054 0.558688
v -2.645749 1.132054 1.095905
v -2.381111 1.132054 1.591008
v -2.024968 1.132054 2.024968
v -1.591008 1.132054 2.381111
v -1.095905 1.132054 2.645749
v -0.558688 1.132054 2.808712
v -0.000000 1.132054 2.863738
v 0.558688 1.132054 2.808712
v 1.095905 1.132054 2.645749
v 1.591008 1.132054 2.381111
v 2.024968 1.132054 2.024968
v 2.381111 1.132054 1.591008
v 2.645749 1.132054 1.095905
v 2.808712 1.132054 0.558688
v 2.863738 1.132054 0.000000
v 2.808712 1.132054 -0.558688
v 2.645749 1.132054 -1.095905
v 2.381111 1.132054 -1.591008
v 2.024968 1.132054 -2.024968
v 1.591008 1.132054 -2.381111
v 1.095905 1.132054 -2.645749
v 0.558688 1.132054 -2.808712
v -2.751584 -1.122644 -0.547324
v -2.591936 -1.122644 -1.073615
v -2.332681 -1.122644 -1.558647
v -1.983782 -1.122644 -1.983781
v -1.558647 -1.122644 -2.332680
v -1.073615 -1.122644 -2.591936
v -0.547324 -1.122644 -2.751584
v -0.000000 -1.122644 -2.805491
v -2.805491 -1.122644 0.000000
v -2.751584 -1.122644 0.547324
v -2.591936 -1.122644 1.073615
v -2.332681 -1.122644 1.558647
v -1.983782 -1.122644 1.983782
v -1.558647 -1.122644 2.332681
v -1.073615 -1.122644 2.591936
v -0.547324 -1.122644 2.751584
v -0.000000 -1.122644 2.805491
v 0.547324 -1.122644 2.751584
v 1.073615 -1.122644 2.591936
v 1.558647 -1.122644 2.332681
v 1.983782 -1.122644 1.983782
v 2.332681 -1.122644 1.558647
v 2.591936 -1.122644 1.073615
v 2.751584 -1.122644 0.547324
v 2.805491 -1.122644 0.000000
v 2.751584 -1.122644 -0.547324
v 2.591936 -1.122644 -1.073615
v 2.332681 -1.122644 -1.558647
v 1.983782 -1.122644 -1.983781
v 1.558647 -1.122644 -2.332680
v 1.073615 -1.122644 -2.591936
v 0.547324 -1.122644 -2.751584
v -2.751584 1.129596 -0.547324
v -2.591936 1.129596 -1.073615
v -2.332681 1.129596 -1.558647
v -1.983782 1.129596 -1.983781
v -1.558647 1.129596 -2.332680
v -1.073615 1.129596 -2.591936
v -0.547324 1.129596 -2.751584
v -0.000000 1.129596 -2.805491
v -2.805491 1.129596 0.000000
v -2.751584 1.129596 0.547324
v -2.591936 1.129596 1.073615
v -2.332681 1.129596 1.558647
v -1.983782 1.129596 1.983782
v -1.558647 1.129596 2.332681
v -1.073615 1.129596 2.591936
v -0.547324 1.129596 2.751584
v -0.000000 1.129596 2.805491
v 0.547324 1.129596 2.751584
v 1.073615 1.129596 2.591936
v 1.558647 1.129596 2.332681
v 1.983782 1.129596 1.983782
v 2.332681 1.129596 1.558647
v 2.591936 1.129596 1.073615
v 2.751584 1.129596 0.547324
v 2.805491 1.129596 0.000000
v 2.751584 1.129596 -0.547324
v 2.591936 1.129596 -1.073615
v 2.332681 1.129596 -1.558647
v 1.983782 1.129596 -1.983781
v 1.558647 1.129596 -2.332680
v 1.073615 1.129596 -2.591936
v 0.547324 1.129596 -2.751584
vn -0.4714 -0.0000 0.8819
vn -0.6344 -0.0000 0.7730
vn 0.9569 -0.0000 -0.2903
vn 0.8819 -0.0000 -0.4714
vn -0.2903 -0.0000 -0.9569
vn 0.7730 -0.0000 -0.6344
vn -0.2903 -0.0000 0.9569
vn -0.9952 -0.0000 0.0980
vn 0.6344 -0.0000 -0.7730
vn -0.0980 -0.0000 0.9952
vn -0.7730 -0.0000 0.6344
vn 0.4714 -0.0000 -0.8819
vn 0.0980 -0.0000 0.9952
vn -0.0980 -0.0000 -0.9952
vn 0.2903 -0.0000 -0.9569
vn 0.2903 -0.0000 0.9569
vn -0.9569 -0.0000 -0.2903
vn 0.0980 -0.0000 -0.9952
vn 0.4714 -0.0000 0.8819
vn -0.6344 -0.0000 -0.7730
vn 0.6344 -0.0000 0.7730
vn -0.8819 -0.0000 -0.4714
vn 0.7730 -0.0000 0.6344
vn -0.8819 -0.0000 0.4714
vn 0.8819 -0.0000 0.4714
vn -0.7730 -0.0000 -0.6344
vn 0.9569 -0.0000 0.2903
vn -0.4714 -0.0000 -0.8819
vn 0.9952 -0.0000 0.0980
vn -0.9569 -0.0000 0.2903
vn 0.9952 -0.0000 -0.0980
vn -0.9952 -0.0000 -0.0980
vn -0.0200 0.9991 -0.0374
vn -0.0422 -0.9991 0.0042
vn -0.0269 0.9991 -0.0327
vn -0.0405 -0.9991 0.0123
vn -0.0327 0.9991 -0.0269
vn -0.0374 -0.9991 0.0200
vn 0.0123 -0.9991 0.0405
vn -0.0374 0.9991 -0.0200
vn -0.0328 -0.9991 0.0269
vn 0.0422 -0.9991 -0.0042
vn -0.0405 0.9991 -0.0123
vn -0.0269 -0.9991 0.0328
vn 0.0328 -0.9991 -0.0269
vn -0.0422 0.9991 -0.0042
vn -0.0200 -0.9991 0.0374
vn 0.0042 -0.9991 0.0422
vn -0.0422 0.9991 0.0042
vn -0.0123 -0.9991 0.0405
vn 0.0405 -0.9991 0.0123
vn -0.0405 0.9991 0.0123
vn -0.0042 -0.9991 0.0422
vn 0.0269 -0.9991 0.0328
vn -0.0374 0.9991 0.0200
vn 0.0123 0.9991 0.0405
vn 0.0374 -0.9991 0.0200
vn -0.0327 0.9991 0.0269
vn 0.0422 0.9991 -0.0042
vn 0.0374 -0.9991 -0.0200
vn -0.0269 0.9991 0.0327
vn 0.0327 0.9991 -0.0269
vn 0.0328 -0.9991 0.0269
vn -0.0200 0.9991 0.0374
vn 0.0042 0.9991 0.0422
vn 0.0200 -0.9991 0.0374
vn -0.0123 0.9991 0.0405
vn 0.0405 0.9991 0.0123
vn 0.0405 -0.9991 -0.0123
vn -0.0042 0.9991 0.0422
vn 0.0269 0.9991 0.0327
vn 0.0422 -0.9991 0.0042
vn 0.0374 0.9991 0.0200
vn 0.0269 -0.9991 -0.0328
vn 0.0374 0.9991 -0.0200
vn 0.0200 -0.9991 -0.0374
vn 0.0327 0.9991 0.0269
vn 0.0123 -0.9991 -0.0405
vn 0.0200 0.9991 0.0374
vn 0.0042 -0.9991 -0.0422
vn 0.0405 0.9991 -0.0123
vn -0.0042 -0.9991 -0.0422
vn 0.0422 0.9991 0.0042
vn -0.0123 -0.9991 -0.0405
vn 0.0269 0.9991 -0.0327
vn -0.0200 -0.9991 -0.0374
vn 0.0200 0.9991 -0.0374
vn -0.0269 -0.9991 -0.0328
vn 0.0123 0.9991 -0.0405
vn -0.0328 -0.9991 -0.0269
vn 0.0042 0.9991 -0.0422
vn -0.0374 -0.9991 -0.0200
vn -0.0042 0.9991 -0.0422
vn -0.0405 -0.9991 -0.0123
vn -0.0123 0.9991 -0.0405
vn -0.0422 -0.9991 -0.0042
vt -0.637377 0.007608
vt -0.637377 0.988126
vt -1.003183 0.988126
vt -1.003183 0.007608
vt -1.368988 0.988126
vt -1.368989 0.007608
vt 3.752292 0.007607
vt 3.752292 0.988125
vt 3.386486 0.988125
vt 3.386486 0.007607
vt 4.118098 0.007607
vt 4.118098 0.988125
vt -5.027046 0.007609
vt -5.027046 0.988127
vt -5.392852 0.988127
vt -5.392852 0.007609
vt 4.483903 0.007607
vt 4.483903 0.988125
vt -0.271572 0.007608
vt -0.271571 0.988126
vt -2.466406 0.007608
vt -2.466406 0.988126
vt -2.832211 0.988126
vt -2.832211 0.007609
vt 4.849709 0.007607
vt 4.849709 0.988125
vt 0.094234 0.007608
vt 0.094234 0.988126
vt -1.734794 0.988126
vt -1.734794 0.007608
vt 5.215515 0.007607
vt 5.215515 0.988125
vt 0.460040 0.007608
vt 0.460041 0.988126
vt -5.758658 0.988127
vt -5.758658 0.007609
vt 5.581321 0.007607
vt 5.581321 0.988125
vt 0.825846 0.007608
vt 0.825846 0.988126
vt -3.198017 0.007609
vt -3.198017 0.988126
vt -3.563823 0.988127
vt -3.563823 0.007609
vt 5.947126 0.007607
vt 5.947126 0.988125
vt 1.191652 0.007607
vt 1.191652 0.988126
vt -4.295434 0.007609
vt -4.295434 0.988127
vt -4.661240 0.988127
vt -4.661241 0.007609
vt 1.557457 0.007607
vt 1.557458 0.988125
vt -3.929628 0.988127
vt -3.929629 0.007609
vt 1.923263 0.007607
vt 1.923263 0.988125
vt -2.100600 0.988126
vt -2.100600 0.007608
vt 2.289069 0.007607
vt 2.289069 0.988125
vt 2.654875 0.007607
vt 2.654875 0.988125
vt 3.020680 0.007607
vt 3.020681 0.988125
vt 0.551013 0.010307
vt 0.909746 0.010308
vt 0.909747 0.989693
vt 0.551014 0.989693
vt 1.268478 0.010307
vt 1.268478 0.989692
vt -3.753777 0.010309
vt -3.395044 0.010309
vt -3.395044 0.989693
vt -3.753777 0.989693
vt -4.112509 0.010308
vt -4.112509 0.989693
vt 4.855803 0.010307
vt 5.214537 0.010307
vt 5.214537 0.989692
vt 4.855804 0.989693
vt -4.471242 0.010309
vt -4.471241 0.989693
vt 0.192281 0.010308
vt 0.192281 0.989692
vt 2.344677 0.010307
vt 2.703409 0.010307
vt 2.703409 0.989693
vt 2.344677 0.989692
vt -4.829974 0.010309
vt -4.829974 0.989693
vt -0.166452 0.010308
vt -0.166451 0.989693
vt 1.627212 0.010307
vt 1.627212 0.989693
vt -5.188707 0.010309
vt -5.188707 0.989693
vt -0.525184 0.010308
vt -0.525184 0.989693
vt 5.573269 0.010307
vt 5.573268 0.989692
vt -5.547440 0.010309
vt -5.547440 0.989693
vt -0.883916 0.010308
vt -0.883917 0.989693
vt 3.062140 0.010307
vt 3.420874 0.010307
vt 3.420874 0.989692
vt 3.062141 0.989693
vt -5.906172 0.010309
vt -5.906173 0.989693
vt -1.242649 0.010308
vt -1.242649 0.989693
vt 4.138339 0.010307
vt 4.497071 0.010307
vt 4.497072 0.989692
vt 4.138340 0.989693
vt -1.601382 0.010308
vt -1.601381 0.989693
vt 3.779606 0.010307
vt 3.779605 0.989693
vt -1.960114 0.010308
vt -1.960115 0.989693
vt 1.985944 0.010308
vt 1.985944 0.989693
vt -2.318847 0.010309
vt -2.318846 0.989693
vt -2.677580 0.010308
vt -2.677580 0.989693
vt -3.036312 0.010308
vt -3.036312 0.989693
vt 0.627067 0.196016
vt 0.630738 0.201929
vt 0.629784 0.202122
vt 0.626188 0.196329
vt 0.578536 0.261923
vt 0.568324 0.260560
vt 0.568639 0.259870
vt 0.578644 0.261205
vt 0.632609 0.208206
vt 0.631617 0.208271
vt 0.588952 0.261933
vt 0.588847 0.261215
vt 0.632609 0.214606
vt 0.631617 0.214541
vt 0.599170 0.260589
vt 0.598858 0.259898
vt 0.636725 0.223076
vt 0.636754 0.230020
vt 0.635677 0.229951
vt 0.635649 0.223149
vt 0.630738 0.220883
vt 0.629784 0.220690
vt 0.608799 0.257943
vt 0.608291 0.257306
vt 0.588952 0.191361
vt 0.599170 0.192705
vt 0.598858 0.193395
vt 0.588847 0.192079
vt 0.627067 0.226796
vt 0.626188 0.226483
vt 0.617470 0.254096
vt 0.616786 0.253538
vt 0.558706 0.195398
vt 0.568324 0.192734
vt 0.568639 0.193424
vt 0.559216 0.196033
vt 0.621738 0.232119
vt 0.620967 0.231698
vt 0.624851 0.249197
vt 0.624016 0.248738
vt 0.634752 0.236834
vt 0.633716 0.236627
vt 0.614955 0.236648
vt 0.614322 0.236134
vt 0.630657 0.243432
vt 0.629704 0.243091
vt 0.608799 0.195351
vt 0.617470 0.199197
vt 0.616786 0.199756
vt 0.608291 0.195988
vt 0.606978 0.240208
vt 0.606507 0.239622
vt 0.634666 0.237024
vt 0.633632 0.236813
vt 0.630657 0.209861
vt 0.634666 0.216270
vt 0.633632 0.216481
vt 0.629704 0.210203
vt 0.598113 0.242663
vt 0.597822 0.242028
vt 0.545839 0.232048
vt 0.540532 0.226715
vt 0.541413 0.226404
vt 0.546611 0.231629
vt 0.624850 0.204097
vt 0.624016 0.204556
vt 0.588700 0.243920
vt 0.588601 0.243258
vt 0.546013 0.190622
vt 0.552815 0.186106
vt 0.553446 0.186621
vt 0.546782 0.191045
vt 0.578536 0.191371
vt 0.578644 0.192088
vt 0.579100 0.243929
vt 0.579197 0.243267
vt 0.569682 0.180122
vt 0.579101 0.178883
vt 0.579197 0.179545
vt 0.569970 0.180758
vt 0.569682 0.242690
vt 0.569970 0.242054
vt 0.552603 0.236590
vt 0.553238 0.236077
vt 0.560807 0.240251
vt 0.561275 0.239664
vt 0.536966 0.201842
vt 0.540661 0.195935
vt 0.541539 0.196250
vt 0.537919 0.202036
vt 0.552815 0.236706
vt 0.553446 0.236191
vt 0.536886 0.220795
vt 0.535042 0.214515
vt 0.536034 0.214451
vt 0.537841 0.220604
vt 0.535069 0.208115
vt 0.536060 0.208182
vt 0.550051 0.199260
vt 0.550738 0.199817
vt 0.560807 0.182561
vt 0.561275 0.183147
vt 0.542691 0.204174
vt 0.543528 0.204631
vt 0.536909 0.209949
vt 0.537863 0.210289
vt 0.532927 0.216365
vt 0.533962 0.216574
vt 0.530897 0.223175
vt 0.531973 0.223246
vt 0.530897 0.230119
vt 0.531973 0.230048
vt 0.588700 0.178892
vt 0.588601 0.179554
vt 0.532927 0.236929
vt 0.533962 0.236720
vt 0.598113 0.180149
vt 0.597823 0.180784
vt 0.536909 0.243345
vt 0.537863 0.243005
vt 0.606978 0.182604
vt 0.606507 0.183190
vt 0.542691 0.249120
vt 0.543528 0.248663
vt 0.614955 0.186164
vt 0.614322 0.186678
vt 0.550051 0.254033
vt 0.550738 0.253476
vt 0.621738 0.190693
vt 0.620967 0.191114
vt 0.558706 0.257896
vt 0.559216 0.257260
s 0
usemtl Material
f 15/1/1 47/2/1 46/3/1 14/4/1
f 14/4/2 46/3/2 45/5/2 13/6/2
f 27/7/3 59/8/3 58/9/3 26/10/3
f 28/11/4 60/12/4 59/8/4 27/7/4
f 6/13/5 38/14/5 39/15/5 7/16/5
f 29/17/6 61/18/6 60/12/6 28/11/6
f 16/19/7 48/20/7 47/2/7 15/1/7
f 10/21/8 42/22/8 41/23/8 9/24/8
f 30/25/9 62/26/9 61/18/9 29/17/9
f 17/27/10 49/28/10 48/20/10 16/19/10
f 13/6/11 45/5/11 44/29/11 12/30/11
f 31/31/12 63/32/12 62/26/12 30/25/12
f 18/33/13 50/34/13 49/28/13 17/27/13
f 7/16/14 39/15/14 40/35/14 8/36/14
f 32/37/15 64/38/15 63/32/15 31/31/15
f 19/39/16 51/40/16 50/34/16 18/33/16
f 1/41/17 33/42/17 34/43/17 2/44/17
f 8/45/18 40/46/18 64/38/18 32/37/18
f 20/47/19 52/48/19 51/40/19 19/39/19
f 4/49/20 36/50/20 37/51/20 5/52/20
f 21/53/21 53/54/21 52/48/21 20/47/21
f 2/44/22 34/43/22 35/55/22 3/56/22
f 22/57/23 54/58/23 53/54/23 21/53/23
f 12/30/24 44/29/24 43/59/24 11/60/24
f 23/61/25 55/62/25 54/58/25 22/57/25
f 3/56/26 35/55/26 36/50/26 4/49/26
f 24/63/27 56/64/27 55/62/27 23/61/27
f 5/52/28 37/51/28 38/14/28 6/13/28
f 25/65/29 57/66/29 56/64/29 24/63/29
f 11/60/30 43/59/30 42/22/30 10/21/30
f 26/10/31 58/9/31 57/66/31 25/65/31
f 9/24/32 41/23/32 33/42/32 1/41/32
f 79/67/12 78/68/12 110/69/12 111/70/12
f 78/68/9 77/71/9 109/72/9 110/69/9
f 91/73/30 90/74/30 122/75/30 123/76/30
f 92/77/24 91/73/24 123/76/24 124/78/24
f 70/79/16 71/80/16 103/81/16 102/82/16
f 93/83/11 92/77/11 124/78/11 125/84/11
f 80/85/15 79/67/15 111/70/15 112/86/15
f 74/87/31 73/88/31 105/89/31 106/90/31
f 94/91/2 93/83/2 125/84/2 126/92/2
f 81/93/18 80/85/18 112/86/18 113/94/18
f 77/71/6 76/95/6 108/96/6 109/72/6
f 95/97/1 94/91/1 126/92/1 127/98/1
f 82/99/14 81/93/14 113/94/14 114/100/14
f 71/80/13 72/101/13 104/102/13 103/81/13
f 96/103/7 95/97/7 127/98/7 128/104/7
f 83/105/5 82/99/5 114/100/5 115/106/5
f 65/107/27 66/108/27 98/109/27 97/110/27
f 72/111/10 96/103/10 128/104/10 104/112/10
f 84/113/28 83/105/28 115/106/28 116/114/28
f 68/115/21 69/116/21 101/117/21 100/118/21
f 85/119/20 84/113/20 116/114/20 117/120/20
f 66/108/25 67/121/25 99/122/25 98/109/25
f 86/123/26 85/119/26 117/120/26 118/124/26
f 76/95/4 75/125/4 107/126/4 108/96/4
f 87/127/22 86/123/22 118/124/22 119/128/22
f 67/121/23 68/115/23 100/118/23 99/122/23
f 88/129/17 87/127/17 119/128/17 120/130/17
f 69/116/19 70/79/19 102/82/19 101/117/19
f 89/131/32 88/129/32 120/130/32 121/132/32
f 75/125/3 74/87/3 106/90/3 107/126/3
f 90/74/8 89/131/8 121/132/8 122/75/8
f 73/88/29 65/107/29 97/110/29 105/89/29
f 51/133/33 52/134/33 116/135/33 115/136/33
f 26/137/34 25/138/34 89/139/34 90/140/34
f 52/134/35 53/141/35 117/142/35 116/135/35
f 27/143/36 26/137/36 90/140/36 91/144/36
f 53/141/37 54/145/37 118/146/37 117/142/37
f 28/147/38 27/143/38 91/144/38 92/148/38
f 6/149/39 7/150/39 71/151/39 70/152/39
f 54/145/40 55/153/40 119/154/40 118/146/40
f 29/155/41 28/147/41 92/148/41 93/156/41
f 10/157/42 9/158/42 73/159/42 74/160/42
f 55/153/43 56/161/43 120/162/43 119/154/43
f 30/163/44 29/155/44 93/156/44 94/164/44
f 13/165/45 12/166/45 76/167/45 77/168/45
f 56/161/46 57/169/46 121/170/46 120/162/46
f 31/171/47 30/163/47 94/164/47 95/172/47
f 7/150/48 8/173/48 72/174/48 71/151/48
f 57/169/49 58/175/49 122/176/49 121/170/49
f 32/177/50 31/171/50 95/172/50 96/178/50
f 1/179/51 2/180/51 66/181/51 65/182/51
f 58/175/52 59/183/52 123/184/52 122/176/52
f 8/185/53 32/177/53 96/178/53 72/186/53
f 4/187/54 5/188/54 69/189/54 68/190/54
f 59/183/55 60/191/55 124/192/55 123/184/55
f 39/193/56 38/194/56 102/195/56 103/196/56
f 2/180/57 3/197/57 67/198/57 66/181/57
f 60/191/58 61/199/58 125/200/58 124/192/58
f 41/201/59 42/202/59 106/203/59 105/204/59
f 12/166/60 11/205/60 75/206/60 76/167/60
f 61/199/61 62/207/61 126/208/61 125/200/61
f 44/209/62 45/210/62 109/211/62 108/212/62
f 3/197/63 4/187/63 68/190/63 67/198/63
f 62/207/64 63/213/64 127/214/64 126/208/64
f 40/215/65 39/193/65 103/196/65 104/216/65
f 5/188/66 6/149/66 70/152/66 69/189/66
f 63/213/67 64/217/67 128/218/67 127/214/67
f 34/219/68 33/220/68 97/221/68 98/222/68
f 11/205/69 10/157/69 74/160/69 75/206/69
f 64/217/70 40/223/70 104/224/70 128/218/70
f 37/225/71 36/226/71 100/227/71 101/228/71
f 9/158/72 1/179/72 65/182/72 73/159/72
f 35/229/73 34/219/73 98/222/73 99/230/73
f 14/231/74 13/165/74 77/168/74 78/232/74
f 43/233/75 44/209/75 108/212/75 107/234/75
f 15/235/76 14/231/76 78/232/76 79/236/76
f 36/226/77 35/229/77 99/230/77 100/227/77
f 16/237/78 15/235/78 79/236/78 80/238/78
f 38/194/79 37/225/79 101/228/79 102/195/79
f 17/239/80 16/237/80 80/238/80 81/240/80
f 42/202/81 43/233/81 107/234/81 106/203/81
f 18/241/82 17/239/82 81/240/82 82/242/82
f 33/220/83 41/201/83 105/204/83 97/221/83
f 19/243/84 18/241/84 82/242/84 83/244/84
f 45/210/85 46/245/85 110/246/85 109/211/85
f 20/247/86 19/243/86 83/244/86 84/248/86
f 46/245/87 47/249/87 111/250/87 110/246/87
f 21/251/88 20/247/88 84/248/88 85/252/88
f 47/249/89 48/253/89 112/254/89 111/250/89
f 22/255/90 21/251/90 85/252/90 86/256/90
f 48/253/91 49/257/91 113/258/91 112/254/91
f 23/259/92 22/255/92 86/256/92 87/260/92
f 49/257/93 50/261/93 114/262/93 113/258/93
f 24/263/94 23/259/94 87/260/94 88/264/94
f 50/261/95 51/133/95 115/136/95 114/262/95
f 25/138/96 24/263/96 88/264/96 89/139/96
